<?xml version="1.0" encoding="UTF-8" standalone="no"?>
<!DOCTYPE svg PUBLIC "-//W3C//DTD SVG 1.1//EN" "http://www.w3.org/Graphics/SVG/1.1/DTD/svg11.dtd">
<svg width="100%" height="100%" viewBox="0 0 1080 3539" version="1.1" xmlns="http://www.w3.org/2000/svg" xmlns:xlink="http://www.w3.org/1999/xlink" xml:space="preserve" xmlns:serif="http://www.serif.com/" style="fill-rule:evenodd;clip-rule:evenodd;stroke-linecap:round;stroke-linejoin:round;stroke-miterlimit:1.5;">
    <g transform="matrix(1,0,0,1.79372,0,0)">
        <rect x="0" y="0" width="1080" height="1973" style="fill:none;"/>
    </g>
    <g transform="matrix(1.21183,0,0,0.8137,-110.776,18.537)">
        <path d="M307,245.038C307,245.038 272.346,613.907 297.765,729.34C334.312,895.306 533.313,1019.37 533.313,1019.37C533.313,1019.37 758.616,873.493 783.757,726.882C802.186,619.41 741,245.038 741,245.038C741,245.038 675.188,99.5 533.313,99.5C391.438,99.5 307,245.038 307,245.038Z" style="fill:rgb(139,97,74);stroke:black;stroke-width:3.88px;"/>
    </g>
    <path d="M491,3155L483.259,3211.92C483.259,3211.92 495.143,3195.56 495,3185C494.857,3174.44 491,3155 491,3155Z" style="fill:rgb(63,63,63);stroke:black;stroke-width:4px;"/>
    <g transform="matrix(1,0,0,1,-1155,0)">
        <path d="M1266.02,3359C1266.02,3359 1268,3467 1378,3480C1478.7,3491.9 1528.15,3413.76 1547,3393C1565.85,3372.24 1590.52,3347.77 1614,3338C1637.48,3328.23 1658.93,3313.02 1664.58,3301C1670.23,3288.98 1664.58,3246 1664.58,3246" style="fill:white;stroke:black;stroke-width:4px;"/>
    </g>
    <path d="M491,3196C487.148,3171.6 491,3155 491,3155C491,3155 477.224,3120.04 418,3130C358.776,3139.96 353,3152 353,3152C353,3152 335.661,3196.51 291,3223C274.923,3232.54 237.818,3256 237.818,3256C237.818,3256 206.146,3292.63 226,3318C246,3343.56 314.93,3353.46 336,3341C407,3299 476,3231 491,3196Z" style="fill:rgb(255,233,238);stroke:black;stroke-width:4px;"/>
    <path d="M491,3155C491,3155 497.788,3167.39 491,3196C483.208,3228.84 378.968,3324.51 335,3341C287,3359 252,3319 237.818,3281C227.003,3252.02 237.818,3247 237.818,3247C237.818,3247 221.527,3249.98 189,3275C176,3285 141.137,3313.37 121,3322.33C106,3329 102,3392 152,3428C186.977,3453.18 270.453,3491.24 357,3401C383.565,3373.3 401,3339 422,3321.11C473.581,3277.17 515,3294 509,3219C506.527,3188.08 492.184,3162.51 491,3155Z" style="fill:white;stroke:black;stroke-width:4px;"/>
    <g transform="matrix(1,0,0,1,-1155,0)">
        <path d="M1730,3257C1730,3257 1726.87,3289.98 1737,3310C1747.13,3330.02 1773.11,3359.39 1780,3396C1786.89,3432.61 1808.27,3501.32 1872,3520C1930,3537 1975.31,3516.5 1996,3498.89C2037,3464 2024.25,3424.04 2024.25,3424.04" style="fill:white;stroke:black;stroke-width:4px;"/>
    </g>
    <path d="M237.818,3247L246,3251L233.751,3262C233.751,3262 232.456,3257.49 233.751,3252.72C235.046,3247.94 237.818,3247 237.818,3247Z" style="fill:rgb(56,56,56);stroke:black;stroke-width:4px;"/>
    <g transform="matrix(0.84566,0.16003,-0.14496,0.766,-454.669,589.64)">
        <path d="M1327,3427C1327,3427 1325.43,3411.49 1340,3412C1354.57,3412.51 1358,3433 1358,3433C1358,3433 1345.98,3432.67 1340.81,3431.67C1336.21,3430.78 1327,3427 1327,3427Z" style="fill:none;stroke:black;stroke-width:4.87px;"/>
    </g>
    <g transform="matrix(0.83513,-0.00788,0.00858,0.90965,-927.572,333.978)">
        <path d="M1327,3427C1327,3427 1325.43,3411.49 1340,3412C1354.57,3412.51 1358,3433 1358,3433C1358,3433 1345.98,3432.67 1340.81,3431.67C1336.21,3430.78 1327,3427 1327,3427Z" style="fill:none;stroke:black;stroke-width:4.58px;"/>
    </g>
    <g transform="matrix(0.913361,-0.407151,0.407151,0.913361,-2355.14,854.307)">
        <path d="M1327,3427C1327,3427 1325.43,3411.49 1340,3412C1354.57,3412.51 1358,3433 1358,3433C1358,3433 1345.98,3432.67 1340.81,3431.67C1336.21,3430.78 1327,3427 1327,3427Z" style="fill:none;stroke:black;stroke-width:4px;"/>
    </g>
    <g transform="matrix(0.679697,-0.733493,0.733493,0.679697,-3118.95,2074.09)">
        <path d="M1327,3427C1327,3427 1325.43,3411.49 1340,3412C1354.57,3412.51 1358,3433 1358,3433C1358,3433 1345.98,3432.67 1340.81,3431.67C1336.21,3430.78 1327,3427 1327,3427Z" style="fill:none;stroke:black;stroke-width:4px;"/>
    </g>
    <g transform="matrix(1,0,0,1,-1155,0)">
        <path d="M1601,3270C1590.87,3269.43 1581.44,3258.38 1594,3237.29C1606.56,3216.2 1650,3194 1646,3163C1644.39,3150.54 1657.27,3170.6 1659,3185C1662,3210 1622.12,3271.18 1601,3270Z" style="fill:white;stroke:black;stroke-width:4px;"/>
    </g>
    <g transform="matrix(-0.72308,-0.04675,-0.07836,1.21187,1197.14,-657.16)">
        <path d="M491,3155L483.259,3211.92C483.259,3211.92 495.143,3195.56 495,3185C494.857,3174.44 491,3155 491,3155Z" style="fill:rgb(63,63,63);stroke:black;stroke-width:4px;"/>
    </g>
    <g transform="matrix(-0.59206,-0.03828,-0.07406,1.14535,1170.04,-440.458)">
        <path d="M234.861,3251.36L246,3253.97L224.172,3274.01C224.172,3274.01 221.741,3262.23 223.036,3257.45C224.331,3252.68 234.861,3251.36 234.861,3251.36Z" style="fill:rgb(56,56,56);stroke:black;stroke-width:4.38px;"/>
    </g>
    <g transform="matrix(-0.72308,-0.04675,-0.07836,1.21187,1197.14,-657.16)">
        <path d="M491,3196C487.148,3171.6 491,3155 491,3155C491,3155 478.895,3135.26 418,3130C349.728,3124.1 312.783,3142.21 312.783,3142.21C312.783,3142.21 318.483,3190.48 273.822,3216.97C257.746,3226.51 219.458,3254.5 219.458,3254.5C219.458,3254.5 126.901,3280.64 199.506,3317.69C226.799,3331.62 305.7,3353.84 336,3341C411.958,3308.82 476,3231 491,3196Z" style="fill:rgb(255,233,238);stroke:black;stroke-width:4px;"/>
    </g>
    <g transform="matrix(-0.72308,-0.04675,-0.07836,1.21187,1197.14,-657.16)">
        <path d="M491,3155C491,3155 497.788,3167.39 491,3196C483.208,3228.84 381.285,3309.25 339.095,3327.31C308.325,3340.49 271.463,3335.73 229.266,3322.73C140.937,3295.53 200.655,3255.67 200.655,3255.67C200.655,3255.67 192.397,3260.61 167.555,3282.85C155.789,3293.38 136.484,3313.92 126.152,3329.78C121.125,3337.5 108.091,3356.15 91.784,3366.25C77.974,3374.8 101.858,3413.67 150.102,3427.91C190.449,3439.82 309.705,3451.66 370.334,3401.33C418.11,3361.68 414.079,3339.13 433.914,3316.61C478.698,3265.76 512.615,3285.94 509,3219C507.326,3188.01 492.184,3162.51 491,3155Z" style="fill:white;stroke:black;stroke-width:4px;"/>
    </g>
    <g transform="matrix(-0.72686,-0.26577,-0.29607,0.71829,2742.81,1377.3)">
        <path d="M1327,3427C1327,3427 1325.43,3411.49 1340,3412C1354.57,3412.51 1358,3433 1358,3433C1358,3433 1345.98,3432.67 1340.81,3431.67C1336.21,3430.78 1327,3427 1327,3427Z" style="fill:none;stroke:black;stroke-width:5.06px;"/>
    </g>
    <g transform="matrix(-0.62985,-0.40314,-0.4888,0.7672,3237.39,1385.03)">
        <path d="M1327,3427C1327,3427 1325.43,3411.49 1340,3412C1354.57,3412.51 1358,3433 1358,3433C1358,3433 1345.98,3432.67 1340.81,3431.67C1336.21,3430.78 1327,3427 1327,3427Z" style="fill:none;stroke:black;stroke-width:4.81px;"/>
    </g>
    <g transform="matrix(-0.47755,-0.77882,-0.79336,0.58114,4045.32,2503.92)">
        <path d="M1327,3427C1327,3427 1325.43,3411.49 1340,3412C1354.57,3412.51 1358,3433 1358,3433C1358,3433 1345.98,3432.67 1340.81,3431.67C1336.21,3430.78 1327,3427 1327,3427Z" style="fill:none;stroke:black;stroke-width:4.4px;"/>
    </g>
    <g transform="matrix(-0.12713,-0.9446,-0.91723,0.22809,3978.49,3900.79)">
        <path d="M1327,3427C1327,3427 1325.43,3411.49 1340,3412C1354.57,3412.51 1358,3433 1358,3433C1358,3433 1345.98,3432.67 1340.81,3431.67C1336.21,3430.78 1327,3427 1327,3427Z" style="fill:none;stroke:black;stroke-width:4.47px;"/>
    </g>
    <g transform="matrix(-0.96544,-0.26065,-0.26065,0.96544,3012,533.744)">
        <path d="M1601,3270C1590.87,3269.43 1581.44,3258.38 1594,3237.29C1606.56,3216.2 1650,3194 1646,3163C1644.39,3150.54 1657.27,3170.6 1659,3185C1662,3210 1622.12,3271.18 1601,3270Z" style="fill:white;stroke:black;stroke-width:4px;"/>
    </g>
    <g transform="matrix(0.89166,0,0,1,18.633,0)">
        <path d="M874.417,1686C874.417,1686 694.11,1730 574.59,1730C412.516,1730 293,1686 293,1686C293,1686 231.658,1740.31 248.862,2044C266.066,2347.69 327,2531 327,2531C327,2531 299.462,2657.4 319,2802C338.538,2946.6 370.152,3146 370.152,3146C370.152,3146 391.235,3196.37 460,3196C528.765,3195.63 540,3140 540,3140C540,3140 547.837,2871.09 545.608,2800C543.378,2728.91 536.578,2530 536.578,2530C536.578,2530 583.143,2309.42 584.233,2245C585.323,2180.58 584.717,2016 584.717,2016L585.053,2077C585.053,2077 584.447,2180.58 585.537,2245C586.627,2309.41 633.192,2530 633.192,2530C633.192,2530 626.392,2728.91 624.162,2800C621.933,2871.09 629.77,3140 629.77,3140C629.77,3140 641.005,3195.62 709.77,3196C778.534,3196.37 799.618,3146 799.618,3146C799.618,3146 831.231,2946.6 850.77,2802C870.308,2657.4 842.77,2531 842.77,2531C842.77,2531 903.704,2347.69 920.908,2044C938.112,1740.31 876.77,1686 876.77,1686" style="fill:rgb(61,61,61);stroke:black;stroke-width:4.22px;"/>
    </g>
    <path d="M125,1150C125,1150 112.977,1350.32 125,1435C137.023,1519.68 237.818,1686 237.818,1686L291,1645C291,1645 273.864,1543 265,1506C258.295,1478.01 237.818,1423 237.818,1423C237.818,1423 251.803,1350.67 256,1311C260.156,1271.72 263,1185 263,1185L125,1150Z" style="fill:rgb(255,233,238);stroke:black;stroke-width:4px;"/>
    <g transform="matrix(-1,0,0,1,1068.28,0)">
        <path d="M125,1150C125,1150 112.977,1350.32 125,1435C137.023,1519.68 237.818,1686 237.818,1686L291,1645C291,1645 273.864,1543 265,1506C258.295,1478.01 237.818,1423 237.818,1423C237.818,1423 251.803,1350.67 256,1311C260.156,1271.72 263,1185 263,1185L125,1150Z" style="fill:rgb(255,233,238);stroke:black;stroke-width:4px;"/>
    </g>
    <path d="M533.313,1789C614.328,1789 834.626,1724 834.626,1724C834.626,1724 841.626,1703 797.626,1588C743.053,1445.37 786.626,1158 786.626,1158L794.626,1245C794.626,1245 818.646,1253.25 877.313,1236C935.98,1218.75 961.626,1183 961.626,1183L961.626,1184C961.626,1184 940.218,1016.5 877.313,957C841.034,922.683 774.825,901.326 709.626,883C619.035,857.537 533.313,775 533.313,775C533.313,775 447.591,857.537 357,883C291.802,901.326 225.592,922.683 189.313,957C126.409,1016.5 105,1184 105,1184L105,1183C105,1183 130.646,1218.75 189.313,1236C247.98,1253.25 272,1245 272,1245L280,1158C280,1158 323.573,1445.37 269,1588C225,1703 232,1724 232,1724C232,1724 452.298,1789 533.313,1789" style="fill:white;stroke:black;stroke-width:4px;"/>
    <path d="M438,727L638,727C638,727 623.658,859.833 645,874C690.83,904.422 615.597,1019.51 541.604,1019.51C467.611,1019.51 379.918,906.3 427,875C463.585,850.678 438,727 438,727Z" style="fill:rgb(255,233,238);stroke:black;stroke-width:4px;"/>
    <g transform="matrix(0.91964,0,0,1,34.867,-110.5)">
        <path d="M542,210C711.99,210 850,330.71 850,522.5C850,632.314 795.587,765.299 725,829C672.306,876.553 614.658,924 542,924C507,924 419.571,876.127 367,829C295.962,765.319 234,632.722 234,522.5C234,330.71 372.01,210 542,210Z" style="fill:rgb(255,233,238);stroke:black;stroke-width:4.16px;"/>
    </g>
    <g transform="matrix(1,0,0,1,-6.687,-79)">
        <path d="M482.873,741L597.127,741C597.127,741 576.816,816 540,816C503.184,816 482.873,741 482.873,741Z" style="fill:white;stroke:black;stroke-width:4px;"/>
    </g>
    <g transform="matrix(1.67258,0,0,1.24084,-334.758,-237.383)">
        <path d="M497.887,570.689C497.887,570.689 508.051,598.291 499.681,636.169C496.328,651.342 489.379,663.601 490.713,672.435C492.046,681.268 515,690.97 515,690.97" style="fill:none;stroke:black;stroke-width:2.72px;"/>
    </g>
    <g transform="matrix(1,0,0,1,37.44,-120.314)">
        <path d="M279,557.5C279,557.5 294.676,539.323 333,534C405,524 434,557.5 434,557.5" style="fill:none;stroke:rgb(79,25,0);stroke-width:10px;"/>
    </g>
    <g transform="matrix(1.14811,0,0,1,-58.433,-120.314)">
        <path d="M404.5,572.641C420.603,575.045 435.728,590.059 434,611.356C432,636 420.781,650.119 404.5,650.07C381,650 370.319,636.595 366,615C365,610 360,566 404.5,572.641Z" style="fill:url(#_Radial1);stroke:black;stroke-width:3.72px;"/>
    </g>
    <g transform="matrix(1.14811,0,0,1,-64.173,-120.36)">
        <circle cx="389.865" cy="596.865" r="9.865" style="fill:white;"/>
    </g>
    <g transform="matrix(1.14811,0,0,1,-63.206,-124.314)">
        <circle cx="403.888" cy="615.843" r="9.157"/>
    </g>
    <g transform="matrix(1.14811,0,0,1,-60.433,-120.314)">
        <path d="M379,635C379,635 373.746,624.317 384.865,625C395.984,625.683 401.528,632.933 408.888,626C416.247,619.067 414.127,612.505 423,611.015C435,609 434.613,642.812 415,647.535C384,655 379,635 379,635Z" style="fill:white;fill-opacity:0.4;"/>
    </g>
    <g transform="matrix(1,0,0,1,0.44,-120.314)">
        <path d="M330,591C330,591 354.79,569.639 400.5,573C446.21,576.361 471,621 471,621" style="fill:none;stroke:rgb(79,25,0);stroke-width:10px;"/>
    </g>
    <g transform="matrix(1,0,0,1,0.44,-120.314)">
        <path d="M357,635C357,635 372.285,648.952 400.5,650C428.715,651.048 447,640 447,640" style="fill:none;stroke:rgb(79,25,0);stroke-width:4px;"/>
    </g>
    <g transform="matrix(1,0,0,1,-1155,0)">
        <path d="M1471.44,453.5C1471.44,453.5 1518.17,440.18 1551,439.237C1594,438 1627,468.855 1627,468.855" style="fill:none;stroke:rgb(79,25,0);stroke-width:4px;"/>
    </g>
    <g transform="matrix(1.03333,0,0,1.0475,-13.193,-147.435)">
        <path d="M330,592L319,582C319,582 322.443,581.428 346.097,575.771C378.032,568.134 409,572.641 409,572.641C409,572.641 375.427,568.443 358.677,575.771C342.677,582.771 330,592 330,592Z" style="fill:rgb(79,25,0);stroke:rgb(79,25,0);stroke-width:3.84px;"/>
    </g>
    <g transform="matrix(1,0,0,1,0.44,-120.314)">
        <path d="M357,539C357,539 414.122,530.023 427,532.136C436.785,533.742 475,547.818 475,547.818C475,547.818 477.99,561.483 472,560.5C466.078,559.528 442.058,544.256 417,540C387.569,535.002 357,539 357,539Z" style="fill:rgb(79,25,0);stroke:rgb(79,25,0);stroke-width:4px;"/>
    </g>
    <g transform="matrix(-1,0,0,1,1029.19,-120.314)">
        <path d="M279,557.5C279,557.5 294.676,539.323 333,534C405,524 434,557.5 434,557.5" style="fill:none;stroke:rgb(79,25,0);stroke-width:10px;"/>
    </g>
    <g transform="matrix(-1.14811,0,0,1,1124.44,-120.314)">
        <path d="M404.5,572.641C420.603,575.045 435.728,590.059 434,611.356C432,636 420.781,650.119 404.5,650.07C381,650 370.319,636.595 366,615C365,610 360,566 404.5,572.641Z" style="fill:url(#_Radial2);stroke:black;stroke-width:3.72px;"/>
    </g>
    <g transform="matrix(1.14811,0,0,1,196.692,-120.36)">
        <circle cx="389.865" cy="596.865" r="9.865" style="fill:white;"/>
    </g>
    <g transform="matrix(1.14811,0,0,1,201.104,-124.314)">
        <circle cx="403.888" cy="615.843" r="9.157"/>
    </g>
    <g transform="matrix(1.14811,0,0,1,202.433,-120.314)">
        <path d="M379,635C379,635 373.746,624.317 384.865,625C395.984,625.683 401.528,632.933 408.888,626C416.247,619.067 414.127,612.505 423,611.015C435,609 434.613,642.812 415,647.535C384,655 379,635 379,635Z" style="fill:white;fill-opacity:0.42;"/>
    </g>
    <g transform="matrix(-1,0,0,1,1066.19,-120.314)">
        <path d="M357,635C357,635 372.285,648.952 400.5,650C428.715,651.048 447,640 447,640" style="fill:none;stroke:rgb(79,25,0);stroke-width:4px;"/>
    </g>
    <g transform="matrix(-1,0,0,1,1066.19,-120.314)">
        <path d="M330,591C330,591 354.79,569.639 400.5,573C446.21,576.361 471,621 471,621" style="fill:none;stroke:rgb(79,25,0);stroke-width:10px;"/>
    </g>
    <g transform="matrix(-1,0,0,1,2220,0.472)">
        <path d="M1471.44,453.5C1471.44,453.5 1518.17,440.18 1551,439.237C1594,438 1627,468.855 1627,468.855" style="fill:none;stroke:rgb(79,25,0);stroke-width:4px;"/>
    </g>
    <g transform="matrix(-1.03333,0,0,1.0475,1079.82,-147.435)">
        <path d="M330,592L319,582C319,582 322.443,581.428 346.097,575.771C378.032,568.134 409,572.641 409,572.641C409,572.641 375.427,568.443 358.677,575.771C342.677,582.771 330,592 330,592Z" style="fill:rgb(79,25,0);stroke:rgb(79,25,0);stroke-width:3.84px;"/>
    </g>
    <g transform="matrix(-1,0,0,1,1066.19,-120.314)">
        <path d="M357,539C357,539 414.122,530.023 427,532.136C436.785,533.742 475,547.818 475,547.818C475,547.818 477.99,561.483 472,560.5C466.078,559.528 442.058,544.256 417,540C387.569,535.002 357,539 357,539Z" style="fill:rgb(79,25,0);stroke:rgb(79,25,0);stroke-width:4px;"/>
    </g>
    <g transform="matrix(0.994125,-0.108242,0.108242,0.994125,-1220.28,204.458)">
        <path d="M1639,46.39C1639,46.39 1756.87,-46.139 1867,46.39C1977.13,138.919 1934,213 1934,213L1639,46.39Z" style="fill:rgb(246,234,180);stroke:rgb(79,25,0);stroke-width:4px;"/>
    </g>
    <g transform="matrix(0.97282,0,0,0.75883,8.677,-78.88)">
        <path d="M546.17,356.969C546.17,356.969 395.062,330.613 321.05,491.114C279.577,581.052 255.65,688.082 277.877,794.484C300.103,900.885 348.805,986.885 348.805,986.885C348.805,986.885 325.821,985.18 275.821,905.18C265.013,887.887 233.909,763.956 233.909,763.956C233.909,763.956 253.839,913.715 274.793,956.575C296.793,1001.58 377.587,1084.4 377.587,1084.4C377.587,1084.4 266.574,1027.09 230.591,949.986C183.611,849.314 160.691,675.88 195.641,546.734C231.309,414.937 255.722,315.613 344.693,235.071C437.096,151.422 546.17,188.289 546.17,188.289C546.17,188.289 713.724,159.297 790.82,304.256C868.723,450.733 896.373,738.637 883.335,832.7C869.335,933.7 836.628,975.024 836.628,975.024C836.628,975.024 854.3,912.411 849.413,849.832C844.525,787.252 830.461,760.22 830.461,760.22C830.461,760.22 846.329,926.265 787,1000C749.576,1046.51 724,1049 724,1049C724,1049 763.066,996.109 778.485,923.629C786.123,887.727 805.365,751.736 786.002,626.263C771.289,530.921 727.37,456.642 684.878,422.86C596.314,352.448 546.17,356.969 546.17,356.969Z" style="fill:rgb(105,74,8);stroke:rgb(79,25,0);stroke-width:4.58px;"/>
    </g>
    <g transform="matrix(1,0,0,1,-1155,0)">
        <path d="M1680.35,98.458C1680.35,98.458 1574.54,74.081 1528.58,127.935C1482.62,181.789 1430.12,283.933 1416.2,316.284C1402.29,348.634 1380.87,482.586 1384.72,524.994C1388.87,570.586 1412.38,643.94 1412.38,643.94C1412.38,643.94 1391.8,556.466 1408.25,460.524C1424.69,364.582 1496.79,216.375 1530.47,187.102C1564.16,157.829 1670.52,166.976 1670.52,166.976L1668.98,140.25L1617.15,121.397L1669.34,116.995L1680.35,98.458Z" style="fill:rgb(246,234,180);fill-opacity:0.77;"/>
    </g>
    <g transform="matrix(1,0,0,1,-1155,0)">
        <path d="M1680.35,98.458L1625.99,93.121L1681.43,78.878C1681.43,78.878 1640.65,65.107 1591.34,74.892C1551.71,82.753 1503.8,112.581 1488.07,125.808C1415.76,186.627 1382.44,307.34 1368.53,339.69C1354.62,372.04 1341.26,526.831 1362.32,567.483C1383.37,608.135 1412.38,643.94 1412.38,643.94C1412.38,643.94 1356.27,539.296 1372.72,443.354C1389.16,347.412 1452.7,176.454 1490.84,153.28C1577.18,100.819 1671.03,136.741 1671.03,136.741L1647.63,112.924L1680.35,98.458Z" style="fill:rgb(246,234,180);fill-opacity:0.77;"/>
    </g>
    <g transform="matrix(-1,0,0,1,2206.84,3.252)">
        <path d="M1678.44,145.964C1678.44,145.964 1588.15,117.187 1529.86,157.367C1477.67,193.341 1413.05,273.159 1399.13,305.509C1385.22,337.859 1380.2,428.69 1386.63,495.665C1391.01,541.236 1441.95,656.504 1441.95,656.504C1441.95,656.504 1400.79,512.279 1405.37,420.56C1411.15,304.876 1487.04,231.13 1520.72,201.857C1554.41,172.584 1676.79,162.948 1676.79,162.948L1678.44,145.964Z" style="fill:rgb(246,234,180);fill-opacity:0.77;"/>
    </g>
    <g transform="matrix(-0.98275,0.18494,0.18494,0.98275,2128.22,-333.621)">
        <path d="M1678.44,145.964C1678.44,145.964 1591.82,131.444 1529.86,157.367C1471.38,181.833 1409.7,271.918 1399.13,305.509C1388.34,339.829 1378.14,460.094 1389.31,526.037C1396.12,566.206 1434.75,658.887 1434.75,658.887C1434.75,658.887 1390.37,494.617 1405.3,388.309C1421.41,273.605 1487.04,231.13 1520.72,201.857C1554.41,172.584 1676.79,162.948 1676.79,162.948L1678.44,145.964Z" style="fill:rgb(246,234,180);fill-opacity:0.77;"/>
    </g>
    <g transform="matrix(-0.90917,0.41643,0.21606,0.47172,839.428,-142.398)">
        <path d="M426.198,328.521C426.198,328.521 485.85,389.268 561.195,447.525C638.003,506.914 670.581,486.635 670.581,486.635C635.47,473.112 620.666,424.704 595.709,393.738C595.709,393.738 637.66,478.132 719.167,495.135C800.674,512.138 810.175,519.103 810.175,519.103C810.175,519.103 786.26,495.219 764.638,462.827C709.434,380.126 703.329,329.736 586.691,270.927C487.478,220.903 426.198,328.521 426.198,328.521Z" style="fill:rgb(246,234,180);stroke:rgb(79,25,0);stroke-width:5.02px;"/>
    </g>
    <g transform="matrix(0.79474,0.36402,-0.17595,0.38415,261.681,-71.113)">
        <path d="M395.016,304.588C395.016,304.588 472.173,270.524 561.596,373.213C637.277,460.121 752.67,553.363 752.67,553.363C717.559,539.841 676.895,427.956 589.726,312.717C589.726,312.717 656.275,374.607 721.388,492.523C791.334,619.193 822.841,734.796 822.841,734.796C822.841,734.796 780.488,548.167 765.205,502.884C713.996,351.15 671.779,293.082 584.214,234.293C487.37,169.273 395.016,304.588 395.016,304.588Z" style="fill:rgb(246,234,180);stroke:rgb(79,25,0);stroke-width:5.83px;"/>
    </g>
    <g transform="matrix(1,0,0,0.70351,-10.93,17)">
        <path d="M351,99.5C351,99.5 323.931,120.822 280.931,196.702C256.305,240.158 249.704,257.28 249.704,257.28C249.704,257.28 300.516,271.503 392.931,258.701C628.931,226.008 741,129.112 741,129.112C741,129.112 557.924,167.581 447,149C336.076,130.419 351,99.5 351,99.5Z" style="fill:url(#_Linear3);"/>
    </g>
    <g transform="matrix(1.10386,0,0,1.05727,-1320.88,-11.492)">
        <path d="M1677.92,417.836C1730.88,417.71 1732.29,404.312 1811.85,400.765C1891.41,397.219 1912.85,439.688 1912.85,439.688C1912.85,439.688 1908.42,499.749 1867.85,531.836C1827.28,563.922 1767.45,559.974 1728.85,541.836C1690.24,523.697 1712.18,439.823 1677.92,439.688C1643.67,439.823 1665.6,523.697 1627,541.836C1588.4,559.974 1528.57,563.922 1488,531.836C1447.43,499.749 1443,439.688 1443,439.688C1443,439.688 1464.44,397.219 1544,400.765C1623.56,404.312 1624.97,417.71 1677.92,417.836ZM1645,428C1639.6,422.566 1587.59,410.77 1546,409C1499,407 1459.87,425.806 1460,439C1460.13,452.194 1471.05,539.437 1538,546C1589,551 1614.5,542.343 1631.19,530C1642,522 1654.94,438 1645,428ZM1710.85,428.21C1700.91,438.21 1713.85,522.21 1724.66,530.21C1741.35,542.554 1766.85,551.21 1817.85,546.21C1884.79,539.647 1895.71,452.404 1895.85,439.21C1895.98,426.017 1856.85,407.21 1809.85,409.21C1768.26,410.98 1716.25,422.777 1710.85,428.21Z" style="fill:white;fill-opacity:0.45;stroke:black;stroke-width:1.85px;"/>
    </g>
    <defs>
        <radialGradient id="_Radial1" cx="0" cy="0" r="1" gradientUnits="userSpaceOnUse" gradientTransform="matrix(68.809,0,0,78.1099,365.326,611.015)"><stop offset="0" style="stop-color:rgb(145,139,139);stop-opacity:1"/><stop offset="1" style="stop-color:rgb(79,25,0);stop-opacity:1"/></radialGradient>
        <radialGradient id="_Radial2" cx="0" cy="0" r="1" gradientUnits="userSpaceOnUse" gradientTransform="matrix(68.809,0,0,78.1099,365.326,611.015)"><stop offset="0" style="stop-color:rgb(145,139,139);stop-opacity:1"/><stop offset="1" style="stop-color:rgb(79,25,0);stop-opacity:1"/></radialGradient>
        <linearGradient id="_Linear3" x1="0" y1="0" x2="1" y2="0" gradientUnits="userSpaceOnUse" gradientTransform="matrix(491.233,0,0,491.233,249.767,172.269)"><stop offset="0" style="stop-color:white;stop-opacity:0.62"/><stop offset="1" style="stop-color:white;stop-opacity:0.17"/></linearGradient>
    </defs>
</svg>
