<svg viewBox="0 0 1455 3539" xmlns="http://www.w3.org/2000/svg" xml:space="preserve" style="fill-rule:evenodd;clip-rule:evenodd;stroke-linecap:round;stroke-linejoin:round;stroke-miterlimit:1.5"><g transform="scale(1.34722 1.79372)"><path style="fill:none" d="M0 0h1080v1973H0z"/><clipPath id="a"><path d="M0 0h1080v1973H0z"/></clipPath><g clip-path="url(#a)"><path d="M307 245.038s-34.654 368.869-9.235 484.302c36.547 165.966 235.548 290.03 235.548 290.03s225.303-145.877 250.444-292.488C802.186 619.41 741 245.038 741 245.038S675.188 99.5 533.313 99.5 307 245.038 307 245.038Z" style="fill:#8b614a;stroke:#000;stroke-width:3.88px" transform="matrix(.8995 0 0 .45364 62.517 10.334)"/><path d="m491 3155-7.741 56.92S495.143 3195.56 495 3185c-.143-10.56-4-30-4-30Z" style="fill:#3f3f3f;stroke:#000;stroke-width:4px" transform="matrix(.74227 0 0 .5575 144.742 0)"/><path d="M1266.02 3359s1.98 108 111.98 121c100.7 11.9 150.15-66.24 169-87 18.85-20.76 43.52-45.23 67-55 23.48-9.77 44.93-24.98 50.58-37 5.65-12.02 0-55 0-55" style="fill:#fff;stroke:#000;stroke-width:4px" transform="matrix(.74227 0 0 .5575 -712.578 0)"/><path d="M491 3196c-3.852-24.4 0-41 0-41s-13.776-34.96-73-25c-59.224 9.96-65 22-65 22s-17.339 44.51-62 71c-16.077 9.54-53.182 33-53.182 33s-31.672 36.63-11.818 62c20 25.56 88.93 35.46 110 23 71-42 140-110 155-145Z" style="fill:#ffe9ee;stroke:#000;stroke-width:4px" transform="matrix(.74227 0 0 .5575 144.742 0)"/><path d="M491 3155s6.788 12.39 0 41c-7.792 32.84-112.032 128.51-156 145-48 18-83-22-97.182-60-10.815-28.98 0-34 0-34s-16.291 2.98-48.818 28c-13 10-47.863 38.37-68 47.33-15 6.67-19 69.67 31 105.67 34.977 25.18 118.453 63.24 205-27 26.565-27.7 44-62 65-79.89 51.581-43.94 93-27.11 87-102.11-2.473-30.92-16.816-56.49-18-64Z" style="fill:#fff;stroke:#000;stroke-width:4px" transform="matrix(.74227 0 0 .5575 144.742 0)"/><path d="M1730 3257s-3.13 32.98 7 53c10.13 20.02 36.11 49.39 43 86 6.89 36.61 28.27 105.32 92 124 58 17 103.31-3.5 124-21.11 41-34.89 28.25-74.85 28.25-74.85" style="fill:#fff;stroke:#000;stroke-width:4px" transform="matrix(.74227 0 0 .5575 -712.578 0)"/><path d="m237.818 3247 8.182 4-12.249 11s-1.295-4.51 0-9.28c1.295-4.78 4.067-5.72 4.067-5.72Z" style="fill:#383838;stroke:#000;stroke-width:4px" transform="matrix(.74227 0 0 .5575 144.742 0)"/><path d="M1327 3427s-1.57-15.51 13-15c14.57.51 18 21 18 21s-12.02-.33-17.19-1.33c-4.6-.89-13.81-4.67-13.81-4.67Z" style="fill:none;stroke:#000;stroke-width:4.87px" transform="matrix(.6277 .08922 -.1076 .42704 -192.744 328.725)"/><path d="M1327 3427s-1.57-15.51 13-15c14.57.51 18 21 18 21s-12.02-.33-17.19-1.33c-4.6-.89-13.81-4.67-13.81-4.67Z" style="fill:none;stroke:#000;stroke-width:4.58px" transform="matrix(.61989 -.0044 .00637 .50713 -543.765 186.193)"/><path d="M1327 3427s-1.57-15.51 13-15c14.57.51 18 21 18 21s-12.02-.33-17.19-1.33c-4.6-.89-13.81-4.67-13.81-4.67Z" style="fill:none;stroke:#000;stroke-width:4px" transform="matrix(.67796 -.22699 .30222 .5092 -1603.403 476.276)"/><path d="M1327 3427s-1.57-15.51 13-15c14.57.51 18 21 18 21s-12.02-.33-17.19-1.33c-4.6-.89-13.81-4.67-13.81-4.67Z" style="fill:none;stroke:#000;stroke-width:4px" transform="matrix(.50451 -.40893 .54445 .37893 -2170.37 1156.32)"/><path d="M1601 3270c-10.13-.57-19.56-11.62-7-32.71 12.56-21.09 56-43.29 52-74.29-1.61-12.46 11.27 7.6 13 22 3 25-36.88 86.18-58 85Z" style="fill:#fff;stroke:#000;stroke-width:4px" transform="matrix(.74227 0 0 .5575 -712.578 0)"/><path d="m491 3155-7.741 56.92S495.143 3195.56 495 3185c-.143-10.56-4-30-4-30Z" style="fill:#3f3f3f;stroke:#000;stroke-width:4px" transform="matrix(-.53672 -.02607 -.05816 .67562 1033.34 -366.367)"/><path d="m234.861 3251.36 11.139 2.61-21.828 20.04s-2.431-11.78-1.136-16.56c1.295-4.77 11.825-6.09 11.825-6.09Z" style="fill:#383838;stroke:#000;stroke-width:4.38px" transform="matrix(-.43947 -.02134 -.05497 .63853 1013.222 -245.555)"/><path d="M491 3196c-3.852-24.4 0-41 0-41s-12.105-19.74-73-25c-68.272-5.9-105.217 12.21-105.217 12.21s5.7 48.27-38.961 74.76c-16.076 9.54-54.364 37.53-54.364 37.53s-92.557 26.14-19.952 63.19C226.799 3331.62 305.7 3353.84 336 3341c75.958-32.18 140-110 155-145Z" style="fill:#ffe9ee;stroke:#000;stroke-width:4px" transform="matrix(-.53672 -.02607 -.05816 .67562 1033.34 -366.367)"/><path d="M491 3155s6.788 12.39 0 41c-7.792 32.84-109.715 113.25-151.905 131.31-30.77 13.18-67.632 8.42-109.829-4.58-88.329-27.2-28.611-67.06-28.611-67.06s-8.258 4.94-33.1 27.18c-11.766 10.53-31.071 31.07-41.403 46.93-5.027 7.72-18.061 26.37-34.368 36.47-13.81 8.55 10.074 47.42 58.318 61.66 40.347 11.91 159.603 23.75 220.232-26.58 47.776-39.65 43.745-62.2 63.58-84.72 44.784-50.85 78.701-30.67 75.086-97.61-1.674-30.99-16.816-56.49-18-64Z" style="fill:#fff;stroke:#000;stroke-width:4px" transform="matrix(-.53672 -.02607 -.05816 .67562 1033.34 -366.367)"/><path d="M1327 3427s-1.57-15.51 13-15c14.57.51 18 21 18 21s-12.02-.33-17.19-1.33c-4.6-.89-13.81-4.67-13.81-4.67Z" style="fill:none;stroke:#000;stroke-width:5.06px" transform="matrix(-.53953 -.14817 -.21976 .40045 2180.643 767.846)"/><path d="M1327 3427s-1.57-15.51 13-15c14.57.51 18 21 18 21s-12.02-.33-17.19-1.33c-4.6-.89-13.81-4.67-13.81-4.67Z" style="fill:none;stroke:#000;stroke-width:4.81px" transform="matrix(-.46752 -.22475 -.36282 .42772 2547.752 772.155)"/><path d="M1327 3427s-1.57-15.51 13-15c14.57.51 18 21 18 21s-12.02-.33-17.19-1.33c-4.6-.89-13.81-4.67-13.81-4.67Z" style="fill:none;stroke:#000;stroke-width:4.4px" transform="matrix(-.35447 -.4342 -.58889 .32399 3147.455 1395.938)"/><path d="M1327 3427s-1.57-15.51 13-15c14.57.51 18 21 18 21s-12.02-.33-17.19-1.33c-4.6-.89-13.81-4.67-13.81-4.67Z" style="fill:none;stroke:#000;stroke-width:4.47px" transform="matrix(-.09437 -.52661 -.68083 .12716 3097.848 2174.693)"/><path d="M1601 3270c-10.13-.57-19.56-11.62-7-32.71 12.56-21.09 56-43.29 52-74.29-1.61-12.46 11.27 7.6 13 22 3 25-36.88 86.18-58 85Z" style="fill:#fff;stroke:#000;stroke-width:4px" transform="matrix(-.71661 -.14531 -.19347 .53823 2380.452 297.563)"/><path d="M874.417 1686s-180.307 44-299.827 44c-162.074 0-281.59-44-281.59-44s-61.342 54.31-44.138 358S327 2531 327 2531s-27.538 126.4-8 271 51.152 344 51.152 344 21.083 50.37 89.848 50c68.765-.37 80-56 80-56s7.837-268.91 5.608-340c-2.23-71.09-9.03-270-9.03-270s46.565-220.58 47.655-285c1.09-64.42.484-229 .484-229l.336 61s-.606 103.58.484 168c1.09 64.41 47.655 285 47.655 285s-6.8 198.91-9.03 270c-2.229 71.09 5.608 340 5.608 340s11.235 55.62 80 56c68.764.37 89.848-50 89.848-50s31.613-199.4 51.152-344c19.538-144.6-8-271-8-271s60.934-183.31 78.138-487c17.204-303.69-44.138-358-44.138-358" style="fill:#3d3d3d;stroke:#000;stroke-width:4.22px" transform="matrix(.66185 0 0 .5575 158.572 0)"/><path d="M125 1150s-17 208-7 293c.14 1.19-9.764 45.23-18 86-12.422 61.49-20 134-20 134l66 22s52.13-86.92 69-136c11-32 16-96 16-96s20.803-102.33 25-142c4.156-39.28 7-126 7-126l-138-35Z" style="fill:#ffe9ee;stroke:#000;stroke-width:4px" transform="matrix(.74227 0 0 .5575 144.742 0)"/><path d="M125 1150s-12.023 200.32 0 285 112.818 251 112.818 251L291 1645s-17.136-102-26-139c-6.705-27.99-27.182-83-27.182-83s13.985-72.33 18.182-112c4.156-39.28 7-126 7-126l-138-35Z" style="fill:#ffe9ee;stroke:#000;stroke-width:4px" transform="matrix(-.74227 0 0 .5575 937.692 0)"/><path d="M533.313 1789c81.015 0 301.313-65 301.313-65s7-21-37-136c-54.573-142.63-11-430-11-430l8 87s24.02 8.25 82.687-9 84.313-53 84.313-53v1s-21.408-167.5-84.313-227c-36.279-34.317-102.488-55.674-167.687-74-90.591-25.463-176.313-108-176.313-108S447.591 857.537 357 883c-65.198 18.326-131.408 39.683-167.687 74C126.409 1016.5 105 1184 105 1184v-1s25.646 35.75 84.313 53 82.687 9 82.687 9l8-87s43.573 287.37-11 430c-44 115-37 136-37 136s220.298 65 301.313 65" style="fill:#fff;stroke:#000;stroke-width:4px" transform="matrix(.74227 0 0 .5575 144.742 0)"/><path d="M438 727h200s-14.342 132.833 7 147c45.83 30.422-29.403 145.51-103.396 145.51S379.918 906.3 427 875c36.585-24.322 11-148 11-148Z" style="fill:#ffe9ee;stroke:#000;stroke-width:4px" transform="matrix(.74227 0 0 .5575 144.742 0)"/><path d="M1639 46.39s117.87-92.529 228 0S1934 213 1934 213L1639 46.39Z" style="fill:#f6eab4;stroke:#4f1900;stroke-width:4px" transform="matrix(.7379 -.06035 .08035 .55423 -761.092 113.994)"/><path d="M200.534 388.409c32.904 0 28.731 53.708 28.731 90.591 0 36.883 6.466 78.5-32.901 78.5C156.997 557.5 160 504 160 479c0-47.958-3.36-90.591 40.534-90.591Z" style="fill:#fff;stroke:#000;stroke-width:2.4px" transform="matrix(.74046 -.03889 .06282 .67475 120.631 -39.32)"/><path d="M200.534 388.409c32.904 0 28.731 53.708 28.731 90.591 0 36.883 6.466 78.5-32.901 78.5C156.997 557.5 160 504 160 479c0-47.958-3.36-90.591 40.534-90.591Z" style="fill:#fff;stroke:#000;stroke-width:2.4px" transform="matrix(.74046 .03889 -.06282 .67475 664.561 -53.04)"/><path d="M542 210c169.99 0 308 120.71 308 312.5 0 109.814-54.413 242.799-125 306.5-52.694 47.553-110.342 95-183 95-35 0-122.429-47.873-175-95-71.038-63.681-133-196.278-133-306.5C234 330.71 372.01 210 542 210Z" style="fill:#ffe9ee;stroke:#000;stroke-width:4.16px" transform="matrix(.68262 0 0 .5575 170.622 -61.604)"/><path d="M482.873 741h114.254S576.816 816 540 816s-57.127-75-57.127-75Z" style="fill:#fff;stroke:#000;stroke-width:4px" transform="matrix(.74227 0 0 .5575 139.779 -44.043)"/><path d="M497.887 570.689s10.164 27.602 1.794 65.48c-3.353 15.173-10.302 27.432-8.968 36.266C492.046 681.268 515 690.97 515 690.97" style="fill:none;stroke:#000;stroke-width:2.72px" transform="matrix(1.2415 0 0 .69177 -103.738 -132.341)"/><path d="M279 557.5s15.676-18.177 54-23.5c72-10 101 23.5 101 23.5" style="fill:none;stroke:#4f1900;stroke-width:10px" transform="matrix(.74227 0 0 .5575 172.533 -67.075)"/><path d="M404.5 572.641c16.103 2.404 31.228 17.418 29.5 38.715-2 24.644-13.219 38.763-29.5 38.714C381 650 370.319 636.595 366 615c-1-5-6-49 38.5-42.359Z" style="fill:url(#b);stroke:#000;stroke-width:3.72px" transform="matrix(.8522 0 0 .5575 101.37 -67.075)"/><circle cx="389.865" cy="596.865" r="9.865" style="fill:#fff" transform="matrix(.8522 0 0 .5575 97.108 -67.1)"/><circle cx="403.888" cy="615.843" r="9.157" transform="matrix(.8522 0 0 .5575 97.827 -69.305)"/><path d="M379 635s-5.254-10.683 5.865-10c11.119.683 16.663 7.933 24.023 1 7.359-6.933 5.239-13.495 14.112-14.985 12-2.015 11.613 31.797-8 36.52C384 655 379 635 379 635Z" style="fill:#fff;fill-opacity:.4" transform="matrix(.8522 0 0 .5575 99.885 -67.075)"/><path d="M330 591s24.79-21.361 70.5-18c45.71 3.361 70.5 48 70.5 48" style="fill:none;stroke:#4f1900;stroke-width:10px" transform="matrix(.74227 0 0 .5575 145.069 -67.075)"/><path d="M357 635s15.285 13.952 43.5 15 46.5-10 46.5-10" style="fill:none;stroke:#4f1900;stroke-width:4px" transform="matrix(.74227 0 0 .5575 145.069 -67.075)"/><path d="M1471.44 453.5s46.73-13.32 79.56-14.263c43-1.237 76 29.618 76 29.618" style="fill:none;stroke:#4f1900;stroke-width:4px" transform="matrix(.74227 0 0 .5575 -712.577 0)"/><path d="m330 592-11-10s3.443-.572 27.097-6.229c31.935-7.637 62.903-3.13 62.903-3.13s-33.573-4.198-50.323 3.13C342.677 582.771 330 592 330 592Z" style="fill:#4f1900;stroke:#4f1900;stroke-width:3.84px" transform="matrix(.767 0 0 .58398 134.95 -82.195)"/><path d="M357 539s57.122-8.977 70-6.864c9.785 1.606 48 15.682 48 15.682s2.99 13.665-3 12.682c-5.922-.972-29.942-16.244-55-20.5-29.431-4.998-60-1-60-1Z" style="fill:#4f1900;stroke:#4f1900;stroke-width:4px" transform="matrix(.74227 0 0 .5575 145.069 -67.075)"/><path d="M279 557.5s15.676-18.177 54-23.5c72-10 101 23.5 101 23.5" style="fill:none;stroke:#4f1900;stroke-width:10px" transform="matrix(-.74227 0 0 .5575 908.677 -67.075)"/><path d="M404.5 572.641c16.103 2.404 31.228 17.418 29.5 38.715-2 24.644-13.219 38.763-29.5 38.714C381 650 370.319 636.595 366 615c-1-5-6-49 38.5-42.359Z" style="fill:url(#c);stroke:#000;stroke-width:3.72px" transform="matrix(-.8522 0 0 .5575 979.375 -67.075)"/><circle cx="389.865" cy="596.865" r="9.865" style="fill:#fff" transform="matrix(.8522 0 0 .5575 290.74 -67.1)"/><circle cx="403.888" cy="615.843" r="9.157" transform="matrix(.8522 0 0 .5575 294.015 -69.305)"/><path d="M379 635s-5.254-10.683 5.865-10c11.119.683 16.663 7.933 24.023 1 7.359-6.933 5.239-13.495 14.112-14.985 12-2.015 11.613 31.797-8 36.52C384 655 379 635 379 635Z" style="fill:#fff;fill-opacity:.42" transform="matrix(.8522 0 0 .5575 295.002 -67.075)"/><path d="M357 635s15.285 13.952 43.5 15 46.5-10 46.5-10" style="fill:none;stroke:#4f1900;stroke-width:4px" transform="matrix(-.74227 0 0 .5575 936.14 -67.075)"/><path d="M330 591s24.79-21.361 70.5-18c45.71 3.361 70.5 48 70.5 48" style="fill:none;stroke:#4f1900;stroke-width:10px" transform="matrix(-.74227 0 0 .5575 936.14 -67.075)"/><path d="M1471.44 453.5s46.73-13.32 79.56-14.263c43-1.237 76 29.618 76 29.618" style="fill:none;stroke:#4f1900;stroke-width:4px" transform="matrix(-.74227 0 0 .5575 1792.577 .263)"/><path d="m330 592-11-10s3.443-.572 27.097-6.229c31.935-7.637 62.903-3.13 62.903-3.13s-33.573-4.198-50.323 3.13C342.677 582.771 330 592 330 592Z" style="fill:#4f1900;stroke:#4f1900;stroke-width:3.84px" transform="matrix(-.767 0 0 .58398 946.26 -82.195)"/><path d="M357 539s57.122-8.977 70-6.864c9.785 1.606 48 15.682 48 15.682s2.99 13.665-3 12.682c-5.922-.972-29.942-16.244-55-20.5-29.431-4.998-60-1-60-1Z" style="fill:#4f1900;stroke:#4f1900;stroke-width:4px" transform="matrix(-.74227 0 0 .5575 936.14 -67.075)"/><path d="M546.17 356.969s-151.108-26.356-225.12 134.145c-41.473 89.938-65.4 196.968-43.173 303.37 22.226 106.401 70.928 192.401 70.928 192.401s-22.984-1.705-72.984-81.705c-10.808-17.293-41.912-141.224-41.912-141.224s19.93 149.759 40.884 192.619c22 45.005 102.794 127.825 102.794 127.825s-111.013-57.31-146.996-134.414c-46.98-100.672-65.788-272.788-30.838-401.934 35.668-131.798 55.969-232.439 144.94-312.981 92.403-83.649 201.477-46.782 201.477-46.782s167.554-28.992 244.65 115.967c77.903 146.477 105.553 434.381 92.515 528.444-14 101-46.707 142.324-46.707 142.324s17.672-62.613 12.785-125.192c-4.888-62.58-18.952-89.612-18.952-89.612S846.329 926.265 787 1000c-37.424 46.51-63 49-63 49s39.066-52.891 54.485-125.371c7.638-35.902 26.88-171.893 7.517-297.366-14.713-95.342-58.632-169.621-101.124-203.403-88.564-70.412-138.708-65.891-138.708-65.891Z" style="fill:#694a08;stroke:#4f1900;stroke-width:4.58px" transform="matrix(.7221 0 0 .42305 151.183 -43.975)"/><path d="M1680.35 98.458s-105.81-24.377-151.77 29.477c-45.96 53.854-98.46 155.998-112.38 188.349-13.91 32.35-35.33 166.302-31.48 208.71 4.15 45.592 27.66 118.946 27.66 118.946s-20.58-87.474-4.13-183.416c16.44-95.942 88.54-244.149 122.22-273.422 33.69-29.273 140.05-20.126 140.05-20.126l-1.54-26.726-51.83-18.853 52.19-4.402 11.01-18.537Z" style="fill:#f6eab4;fill-opacity:.77" transform="matrix(.74227 0 0 .5575 -712.578 0)"/><path d="m1680.35 98.458-54.36-5.337 55.44-14.243s-40.78-13.771-90.09-3.986c-39.63 7.861-87.54 37.689-103.27 50.916-72.31 60.819-105.63 181.532-119.54 213.882-13.91 32.35-27.27 187.141-6.21 227.793 21.05 40.652 50.06 76.457 50.06 76.457s-56.11-104.644-39.66-200.586c16.44-95.942 79.98-266.9 118.12-290.074 86.34-52.461 180.19-16.539 180.19-16.539l-23.4-23.817 32.72-14.466Z" style="fill:#f6eab4;fill-opacity:.77" transform="matrix(.74227 0 0 .5575 -712.578 0)"/><path d="M1678.44 145.964s-90.29-28.777-148.58 11.403c-52.19 35.974-116.81 115.792-130.73 148.142-13.91 32.35-18.93 123.181-12.5 190.156 4.38 45.571 55.32 160.839 55.32 160.839s-41.16-144.225-36.58-235.944c5.78-115.684 81.67-189.43 115.35-218.703 33.69-29.273 156.07-38.909 156.07-38.909l1.65-16.984Z" style="fill:#f6eab4;fill-opacity:.77" transform="matrix(-.74227 0 0 .5575 1782.809 1.813)"/><path d="M1678.44 145.964s-86.62-14.52-148.58 11.403c-58.48 24.466-120.16 114.551-130.73 148.142-10.79 34.32-20.99 154.585-9.82 220.528 6.81 40.169 45.44 132.85 45.44 132.85s-44.38-164.27-29.45-270.578c16.11-114.704 81.74-157.179 115.42-186.452 33.69-29.273 156.07-38.909 156.07-38.909l1.65-16.984Z" style="fill:#f6eab4;fill-opacity:.77" transform="matrix(-.72946 .1031 .13728 .54788 1724.452 -185.994)"/><path d="M426.198 328.521s59.652 60.747 134.997 119.004c76.808 59.389 109.386 39.11 109.386 39.11-35.111-13.523-49.915-61.931-74.872-92.897 0 0 41.951 84.394 123.458 101.397s91.008 23.968 91.008 23.968-23.915-23.884-45.537-56.276c-55.204-82.701-61.309-133.091-177.947-191.9-99.213-50.024-160.493 57.594-160.493 57.594Z" style="fill:#f6eab4;stroke:#4f1900;stroke-width:5.02px" transform="matrix(-.67485 .23216 .16038 .26298 767.823 -79.387)"/><path d="M395.016 304.588s77.157-34.064 166.58 68.625c75.681 86.908 191.074 180.15 191.074 180.15-35.111-13.522-75.775-125.407-162.944-240.646 0 0 66.549 61.89 131.662 179.806 69.946 126.67 101.453 242.273 101.453 242.273s-42.353-186.629-57.636-231.912c-51.209-151.734-93.426-209.802-180.991-268.591-96.844-65.02-189.198 70.295-189.198 70.295Z" style="fill:#f6eab4;stroke:#4f1900;stroke-width:5.83px" transform="matrix(.58991 .20294 -.1306 .21417 338.98 -39.645)"/><path d="M357.931 117.979s-21 11.371-61 79.6c-25.131 42.867-29 69.651-29 69.651s32.585 4.273 125-8.529C628.931 226.008 741 129.112 741 129.112S557.924 167.581 447 149s-89.069-31.021-89.069-31.021Z" style="fill:url(#d)" transform="matrix(.74227 0 0 .3922 136.628 9.478)"/><path d="M182.547 388.816S177.452 87.265 540 87.265s331.011 298.253 331.011 298.253l-10.011.298S835.018 131.88 540 131.88C244.982 131.88 189 388 189 388l-6.453.816Z" style="fill:#fff;stroke:#000;stroke-width:2.67px" transform="matrix(.74227 0 0 .5575 144.742 1.673)"/><path d="M1677.92 417.836c52.96-.126 54.37-13.524 133.93-17.071 79.56-3.546 101 38.923 101 38.923s-4.43 60.061-45 92.148c-40.57 32.086-100.4 28.138-139 10-38.61-18.139-16.67-102.013-50.93-102.148-34.25.135-12.32 84.009-50.92 102.148-38.6 18.138-98.43 22.086-139-10-40.57-32.087-45-92.148-45-92.148s21.44-42.469 101-38.923c79.56 3.547 80.97 16.945 133.92 17.071ZM1645 428c-5.4-5.434-57.41-17.23-99-19-47-2-86.13 16.806-86 30 .13 13.194 11.05 100.437 78 107 51 5 76.5-3.657 93.19-16 10.81-8 23.75-92 13.81-102Zm65.85.21c-9.94 10 3 94 13.81 102 16.69 12.344 42.19 21 93.19 16 66.94-6.563 77.86-93.806 78-107 .13-13.193-39-32-86-30-41.59 1.77-93.6 13.567-99 19Z" style="fill:#fff;fill-opacity:.45;stroke:#000;stroke-width:1.85px" transform="matrix(.81936 0 0 .58943 -835.703 -6.407)"/><path d="M0 1523v116h1455v-119L0 1523Z" style="fill:#444;stroke:#000;stroke-width:2.67px" transform="matrix(.74227 0 0 .5575 -1.485 114.288)"/><path style="fill:#444;stroke:#000;stroke-width:2.44px" d="M134 1550h296v23H134z" transform="matrix(.87517 0 0 .5575 -76.449 85.298)"/><path style="fill:#444;stroke:#000;stroke-width:2.45px" d="M134 1550h296v23H134z" transform="matrix(.87016 0 0 .5575 667.976 84.74)"/><path style="fill:#444;stroke:#000;stroke-width:2.78px" d="M72 1692h62v1847H72z" transform="matrix(.74227 0 0 .51132 -1.485 162.88)"/><path style="fill:#444;stroke:#000;stroke-width:2.78px" d="M72 1692h62v1847H72z" transform="matrix(.74227 0 0 .51132 930.062 162.88)"/><path d="m180 1685-16 17s16 9 37-9c14.92-12.79 46-25.67 46-25.67l-45-4.33-22 22Z" style="fill:#ffe9ee;stroke:#000;stroke-width:2.67px" transform="matrix(.74227 0 0 .5575 3.34 -1.254)"/><path d="m180 1685-16 17s16 9 37-9c14.92-12.79 53.966-37.47 53.966-37.47s-41.733 5.25-52.966 7.47c-4.465.88-22 22-22 22Z" style="fill:#ffe9ee;stroke:#000;stroke-width:1.96px" transform="matrix(1.18992 .02095 -.01842 .59006 -79.91 -66.782)"/><path d="m180 1685-16 17s16 9 37-9c14.92-12.79 46-25.67 46-25.67l-45-4.33-22 22Z" style="fill:#ffe9ee;stroke:#000;stroke-width:2.78px" transform="matrix(.70203 0 0 .54399 40.744 19.13)"/><path d="m138 1550 72-48 89-23s58.252 2.69 75 20c7.852 8.12 14.056 23.84 21 34 7.868 11.51 16 17 16 17s-14.598.96-20.5 0c-24.5-4-28.943-19-54.5-24.88-19.759-4.54-40.477-6.06-49-5-16 2-62 2.88-62 2.88s-34.5 22.5-49 27c-12.097 3.75-38 0-38 0Z" style="fill:#ffe9ee;stroke:#000;stroke-width:2.67px" transform="matrix(.74227 0 0 .5575 -17.814 84.74)"/><path d="m134 430 36 99s-14-14-36 11c-26.505 30.119-11 48 19 34 37.923-17.697 34-34 34-34l-53-152s38.625 14.394 36 32-6 20-1 31.094c3.641 8.078 18 7.906 18 7.906s-8.75-4.713-7-20c1.75-15.287 26-36-46-71-16.214-7.882-31-30-31-30l31 92Z" style="stroke:#000;stroke-width:4.41px" transform="matrix(.46912 .06252 -.07322 .30993 112.393 262.463)"/><path d="M217.515 305.243 103 338l31 92 36 99s-14-14-36 11c-26.505 30.119-11 48 19 34 37.923-17.697 34-34 34-34l-66.315-188.555 101.023-30.363.341 1.493 24.794 73.583 36 99s-14-14-36 11c-26.505 30.119-11 48 19 34 37.922-17.697 34-34 34-34l-69.405-205.972-14.595 3.972" style="stroke:#000;stroke-width:4.41px" transform="matrix(.46912 .06252 -.07322 .30993 175.032 283.645)"/><path d="M43.064 445.978c0-.064.298-.576 10.393.006 10.748.62 31.176 11.15 29.691 27.317-1.833 19.971-28.206 23.973-28.206 23.973s9.65 26.76.742 35.123c-3.335 3.13-7.423 6.132-17.072 5.575-18.795-1.086-21.754-13.967-20.041-21.185 1.713-7.219 8.239-9.157 14.103-9.478 5.864-.321 14.558 4.773 11.134 11.15-3.424 6.377-14.846 2.788-14.846 2.788s-3.706.676-2.226 6.132c1.48 5.456 8.904 7.347 13.36 7.805 4.457.458 11.877-1.672 14.846-7.247 3.882-7.29-2.97-30.663-2.97-30.663S1.5 503.407.015 463.824c-.808-21.563 32.66-42.928 32.66-42.928s-6.72-26.686-7.338-32.335c-.616-5.649 3.004-25.075 13.276-25.645 10.271-.57 24.785 14.587 24.495 34.565-.29 19.978-23.01 34.565-23.01 34.565l2.967 13.932Zm-5.194.563-2.227-11.15s-13.365 6.04-21.526 20.07c-8.16 14.03-3.575 23.675-.742 26.76C28.22 498.39 51.973 493.93 51.973 493.93l-11.877-37.91s-6.377.405-10.391 6.132c-7.423 10.593 1.484 16.168 1.484 16.168s-14.985-5.707-9.65-18.398c4.454-10.592 16.33-13.38 16.33-13.38Zm2.226-78.05c-2.652.421-4.453 3.903-7.422 13.38-3.773 12.045 5.196 34.565 5.196 34.565s14.557-6.458 13.36-25.645c-1.196-19.186-9.074-22.627-11.134-22.3Zm4.454 86.413 9.65 38.468s16.255-2.755 17.814-12.823c3.711-23.973-27.464-25.645-27.464-25.645Z"/><path d="m134 430 36 99s-14-14-36 11c-26.505 30.119-11 48 19 34 37.923-17.697 34-34 34-34l-53-152s38.625 14.394 36 32-6 20-1 31.094c3.641 8.078 18 7.906 18 7.906s-8.75-4.713-7-20c1.75-15.287 26-36-46-71-16.214-7.882-31-30-31-30l31 92Z" style="stroke:#000;stroke-width:4.68px" transform="matrix(.4384 .05403 -.07779 .3045 850.198 322.877)"/><ellipse cx="1325.5" cy="830.007" rx="38.5" ry="21.993" style="fill:none;stroke:#000;stroke-width:10.6px" transform="matrix(.44209 -.04748 .07847 .35248 297.367 228.57)"/><path d="m1274 837 85-17.735" style="fill:none;stroke:#000;stroke-width:8.72px" transform="matrix(.55804 .00693 .00998 .41936 204.339 102.05)"/></g></g><defs><radialGradient id="b" cx="0" cy="0" r="1" gradientUnits="userSpaceOnUse" gradientTransform="matrix(68.809 0 0 78.1099 365.326 611.015)"><stop offset="0" style="stop-color:#918b8b;stop-opacity:1"/><stop offset="1" style="stop-color:#4f1900;stop-opacity:1"/></radialGradient><radialGradient id="c" cx="0" cy="0" r="1" gradientUnits="userSpaceOnUse" gradientTransform="matrix(68.809 0 0 78.1099 365.326 611.015)"><stop offset="0" style="stop-color:#918b8b;stop-opacity:1"/><stop offset="1" style="stop-color:#4f1900;stop-opacity:1"/></radialGradient><linearGradient id="d" x1="0" y1="0" x2="1" y2="0" gradientUnits="userSpaceOnUse" gradientTransform="matrix(491.233 0 0 145.538 249.767 172.269)"><stop offset="0" style="stop-color:white;stop-opacity:.62"/><stop offset="1" style="stop-color:white;stop-opacity:.17"/></linearGradient></defs></svg>