<svg viewBox="0 0 1080 3539" xmlns="http://www.w3.org/2000/svg" xml:space="preserve" style="fill-rule:evenodd;clip-rule:evenodd;stroke-linecap:round;stroke-linejoin:round;stroke-miterlimit:1.5"><path style="fill:none" d="M0 0h1080v1973H0z" transform="scale(1 1.79372)"/><path d="M307 245.038s-34.654 368.869-9.235 484.302c36.547 165.966 235.548 290.03 235.548 290.03s225.303-145.877 250.444-292.488C802.186 619.41 741 245.038 741 245.038S675.188 99.5 533.313 99.5 307 245.038 307 245.038Z" style="fill:#8b614a;stroke:#000;stroke-width:3.88px" transform="matrix(1.21183 0 0 .8137 -110.776 18.537)"/><path d="m491 3155-7.741 56.92S495.143 3195.56 495 3185c-.143-10.56-4-30-4-30Z" style="fill:#3f3f3f;stroke:#000;stroke-width:4px"/><path d="M491 3196c-3.852-24.4 0-41 0-41s-13.776-34.96-73-25c-59.224 9.96-65 22-65 22s-17.339 44.51-62 71c-16.077 9.54-53.182 33-53.182 33s-31.672 36.63-11.818 62c20 25.56 88.93 35.46 110 23 71-42 140-110 155-145Z" style="fill:#ffe9ee;stroke:#000;stroke-width:4px"/><path d="M491 3155s6.788 12.39 0 41c-7.792 32.84-112.032 128.51-156 145-48 18-83-22-97.182-60-10.815-28.98 0-34 0-34s-16.291 2.98-48.818 28c-13 10-47.863 38.37-68 47.33-15 6.67-19 69.67 31 105.67 34.977 25.18 118.453 63.24 205-27 26.565-27.7 44-62 65-79.89 51.581-43.94 93-27.11 87-102.11-2.473-30.92-16.816-56.49-18-64Z" style="fill:#fff;stroke:#000;stroke-width:4px"/><path d="M1730 3257s-3.13 32.98 7 53c10.13 20.02 36.11 49.39 43 86 6.89 36.61 28.27 105.32 92 124 58 17 103.31-3.5 124-21.11 41-34.89 28.25-74.85 28.25-74.85" style="fill:none;stroke:#000;stroke-width:4px" transform="translate(-1155)"/><path d="m237.818 3247 8.182 4-12.249 11s-1.295-4.51 0-9.28c1.295-4.78 4.067-5.72 4.067-5.72Z" style="fill:#383838;stroke:#000;stroke-width:4px"/><path d="M1327 3427s-1.57-15.51 13-15c14.57.51 18 21 18 21s-12.02-.33-17.19-1.33c-4.6-.89-13.81-4.67-13.81-4.67Z" style="fill:none;stroke:#000;stroke-width:4.87px" transform="matrix(.84566 .16003 -.14496 .766 -454.669 589.64)"/><path d="M1327 3427s-1.57-15.51 13-15c14.57.51 18 21 18 21s-12.02-.33-17.19-1.33c-4.6-.89-13.81-4.67-13.81-4.67Z" style="fill:none;stroke:#000;stroke-width:4.58px" transform="matrix(.83513 -.00788 .00858 .90965 -927.572 333.978)"/><path d="M1327 3427s-1.57-15.51 13-15c14.57.51 18 21 18 21s-12.02-.33-17.19-1.33c-4.6-.89-13.81-4.67-13.81-4.67Z" style="fill:none;stroke:#000;stroke-width:4px" transform="rotate(-24.026 829.79 5961.01)"/><path d="M1327 3427s-1.57-15.51 13-15c14.57.51 18 21 18 21s-12.02-.33-17.19-1.33c-4.6-.89-13.81-4.67-13.81-4.67Z" style="fill:none;stroke:#000;stroke-width:4px" transform="rotate(-47.18 815.358 4608.235)"/><path d="M1266.02 3359s1.98 108 111.98 121c100.7 11.9 150.15-66.24 169-87 18.85-20.76 43.52-45.23 67-55 23.48-9.77 44.93-24.98 50.58-37 5.65-12.02 0-55 0-55" style="fill:none;stroke:#000;stroke-width:4px" transform="matrix(1 0 0 1 -1155 0)"/><path d="M1601 3270c-10.13-.57-19.56-11.62-7-32.71 12.56-21.09 56-43.29 52-74.29-1.61-12.46 11.27 7.6 13 22 3 25-36.88 86.18-58 85Z" style="fill:#fff;stroke:#000;stroke-width:4px" transform="matrix(1 0 0 1 -1155 0)"/><path d="m491 3155-7.741 56.92S495.143 3195.56 495 3185c-.143-10.56-4-30-4-30Z" style="fill:#3f3f3f;stroke:#000;stroke-width:4px" transform="matrix(-.72308 -.04675 -.07836 1.21187 1197.14 -657.16)"/><path d="m234.861 3251.36 11.139 2.61-21.828 20.04s-2.431-11.78-1.136-16.56c1.295-4.77 11.825-6.09 11.825-6.09Z" style="fill:#383838;stroke:#000;stroke-width:4.38px" transform="matrix(-.59206 -.03828 -.07406 1.14535 1170.035 -440.458)"/><path d="M491 3196c-3.852-24.4 0-41 0-41s-12.105-19.74-73-25c-68.272-5.9-105.217 12.21-105.217 12.21s5.7 48.27-38.961 74.76c-16.076 9.54-54.364 37.53-54.364 37.53s-92.557 26.14-19.952 63.19C226.799 3331.62 305.7 3353.84 336 3341c75.958-32.18 140-110 155-145Z" style="fill:#ffe9ee;stroke:#000;stroke-width:4px" transform="matrix(-.72308 -.04675 -.07836 1.21187 1197.14 -657.16)"/><path d="M491 3155s6.788 12.39 0 41c-7.792 32.84-109.715 113.25-151.905 131.31-30.77 13.18-67.632 8.42-109.829-4.58-88.329-27.2-28.611-67.06-28.611-67.06s-8.258 4.94-33.1 27.18c-11.766 10.53-31.071 31.07-41.403 46.93-5.027 7.72-18.061 26.37-34.368 36.47-13.81 8.55 10.074 47.42 58.318 61.66 40.347 11.91 159.603 23.75 220.232-26.58 47.776-39.65 43.745-62.2 63.58-84.72 44.784-50.85 78.701-30.67 75.086-97.61-1.674-30.99-16.816-56.49-18-64Z" style="fill:#fff;stroke:#000;stroke-width:4px" transform="matrix(-.72308 -.04675 -.07836 1.21187 1197.14 -657.16)"/><path d="M1327 3427s-1.57-15.51 13-15c14.57.51 18 21 18 21s-12.02-.33-17.19-1.33c-4.6-.89-13.81-4.67-13.81-4.67Z" style="fill:none;stroke:#000;stroke-width:5.06px" transform="matrix(-.72686 -.26577 -.29607 .71829 2742.811 1377.3)"/><path d="M1327 3427s-1.57-15.51 13-15c14.57.51 18 21 18 21s-12.02-.33-17.19-1.33c-4.6-.89-13.81-4.67-13.81-4.67Z" style="fill:none;stroke:#000;stroke-width:4.81px" transform="matrix(-.62985 -.40314 -.4888 .7672 3237.388 1385.03)"/><path d="M1327 3427s-1.57-15.51 13-15c14.57.51 18 21 18 21s-12.02-.33-17.19-1.33c-4.6-.89-13.81-4.67-13.81-4.67Z" style="fill:none;stroke:#000;stroke-width:4.4px" transform="matrix(-.47755 -.77882 -.79336 .58114 4045.322 2503.922)"/><path d="M1327 3427s-1.57-15.51 13-15c14.57.51 18 21 18 21s-12.02-.33-17.19-1.33c-4.6-.89-13.81-4.67-13.81-4.67Z" style="fill:none;stroke:#000;stroke-width:4.47px" transform="matrix(-.12713 -.9446 -.91723 .22809 3978.49 3900.79)"/><path d="M1601 3270c-10.13-.57-19.56-11.62-7-32.71 12.56-21.09 56-43.29 52-74.29-1.61-12.46 11.27 7.6 13 22 3 25-36.88 86.18-58 85Z" style="fill:#fff;stroke:#000;stroke-width:4px" transform="matrix(-.96544 -.26065 -.26065 .96544 3011.998 533.744)"/><path d="M874.417 1686s-180.307 44-299.827 44c-162.074 0-281.59-44-281.59-44s-61.342 54.31-44.138 358S327 2531 327 2531s-27.538 126.4-8 271 51.152 344 51.152 344 21.083 50.37 89.848 50c68.765-.37 80-56 80-56s7.837-268.91 5.608-340c-2.23-71.09-9.03-270-9.03-270s46.565-220.58 47.655-285c1.09-64.42.484-229 .484-229l.336 61s-.606 103.58.484 168c1.09 64.41 47.655 285 47.655 285s-6.8 198.91-9.03 270c-2.229 71.09 5.608 340 5.608 340s11.235 55.62 80 56c68.764.37 89.848-50 89.848-50s31.613-199.4 51.152-344c19.538-144.6-8-271-8-271s60.934-183.31 78.138-487c17.204-303.69-44.138-358-44.138-358" style="fill:#3d3d3d;stroke:#000;stroke-width:4.22px" transform="matrix(.89166 0 0 1 18.633 0)"/><path d="M125 1150s-12.023 200.32 0 285 112.818 251 112.818 251L291 1645s-17.136-102-26-139c-6.705-27.99-27.182-83-27.182-83s13.985-72.33 18.182-112c4.156-39.28 7-126 7-126l-138-35Z" style="fill:#ffe9ee;stroke:#000;stroke-width:4px"/><path d="M125 1150s-12.023 200.32 0 285 112.818 251 112.818 251L291 1645s-17.136-102-26-139c-6.705-27.99-27.182-83-27.182-83s13.985-72.33 18.182-112c4.156-39.28 7-126 7-126l-138-35Z" style="fill:#ffe9ee;stroke:#000;stroke-width:4px" transform="matrix(-1 0 0 1 1068.28 0)"/><path d="M533.313 1789c81.015 0 301.313-65 301.313-65s7-21-37-136c-54.573-142.63-11-430-11-430l8 87s24.02 8.25 82.687-9 84.313-53 84.313-53v1s-21.408-167.5-84.313-227c-36.279-34.317-102.488-55.674-167.687-74-90.591-25.463-176.313-108-176.313-108S447.591 857.537 357 883c-65.198 18.326-131.408 39.683-167.687 74C126.409 1016.5 105 1184 105 1184v-1s25.646 35.75 84.313 53 82.687 9 82.687 9l8-87s43.573 287.37-11 430c-44 115-37 136-37 136s220.298 65 301.313 65" style="fill:#fff;stroke:#000;stroke-width:4px"/><path d="M438 727h200s-14.342 132.833 7 147c45.83 30.422-29.403 145.51-103.396 145.51S379.918 906.3 427 875c36.585-24.322 11-148 11-148Z" style="fill:#ffe9ee;stroke:#000;stroke-width:4px"/><path d="M542 210c169.99 0 308 120.71 308 312.5 0 109.814-54.413 242.799-125 306.5-52.694 47.553-110.342 95-183 95-35 0-122.429-47.873-175-95-71.038-63.681-133-196.278-133-306.5C234 330.71 372.01 210 542 210Z" style="fill:#ffe9ee;stroke:#000;stroke-width:4.16px" transform="matrix(.91964 0 0 1 34.867 -110.5)"/><path d="M482.873 741h114.254S576.816 816 540 816s-57.127-75-57.127-75Z" style="fill:#fff;stroke:#000;stroke-width:4px" transform="translate(-6.687 -79)"/><path d="M497.887 570.689s10.164 27.602 1.794 65.48c-3.353 15.173-10.302 27.432-8.968 36.266C492.046 681.268 515 690.97 515 690.97" style="fill:none;stroke:#000;stroke-width:2.72px" transform="matrix(1.67258 0 0 1.24084 -334.758 -237.383)"/><path d="M279 557.5s15.676-18.177 54-23.5c72-10 101 23.5 101 23.5" style="fill:none;stroke:#4f1900;stroke-width:10px" transform="translate(37.44 -120.314)"/><path d="M404.5 572.641c16.103 2.404 31.228 17.418 29.5 38.715-2 24.644-13.219 38.763-29.5 38.714C381 650 370.319 636.595 366 615c-1-5-6-49 38.5-42.359Z" style="fill:url(#a);stroke:#000;stroke-width:3.72px" transform="matrix(1.14811 0 0 1 -58.433 -120.314)"/><circle cx="389.865" cy="596.865" r="9.865" style="fill:#fff" transform="matrix(1.14811 0 0 1 -64.173 -120.36)"/><circle cx="403.888" cy="615.843" r="9.157" transform="matrix(1.14811 0 0 1 -63.206 -124.314)"/><path d="M379 635s-5.254-10.683 5.865-10c11.119.683 16.663 7.933 24.023 1 7.359-6.933 5.239-13.495 14.112-14.985 12-2.015 11.613 31.797-8 36.52C384 655 379 635 379 635Z" style="fill:#fff;fill-opacity:.4" transform="matrix(1.14811 0 0 1 -60.433 -120.314)"/><path d="M330 591s24.79-21.361 70.5-18c45.71 3.361 70.5 48 70.5 48" style="fill:none;stroke:#4f1900;stroke-width:10px" transform="translate(.44 -120.314)"/><path d="M357 635s15.285 13.952 43.5 15 46.5-10 46.5-10" style="fill:none;stroke:#4f1900;stroke-width:4px" transform="translate(.44 -120.314)"/><path d="M1471.44 453.5s46.73-13.32 79.56-14.263c43-1.237 76 29.618 76 29.618" style="fill:none;stroke:#4f1900;stroke-width:4px" transform="translate(-1155)"/><path d="m330 592-11-10s3.443-.572 27.097-6.229c31.935-7.637 62.903-3.13 62.903-3.13s-33.573-4.198-50.323 3.13C342.677 582.771 330 592 330 592Z" style="fill:#4f1900;stroke:#4f1900;stroke-width:3.84px" transform="matrix(1.03333 0 0 1.0475 -13.193 -147.435)"/><path d="M357 539s57.122-8.977 70-6.864c9.785 1.606 48 15.682 48 15.682s2.99 13.665-3 12.682c-5.922-.972-29.942-16.244-55-20.5-29.431-4.998-60-1-60-1Z" style="fill:#4f1900;stroke:#4f1900;stroke-width:4px" transform="translate(.44 -120.314)"/><path d="M279 557.5s15.676-18.177 54-23.5c72-10 101 23.5 101 23.5" style="fill:none;stroke:#4f1900;stroke-width:10px" transform="matrix(-1 0 0 1 1029.19 -120.314)"/><path d="M404.5 572.641c16.103 2.404 31.228 17.418 29.5 38.715-2 24.644-13.219 38.763-29.5 38.714C381 650 370.319 636.595 366 615c-1-5-6-49 38.5-42.359Z" style="fill:url(#b);stroke:#000;stroke-width:3.72px" transform="matrix(-1.14811 0 0 1 1124.437 -120.314)"/><circle cx="389.865" cy="596.865" r="9.865" style="fill:#fff" transform="matrix(1.14811 0 0 1 196.692 -120.36)"/><circle cx="403.888" cy="615.843" r="9.157" transform="matrix(1.14811 0 0 1 201.104 -124.314)"/><path d="M379 635s-5.254-10.683 5.865-10c11.119.683 16.663 7.933 24.023 1 7.359-6.933 5.239-13.495 14.112-14.985 12-2.015 11.613 31.797-8 36.52C384 655 379 635 379 635Z" style="fill:#fff;fill-opacity:.42" transform="matrix(1.14811 0 0 1 202.433 -120.314)"/><path d="M357 635s15.285 13.952 43.5 15 46.5-10 46.5-10" style="fill:none;stroke:#4f1900;stroke-width:4px" transform="matrix(-1 0 0 1 1066.19 -120.314)"/><path d="M330 591s24.79-21.361 70.5-18c45.71 3.361 70.5 48 70.5 48" style="fill:none;stroke:#4f1900;stroke-width:10px" transform="matrix(-1 0 0 1 1066.19 -120.314)"/><path d="M1471.44 453.5s46.73-13.32 79.56-14.263c43-1.237 76 29.618 76 29.618" style="fill:none;stroke:#4f1900;stroke-width:4px" transform="matrix(-1 0 0 1 2220 .472)"/><path d="m330 592-11-10s3.443-.572 27.097-6.229c31.935-7.637 62.903-3.13 62.903-3.13s-33.573-4.198-50.323 3.13C342.677 582.771 330 592 330 592Z" style="fill:#4f1900;stroke:#4f1900;stroke-width:3.84px" transform="matrix(-1.03333 0 0 1.0475 1079.823 -147.435)"/><path d="M357 539s57.122-8.977 70-6.864c9.785 1.606 48 15.682 48 15.682s2.99 13.665-3 12.682c-5.922-.972-29.942-16.244-55-20.5-29.431-4.998-60-1-60-1Z" style="fill:#4f1900;stroke:#4f1900;stroke-width:4px" transform="matrix(-1 0 0 1 1066.19 -120.314)"/><path d="M1639 46.39s117.87-92.529 228 0S1934 213 1934 213L1639 46.39Z" style="fill:#f6eab4;stroke:#4f1900;stroke-width:4px" transform="rotate(-6.214 1273.207 11342.712)"/><path d="M546.17 356.969s-151.108-26.356-225.12 134.145c-41.473 89.938-65.4 196.968-43.173 303.37 22.226 106.401 70.928 192.401 70.928 192.401s-22.984-1.705-72.984-81.705c-10.808-17.293-41.912-141.224-41.912-141.224s19.93 149.759 40.884 192.619c22 45.005 102.794 127.825 102.794 127.825s-111.013-57.31-146.996-134.414c-46.98-100.672-69.9-274.106-34.95-403.252 35.668-131.797 60.081-231.121 149.052-311.663 92.403-83.649 201.477-46.782 201.477-46.782s167.554-28.992 244.65 115.967c77.903 146.477 105.553 434.381 92.515 528.444-14 101-46.707 142.324-46.707 142.324s17.672-62.613 12.785-125.192c-4.888-62.58-18.952-89.612-18.952-89.612S846.329 926.265 787 1000c-37.424 46.51-63 49-63 49s39.066-52.891 54.485-125.371c7.638-35.902 26.88-171.893 7.517-297.366-14.713-95.342-58.632-169.621-101.124-203.403-88.564-70.412-138.708-65.891-138.708-65.891Z" style="fill:#694a08;stroke:#4f1900;stroke-width:4.58px" transform="matrix(.97282 0 0 .75883 8.677 -78.88)"/><path d="M1680.35 98.458s-105.81-24.377-151.77 29.477c-45.96 53.854-98.46 155.998-112.38 188.349-13.91 32.35-35.33 166.302-31.48 208.71 4.15 45.592 27.66 118.946 27.66 118.946s-20.58-87.474-4.13-183.416c16.44-95.942 88.54-244.149 122.22-273.422 33.69-29.273 140.05-20.126 140.05-20.126l-1.54-26.726-51.83-18.853 52.19-4.402 11.01-18.537Z" style="fill:#f6eab4;fill-opacity:.77" transform="translate(-1155)"/><path d="m1680.35 98.458-54.36-5.337 55.44-14.243s-40.78-13.771-90.09-3.986c-39.63 7.861-87.54 37.689-103.27 50.916-72.31 60.819-105.63 181.532-119.54 213.882-13.91 32.35-27.27 187.141-6.21 227.793 21.05 40.652 50.06 76.457 50.06 76.457s-56.11-104.644-39.66-200.586c16.44-95.942 79.98-266.9 118.12-290.074 86.34-52.461 180.19-16.539 180.19-16.539l-23.4-23.817 32.72-14.466Z" style="fill:#f6eab4;fill-opacity:.77" transform="translate(-1155)"/><path d="M1678.44 145.964s-90.29-28.777-148.58 11.403c-52.19 35.974-116.81 115.792-130.73 148.142-13.91 32.35-18.93 123.181-12.5 190.156 4.38 45.571 55.32 160.839 55.32 160.839s-41.16-144.225-36.58-235.944c5.78-115.684 81.67-189.43 115.35-218.703 33.69-29.273 156.07-38.909 156.07-38.909l1.65-16.984Z" style="fill:#f6eab4;fill-opacity:.77" transform="matrix(-1 0 0 1 2206.84 3.252)"/><path d="M1678.44 145.964s-86.62-14.52-148.58 11.403c-58.48 24.466-120.16 114.551-130.73 148.142-10.79 34.32-20.99 154.585-9.82 220.528 6.81 40.169 45.44 132.85 45.44 132.85s-44.38-164.27-29.45-270.578c16.11-114.704 81.74-157.179 115.42-186.452 33.69-29.273 156.07-38.909 156.07-38.909l1.65-16.984Z" style="fill:#f6eab4;fill-opacity:.77" transform="matrix(-.98275 .18494 .18494 .98275 2128.22 -333.621)"/><path d="M426.198 328.521s59.652 60.747 134.997 119.004c76.808 59.389 109.386 39.11 109.386 39.11-35.111-13.523-49.915-61.931-74.872-92.897 0 0 41.951 84.394 123.458 101.397s91.008 23.968 91.008 23.968-23.915-23.884-45.537-56.276c-55.204-82.701-61.309-133.091-177.947-191.9-99.213-50.024-160.493 57.594-160.493 57.594Z" style="fill:#f6eab4;stroke:#4f1900;stroke-width:5.02px" transform="matrix(-.90917 .41643 .21606 .47172 839.428 -142.398)"/><path d="M395.016 304.588s77.157-34.064 166.58 68.625c75.681 86.908 191.074 180.15 191.074 180.15-35.111-13.522-75.775-125.407-162.944-240.646 0 0 66.549 61.89 131.662 179.806 69.946 126.67 101.453 242.273 101.453 242.273s-42.353-186.629-57.636-231.912c-51.209-151.734-93.426-209.802-180.991-268.591-96.844-65.02-189.198 70.295-189.198 70.295Z" style="fill:#f6eab4;stroke:#4f1900;stroke-width:5.83px" transform="matrix(.79474 .36402 -.17595 .38415 261.681 -71.113)"/><path d="M351 99.5s-27.069 21.322-70.069 97.202c-24.626 43.456-31.227 60.578-31.227 60.578s50.812 14.223 143.227 1.421C628.931 226.008 741 129.112 741 129.112S557.924 167.581 447 149s-96-49.5-96-49.5Z" style="fill:url(#c)" transform="matrix(1 0 0 .70351 -10.93 17)"/><path d="M1677.92 417.836c52.96-.126 54.37-13.524 133.93-17.071 79.56-3.546 101 38.923 101 38.923s-4.43 60.061-45 92.148c-40.57 32.086-100.4 28.138-139 10-38.61-18.139-16.67-102.013-50.93-102.148-34.25.135-12.32 84.009-50.92 102.148-38.6 18.138-98.43 22.086-139-10-40.57-32.087-45-92.148-45-92.148s21.44-42.469 101-38.923c79.56 3.547 80.97 16.945 133.92 17.071ZM1645 428c-5.4-5.434-57.41-17.23-99-19-47-2-86.13 16.806-86 30 .13 13.194 11.05 100.437 78 107 51 5 76.5-3.657 93.19-16 10.81-8 23.75-92 13.81-102Zm65.85.21c-9.94 10 3 94 13.81 102 16.69 12.344 42.19 21 93.19 16 66.94-6.563 77.86-93.806 78-107 .13-13.193-39-32-86-30-41.59 1.77-93.6 13.567-99 19Z" style="fill:#fff;fill-opacity:.45;stroke:#000;stroke-width:1.85px" transform="matrix(1.10386 0 0 1.05727 -1320.88 -11.492)"/><defs><radialGradient id="a" cx="0" cy="0" r="1" gradientUnits="userSpaceOnUse" gradientTransform="matrix(68.809 0 0 78.1099 365.326 611.015)"><stop offset="0" style="stop-color:#918b8b;stop-opacity:1"/><stop offset="1" style="stop-color:#4f1900;stop-opacity:1"/></radialGradient><radialGradient id="b" cx="0" cy="0" r="1" gradientUnits="userSpaceOnUse" gradientTransform="matrix(68.809 0 0 78.1099 365.326 611.015)"><stop offset="0" style="stop-color:#918b8b;stop-opacity:1"/><stop offset="1" style="stop-color:#4f1900;stop-opacity:1"/></radialGradient><linearGradient id="c" x1="0" y1="0" x2="1" y2="0" gradientUnits="userSpaceOnUse" gradientTransform="matrix(491.233 0 0 145.538 249.767 172.269)"><stop offset="0" style="stop-color:white;stop-opacity:.62"/><stop offset="1" style="stop-color:white;stop-opacity:.17"/></linearGradient></defs></svg>