<svg viewBox="0 0 1607 3539" xmlns="http://www.w3.org/2000/svg" xml:space="preserve" style="fill-rule:evenodd;clip-rule:evenodd;stroke-linecap:round;stroke-linejoin:round;stroke-miterlimit:1.5"><path style="fill:none" d="M0 0h1080v1973H0z" transform="scale(1.48796 1.79372)"/><path d="M1266.02 3359s1.98 108 111.98 121c100.7 11.9 150.15-66.24 169-87 18.85-20.76 43.52-45.23 67-55 23.48-9.77 44.93-24.98 50.58-37 5.65-12.02 0-55 0-55" style="fill:#533f32;stroke:#000;stroke-width:4px" transform="matrix(1 0 0 1 -1227.079 0)"/><path d="M491 3155s-106.212-65.15-113-36.54c-7.792 32.83-156.473 131.52-189 156.54-13 10-40.98 29.58-69.98 56.46C106.977 3342.61 102 3392 152 3428c34.977 25.18 118.453 63.24 205-27 26.565-27.7 44-62 65-79.89 51.581-43.94 93-27.11 87-102.11-2.473-30.92-16.816-56.49-18-64Z" style="fill:#6f4f39;stroke:#000;stroke-width:4px" transform="matrix(1 0 0 1 -72.08 0)"/><path d="M1730 3257s-3.13 32.98 7 53c10.13 20.02 36.11 49.39 43 86 6.89 36.61 28.27 105.32 92 124 58 17 103.31-3.5 124-21.11 41-34.89 25.12-77.43 25.12-77.43" style="fill:#533f32;stroke:#000;stroke-width:4px" transform="matrix(1 0 0 1 -1191.08 .002)"/><path d="M491 3155s-170.989-33.71-177.777-5.11c-7.792 32.84-120.826 110.72-145.668 132.96-11.766 10.53-64.651 44.6-75.771 83.4-3.355 11.7 10.074 47.42 58.318 61.66 40.347 11.91 159.603 23.75 220.232-26.58 47.776-39.65 43.745-62.2 63.58-84.72 44.784-50.85 78.701-30.67 75.086-97.61-1.674-30.99-16.816-56.49-18-64Z" style="fill:#6f4f39;stroke:#000;stroke-width:4px" transform="matrix(-.72308 -.04675 -.07836 1.21187 1160.057 -657.16)"/><path d="M311.299 2531s-7.431 102.86 12.107 247.46c19.538 144.59 42.874 380.63 42.874 380.63s14.862 43.28 83.626 42.91c68.765-.37 65.916-47.61 65.916-47.61s10.752-246.88 29.786-354.39c17.8-100.54-5.666-270-5.666-270" style="fill:#ffe9ee;stroke:#000;stroke-width:4.22px" transform="matrix(.89166 0 0 1 -43.448 0)"/><path d="M336.594 3066.2s30.148 15.42 54.406 16.06c66 1.74 91-13.26 91-13.26v33s-69.992 28.69-106 23c-13.804-2.18-36-21-36-21l-3.406-37.8Z" style="fill:#949393;stroke:#000;stroke-width:3.92px" transform="matrix(1.04126 0 0 1 -78.97 -1.544)"/><path d="M663.902 2530s-17.502 209.46-8.543 283.46c8.561 70.7 29.852 340.93 29.852 340.93s-10.561 47.23 58.204 47.61c68.765.37 75.697-47.61 75.697-47.61s29.808-198.34 49.346-342.93c19.539-144.6 13.458-316 13.458-316" style="fill:#ffe9ee;stroke:#000;stroke-width:4.22px" transform="matrix(.89166 0 0 1 -43.448 0)"/><path d="M336.594 3066.2s30.148 15.42 54.406 16.06c66 1.74 91-13.26 91-13.26v33s-69.992 28.69-106 23c-13.804-2.18-36-21-36-21l-3.406-37.8Z" style="fill:#949393;stroke:#000;stroke-width:4.05px" transform="matrix(-.97657 0 0 1 1029.627 8.254)"/><path d="M660 3108c4.194-10.73 35.658 3.67 57 2s44.556-21.26 49-7c4.444 14.26-10.775 80.28-5 108 5 24 13 131 13 131s-100.069-118.4-104-151c-3.931-32.6-17.48-63.86-10-83Z" style="fill:#533f32;stroke:#000;stroke-width:4px" transform="matrix(1 0 0 1 -62.08 -1.544)"/><path d="M609 3185s7.108-23.47 10-42c2.892-18.53-12.99-43.62-7-52.9 3.492-5.41 13.836 10.5 32.165 14.9 20.835 5 48.066 9.66 50.835 15.88 2.158 4.85-6.893 56.66 8.255 88.12 2.759 5.73 22.65 22.76 26.745 28 25 32 50 114 50 114" style="fill:#6f4f39;stroke:#000;stroke-width:4px" transform="matrix(1 0 0 1 -62.08 -1.544)"/><path d="M780 3351s-25.388-58.33-33.719-103.46c-3.127-16.94 4.613-36.65 4.719-44 .388-26.9-11.37-75.63-4.719-84.54 6.651-8.91 19.85-7.08 20.719-16 .869-8.92-5-8.95-5-8.95s11.163-3.8 12 7.95c.837 11.75-15.178 70.53-9 87 6 16 50 81 50 81" style="fill:#6f4f39;stroke:#000;stroke-width:4px" transform="matrix(1 0 0 1 -62.08 -1.544)"/><path d="M659.169 3110.44c-.799-11.49 49.147 3.27 70.489 1.59 21.342-1.67 30.116-24.17 34.561-9.92 4.444 14.26-3.174 73.63 2.601 101.35 5 24 61.056 108.32 61.056 108.32s-99.14-73.8-119.422-99.46c-20.364-25.76-47.927-82.35-49.285-101.88Z" style="fill:#533f32;stroke:#000;stroke-width:4px" transform="matrix(-.99932 -.0368 -.03679 .99933 1152.077 13.374)"/><path d="M603.859 3199.4s11.25-36.91 14.142-55.44c2.891-18.52-12.196-42.13-6.206-51.4 3.492-5.41 14.225 14.05 32.554 18.44 20.835 5 55.469 9.83 58.238 16.05 2.159 4.84-3.47 39.9 8.199 76.29 1.942 6.05 25.181 26.74 30.127 31.19 33.656 30.26 112.099 101.19 112.099 101.19" style="fill:#6f4f39;stroke:#000;stroke-width:4px" transform="matrix(-.99932 -.0368 -.03679 .99933 1152.077 13.374)"/><path d="M853.012 3335.72s-73.748-62.96-82.079-108.09c-3.127-16.94-14.881-26.22-14.775-33.57.388-26.91-16.344-65.14-9.693-74.06 6.651-8.91 19.846-6.86 20.715-15.78.869-8.91.799-13.79.799-13.79s9.513 6.1 10.35 17.85c.838 11.75-13.843 55.83-7.665 72.31 6 16 63.079 53.36 63.079 53.36" style="fill:#6f4f39;stroke:#000;stroke-width:4px" transform="matrix(-.99932 -.0368 -.03679 .99933 1152.077 13.374)"/><path d="m232.46 3305.45 70.708-15.35-5.839-56.35 76.191-10.13-40.851-54.12 77.516-38.9" style="fill:none;stroke:#1b0d00;stroke-width:4px" transform="matrix(1 0 0 1 -62.08 -1.544)"/><path d="m261.683 3322.16.329-55.49 77.149-3.8-18.884-68.79 82.748-10.63-59.332-59.43" style="fill:none;stroke:#1b0d00;stroke-width:4px" transform="matrix(1 0 0 1 -62.08 -1.544)"/><path d="m297.275 3332.81 58.831-27.25L320.89 3257l67.193-26.03-51.988-54.84 78.277-43.85" style="fill:none;stroke:#1b0d00;stroke-width:4px" transform="matrix(-1 0 0 1 1032.337 8.329)"/><path d="m336.609 3342.71-25.587-47.29 59.905-28.13-41.134-46.93 78.232-36.91-68.644-59.43" style="fill:none;stroke:#1b0d00;stroke-width:4px" transform="matrix(-1 0 0 1 1032.337 8.329)"/><path d="m755.036 3133.9-34.936 12.36-39.093-5.07" style="fill:none;stroke:#1b0d00;stroke-width:4px" transform="matrix(1 0 0 1 -62.08 -1.544)"/><path d="M720.484 3145.06s-48.94 41.46-48.671 54.77c.27 13.31 15.876 9.47 22.984 2.06 7.109-7.41 25.687-56.83 25.687-56.83ZM760.142 3208.28c26.277-4.31-39.658-63.22-39.658-63.22s26.525 65.37 39.658 63.22Z" style="fill:none;stroke:#1b0d00;stroke-width:4px" transform="matrix(1 0 0 1 -62.08 -1.544)"/><path d="M720.168 3145.6s.634 31.22-6.781 49.66c-7.414 18.43-15.931 29.57-16.478 42.73" style="fill:none;stroke:#1b0d00;stroke-width:4px" transform="matrix(1 0 0 1 -62.08 -1.544)"/><path d="M720.1 3146.26s17.616 24.91 30.848 43.29c11.265 15.65 12.682 32.89 15.504 37.67" style="fill:none;stroke:#1b0d00;stroke-width:4px" transform="matrix(1 0 0 1 -62.08 -1.544)"/><path d="m755.036 3133.9-34.936 12.36-39.093-5.07" style="fill:none;stroke:#1b0d00;stroke-width:4.33px" transform="matrix(-.88167 .01027 .01124 .96479 913.754 92.13)"/><path d="M720.484 3145.06s-48.94 41.46-48.671 54.77c.27 13.31 15.876 9.47 22.984 2.06 7.109-7.41 25.687-56.83 25.687-56.83ZM760.142 3208.28c26.277-4.31-39.658-63.22-39.658-63.22s26.525 65.37 39.658 63.22Z" style="fill:none;stroke:#1b0d00;stroke-width:4.33px" transform="matrix(-.88167 .01027 .01124 .96479 913.754 92.13)"/><path d="M720.168 3145.6s.634 31.22-6.781 49.66c-7.414 18.43-15.931 29.57-16.478 42.73" style="fill:none;stroke:#1b0d00;stroke-width:4.33px" transform="matrix(-.88167 .01027 .01124 .96479 913.754 92.13)"/><path d="M720.1 3146.26s17.616 24.91 30.848 43.29c11.265 15.65 12.682 32.89 15.504 37.67" style="fill:none;stroke:#1b0d00;stroke-width:4.33px" transform="matrix(-.88167 .01027 .01124 .96479 913.754 92.13)"/><path d="M908.832 2511.46s-1.121-156-3.625-467.46c-2.445-304.07-13.858-358-13.858-358s-197.239 44-316.759 44c-162.074 0-293.927-44-293.927-44s-34.426 54.31-17.222 358c17.205 303.69 9.497 458.46 9.497 458.46s63.098 40.39 114.394 44c54.58 3.83 173.833-21 173.833-21s-6.908-204.24 3.365-268c11.115-69 20.187-304.46 20.187-304.46l.336 124s9.435 115.86 20.973 179.46c12.336 68 34.637 273.54 34.637 273.54s102.024 5.87 160.505 0c58.481-5.87 107.664-18.54 107.664-18.54Z" style="fill:#3d3d3d;stroke:#000;stroke-width:4.22px" transform="matrix(.89166 0 0 1 -43.448 0)"/><path d="M511.307 1252.02s-141.441 18.23-219.248 42.19c-27.507 8.47-71.333 30.47-71.333 30.47s18.887-38.04 23.084-77.7c4.156-39.28 32.034-163.49 32.034-163.49l-174.672 16.08s-16.64 122.1-21.907 204.55c-4.849 75.9 41.665 171.53 82.81 178.46 84.337 14.21 408.837-172.25 408.837-172.25s47.545-43.51 70.077-69.93c0 0 93.167-93.51 88.549-136.1" style="fill:#ffe9ee;stroke:#000;stroke-width:4px" transform="rotate(-45.06 638.905 257.687)"/><path d="M533.313 1823c130.687.46 308.313-73 308.313-73S819 1657.46 816 1588.46c-6.714-154.42 1.626-419.46 1.626-419.46L894 1248s55.428-.58 103-39c52-42 58.34-96 58.34-96S984.905 1023.5 922 964c-36.279-34.317-147.175-68.674-212.374-87-90.591-25.463-176.313-129-176.313-129S447.591 851.537 357 877c-65.198 18.326-166.408 55.683-202.687 90C91.409 1026.5 80 1184 80 1184l-11 55s23.646 35.75 82.313 53 105.603-3.54 105.603-3.54L249 1169s20.278 264.37 17 418.46c-1 47-31 174.54-31 174.54s143 61.46 298.313 61" style="fill:#0f9716;stroke:#000;stroke-width:4px" transform="matrix(1 0 0 1 -62 -6)"/><path d="M415 727h245s-15.342 132.833 6 147c45.83 30.422-10.792 148.51-124.396 148.51S358.918 906.3 406 875c36.585-24.322 9-148 9-148Z" style="fill:#ffe9ee;stroke:#000;stroke-width:4px" transform="matrix(1 0 0 1 -62 0)"/><path d="M209.494 657.24H88.711l-14 890.34h148.783l-14-890.34Z" style="fill:#5c5c5c;stroke:#000;stroke-width:11.56px" transform="matrix(-.6587 -.51493 -.55013 .70374 1806.306 293.114)"/><path d="M180.656 2980c-287.688 0-472.751-167.58-478.828-556.22-4.497-287.57 150.533-383.06 150.533-591.54 0-208.47-67.997-224.17-39.597-420.04 45.46-313.52 368.157-336.88 368.157-336.88s344.987 31.99 368.156 336.88c15.977 210.24-39.596 211.57-39.596 420.04 0 208.48 154.845 279.83 150.533 591.54C654.767 2803.12 468.873 2980 181.185 2980" style="fill:#d9a683;stroke:#000;stroke-width:16.1px" transform="matrix(-.57592 -.45022 -.2997 .38338 1286.322 966.306)"/><path style="fill:#6a583a;stroke:#000;stroke-width:3.66px" d="M625.702 1792.99h159.863v26.273H625.702z" transform="matrix(.92645 .72418 -.61585 .78786 938.486 -160.902)"/><path d="M685 747.411S598.604 403.735 609.02 335c6.917-45.639 139.462-39 139.462-39s132.546-6.639 139.462 39c10.417 68.735-75.98 412.411-75.98 412.411H685Z" style="fill:#d9a683;stroke:#000;stroke-width:13.82px" transform="matrix(-.62117 -.4856 -.40142 .5135 2111.494 658.53)"/><circle cx="1044.88" cy="1525.92" r="107.956" style="fill:#6a583a;stroke:#000;stroke-width:4px" transform="matrix(1 0 0 1 -387.983 31.076)"/><path d="M1071.35 1621.84s-36.38 65.13-117.646 55.13c-45.193-5.55-88.354 10.51-88.029 49.39.326 38.88 45.583 65.61 90.135 51.04 84.47-27.62 115.54-155.56 115.54-155.56Z" style="fill:#6a583a;stroke:#000;stroke-width:4px" transform="matrix(1 0 0 1 -322.39 26.367)"/><path d="m1693.03 522.717-18.66 62.313-911.249 1116.06" style="fill:none;stroke:#000;stroke-width:4px" transform="matrix(1 0 0 1 -322.39 26.367)"/><path d="m1698.35 474.19-14.85 86.079L763.121 1701.09" style="fill:none;stroke:#000;stroke-width:4px" transform="matrix(1 0 0 1 -301.179 38.27)"/><path d="M1722.05 389.707 1696.4 525.94 763.121 1701.09" style="fill:none;stroke:#000;stroke-width:4px" transform="matrix(1 0 0 1 -280.139 54.833)"/><path d="m1693.03 522.717-18.66 62.313-911.249 1116.06" style="fill:none;stroke:#000;stroke-width:4px" transform="matrix(-.23275 -.97254 -.97253 .23275 2375.045 2149.76)"/><path d="m1698.35 474.19-14.55 82.358L763.121 1701.09" style="fill:none;stroke:#000;stroke-width:4px" transform="matrix(-.23275 -.97254 -.97253 .23275 2355.599 2135.068)"/><path d="m1722.05 389.707-23.23 137.35L763.121 1701.09" style="fill:none;stroke:#000;stroke-width:4px" transform="matrix(-.23275 -.97254 -.97253 .23275 2335.263 2121.816)"/><path d="M1555 917s-20.47-57.83-34-60c-26.11-4.187-64 3-64 3s4.27 16 15 18c11.84 2.207 31 0 31 0s3.12 11.171 4 15c3 13 11 35 11 35s-22-39-46-35c-34.82 5.803-43 9-43 9s-5 23 43 14c1.39-.261 27.41 36.508 27.41 36.508S1464 923 1447 940c-2 2-27.59 29.384-27.59 29.384S1433 987 1459 957c2.36-2.725 35.41 30.508 35.41 30.508s-8 46.002-6 61.002c4.9 36.69 20 64 20 64" style="fill:#ffe9ee;stroke:#000;stroke-width:4px" transform="translate(-252.8 -64.141)"/><path d="M1588.78 1025S1591 866 1545 844c-41.25-19.73-73-12-73-12s6 27 51 30c3.66.244 9 2 9 2l13 53" style="fill:#ffe9ee;stroke:#000;stroke-width:4px" transform="translate(-252.8 -64.141)"/><path d="M500.21 1785.75s50.908 14.53 59.993 4.27c17.534-19.79 2.934-51.02 2.934-51.02s3.437-.01-4.006 7.98c-8.213 8.81-12.302 17.27-12.302 17.27s3.707 1.31 0 0c-12.582-4.44-53.735-9.01-53.735-9.01s65.219 7.61 70.043-16.24c4.189-20.71-26.435-49.1-26.435-49.1s2.593 8.6 2.48 16.01c-.126 8.26-2.534 15.75 6.643 23.09 1.105.88-45.158-3.06-45.158-3.06s26.041-.89 35.321-12.21c2.693-3.29 3.974-7.45 2.797-12.73-.616-2.76-9.469-51.64-9.469-51.64s-20.493 1.06-13.531 40.14c2.241 12.58-50 26.5-50 26.5l-29-26.5s50.375.13 67.539-14.5 14.205-18.24 14.205-18.24-67.224 5.79-72.744 3.24c-33.597-15.55-73.803 3.16-73.803 3.16s-68.054-108.66-92.839-142.66c-16.954-23.26-49.062-47.09-49.062-47.09s13.206-81.71 17.403-121.38c4.157-39.28 10.994-103.63 10.994-103.63s-38.506-3.82-88.988-26.87c-40.017-18.27-66.839-76-66.839-76s-22.919 88.62-17.474 156.39c4.556 56.7 16.468 153.67 21.944 192.24 12.023 84.68 223.664 243.61 223.664 243.61s10.345 15.55 52.027 35.03c0 0 117.285 55.58 147.899 43.56 11.458-4.5 17.093-11.65 17.093-11.65s13.741-14.57 8.429-11.79c-4.279 2.24-21.215 2.5-21.215 2.5l-51.704-14.31" style="fill:#ffe9ee;stroke:#000;stroke-width:4px" transform="rotate(-19.488 330.79 1453.644)"/><path d="M307 245.038s-34.654 335.687-9.235 451.12c36.547 165.966 239.257 236.52 239.257 236.52s211.066-96.012 233.51-243.59C807.688 444.782 741 245.038 741 245.038S675.188 99.5 533.313 99.5 307 245.038 307 245.038Z" style="fill:#362412;stroke:#000;stroke-width:3.88px" transform="matrix(1.21182 0 0 .8137 -172.776 18.537)"/><path d="M542 210c169.99 0 313.437 120.71 313.437 312.5 0 109.814-58.244 218.456-116.301 313.5-20.847 34.128-158.331 89.956-197.136 88-34.948-1.761-173.999-67.014-185.874-87-49.34-83.044-112.408-114.044-127.563-314.5C214.098 331.171 372.01 210 542 210Z" style="fill:#ffe9ee;stroke:#000;stroke-width:4.16px" transform="matrix(.91964 0 0 1 -27.133 -110.5)"/><path d="M470.873 741s46.503 6 67.878 6c21.126 0 66.376-6 66.376-6s1.672 47.756-64.288 47.756c-65.959 0-69.966-47.756-69.966-47.756Z" style="fill:#fff;stroke:#000;stroke-width:4px" transform="matrix(1 0 0 1 -68.687 -79)"/><path d="M497.887 570.689s10.164 27.602 1.794 65.48c-3.353 15.173-10.302 27.432-8.968 36.266C492.046 681.268 515 690.97 515 690.97" style="fill:none;stroke:#000;stroke-width:2.72px" transform="matrix(1.67258 0 0 1.24084 -396.757 -237.383)"/><path d="M404.5 572.641c16.103 2.404 31.228 17.418 29.5 38.715-2 24.644-13.219 38.763-29.5 38.714C381 650 370.319 636.595 366 615c-1-5-6-49 38.5-42.359Z" style="fill:url(#a);stroke:#000;stroke-width:3.72px" transform="matrix(1.1481 0 0 1 -120.433 -120.314)"/><circle cx="389.865" cy="596.865" r="9.865" style="fill:#fff" transform="matrix(1.1481 0 0 1 -126.173 -120.36)"/><circle cx="403.888" cy="615.843" r="9.157" transform="matrix(1.1481 0 0 1 -125.205 -124.314)"/><path d="M379 635s-5.254-10.683 5.865-10c11.119.683 16.663 7.933 24.023 1 7.359-6.933 5.239-13.495 14.112-14.985 12-2.015 11.613 31.797-8 36.52C384 655 379 635 379 635Z" style="fill:#fff;fill-opacity:.4" transform="matrix(1.1481 0 0 1 -122.433 -120.314)"/><path d="M330 596s1.544-13.947 21.56-19.335c10.674-2.874 36.042-4.834 51.94-3.665 45.71 3.361 67.5 45 67.5 45" style="fill:none;stroke:#4f1900;stroke-width:10px" transform="matrix(1 0 0 1 -61.56 -120.314)"/><path d="M355 635.032s3.357 6.889 13.581 11.097c7.047 2.9 20.407 3.443 31.919 3.871 28.215 1.048 46.5-10 46.5-10" style="fill:none;stroke:#4f1900;stroke-width:4px" transform="rotate(.922 7901.917 -3271.957)"/><path d="M1471.44 457.5s34.56-21.517 79.56-18.263c42.91 3.101 76 29.618 76 29.618" style="fill:none;stroke:#4f1900;stroke-width:4px" transform="matrix(1 0 0 1 -1217.289 -.05)"/><path d="M330.855 552.941s37.14-26.454 97.493-23.618c13.579.638 43.669 5.849 43.669 5.849s1.044 11.31-4.945 10.327c-5.923-.972-23.34-4.799-48.564-7.924-37.161-4.604-87.653 15.366-87.653 15.366Z" style="fill:#4f1900;stroke:#4f1900;stroke-width:4px" transform="rotate(7.605 1335.267 29.397)"/><path d="M276.54 548.53s16.346-13.904 54.967-17.419c71.445-6.502 104.427 8.997 104.427 8.997" style="fill:none;stroke:#4f1900;stroke-width:9.06px" transform="matrix(1 0 0 1.1986 -26.48 -231.553)"/><path d="M404.5 572.641c16.103 2.404 31.228 17.418 29.5 38.715-2 24.644-13.219 38.763-29.5 38.714C381 650 370.319 636.595 366 615c-1-5-6-49 38.5-42.359Z" style="fill:url(#b);stroke:#000;stroke-width:3.72px" transform="matrix(-1.1481 0 0 1 1062.435 -120.314)"/><circle cx="389.865" cy="596.865" r="9.865" style="fill:#fff" transform="matrix(1.1481 0 0 1 134.692 -120.36)"/><circle cx="403.888" cy="615.843" r="9.157" transform="matrix(1.1481 0 0 1 139.104 -124.314)"/><path d="M379 635s-5.254-10.683 5.865-10c11.119.683 16.663 7.933 24.023 1 7.359-6.933 5.239-13.495 14.112-14.985 12-2.015 11.613 31.797-8 36.52C384 655 379 635 379 635Z" style="fill:#fff;fill-opacity:.42" transform="matrix(1.1481 0 0 1 140.433 -120.314)"/><path d="M355.002 635.089s5.082 8.465 18.502 12.923c6.296 2.092 17.986 1.653 26.996 1.988 28.215 1.048 46.5-10 46.5-10" style="fill:none;stroke:#4f1900;stroke-width:4px" transform="matrix(-.999 .04473 .04473 .999 975.047 -137.652)"/><path d="M330 596s2.823-11.842 18.186-17.186c11.616-4.04 35.634-7.261 55.314-5.814 45.71 3.361 67.5 45 67.5 45" style="fill:none;stroke:#4f1900;stroke-width:10px" transform="matrix(-1 0 0 1 1004.188 -120.314)"/><path d="M1471.44 457.5s34.56-21.517 79.56-18.263c42.91 3.101 76 29.618 76 29.618" style="fill:none;stroke:#4f1900;stroke-width:4px" transform="matrix(-1 0 0 1 2155.213 -.2)"/><path d="M330.855 552.941s37.14-26.454 97.493-23.618c13.579.638 43.669 5.849 43.669 5.849s1.044 11.31-4.945 10.327c-5.923-.972-23.34-4.799-48.564-7.924-37.161-4.604-87.653 15.366-87.653 15.366Z" style="fill:#4f1900;stroke:#4f1900;stroke-width:4px" transform="matrix(-.9912 .13233 .13233 .9912 922.288 -176.591)"/><path d="M276.54 548.53s16.346-13.904 54.967-17.419c71.445-6.502 104.427 8.997 104.427 8.997" style="fill:none;stroke:#4f1900;stroke-width:9.06px" transform="matrix(-1 0 0 1.1986 964.404 -231.704)"/><path d="M318.029 652.467s16.059-10.886 61.671 17.352c45.613 28.238 59.829 63.114 152.243 63.564 98.354.478 147.699-41.247 172.665-61.298 24.966-20.052 56.412-17.449 56.412-17.449s-14.109 31.165-61.652 97.553c-29.077 40.603-102.119 82.533-163.19 82.533-63.102 0-134.797-45.537-164.924-88.573-51.157-73.074-53.225-93.682-53.225-93.682Z" style="fill:#201b0d;stroke:#1b0d00;stroke-width:4px" transform="matrix(1 0 0 1 -62 1.456)"/><path d="M549.254 376.736s-9.987-1.384-21.563-1.995c-42.59-2.245-148.447-9.826-206.641 116.373-41.473 89.938-65.4 196.968-43.173 303.37 22.226 106.401 40.119 138.971 40.119 138.971s20.16 40.465-29.84-39.535c-10.808-17.293-54.247-129.964-54.247-129.964s33.293 106.191 54.247 149.052c22 45 29.84 49.971 29.84 49.971s-40.753-4.493-60.45-90.723c-23.642-103.507-52.653-191.221-41.346-327.557 11.505-138.722 39.522-229.086 128.493-309.628 92.403-83.649 201.477-42.829 201.477-42.829s167.554-32.945 244.65 112.014c77.903 146.477 76.938 405.99 63.899 500.053-14 101-26.314 102.11-26.314 102.11s3.533.679 5.857-56.86c2.537-62.808-3.801-89.339-3.801-89.339s8.544 70.711-32.445 162.692c-16.739 37.562-37.006 50.474-37.006 50.474s2.056 22.723 17.475-49.757c7.638-35.902 26.88-171.893 7.517-297.366-14.713-95.342-58.632-169.621-101.124-203.403-88.564-70.412-135.624-46.124-135.624-46.124Z" style="fill:#533d0d;stroke:#000;stroke-width:2.29px" transform="matrix(.97282 0 0 .75883 -53.323 -78.88)"/><path d="M249.706 462.501c-5.614-16.879 22.283-55.237-20.441-49.293-42.724 5.945-33.011 110.06 14.95 138.978 47.961 28.918 25.823-11.059 20.78-31.548-5.044-20.488-9.334-40.232-15.289-58.137Z" style="fill:#ffe9ee;stroke:#000;stroke-width:2px" transform="matrix(1 0 0 1 -58 29.456)"/><path d="M249.706 462.501c-5.614-16.879 22.283-55.237-20.441-49.293-42.724 5.945-33.011 110.06 14.95 138.978 47.961 28.918 25.823-11.059 20.78-31.548-5.044-20.488-9.334-40.232-15.289-58.137Z" style="fill:#ffe9ee;stroke:#000;stroke-width:2px" transform="matrix(-1 0 0 1 999.268 29.456)"/><path d="M1680.35 98.458s-105.81-24.377-151.77 29.477c-45.96 53.854-98.46 155.998-112.38 188.349-13.91 32.35-35.33 166.302-31.48 208.71 4.15 45.592 27.66 88.946 27.66 88.946s-20.58-57.474-4.13-153.416c16.44-95.942 88.54-244.149 122.22-273.422 33.69-29.273 140.05-20.126 140.05-20.126l-1.54-26.726-51.83-18.853 52.19-4.402 11.01-18.537Z" style="fill:#201b0d;stroke:#000;stroke-width:2px" transform="matrix(1 0 0 1 -1216.998 0)"/><path d="m1680.35 98.458-54.36-5.337 55.44-14.243s-40.78-13.771-90.09-3.986c-39.63 7.861-87.54 37.689-103.27 50.916-72.31 60.819-109.07 170.648-119.54 213.882-8.28 34.226-8.53 142.766 3.02 187.766 11.37 44.344 27.66 74 27.66 74s-29.21-105-24.21-201c5.06-97.21 77.7-224.002 115.84-247.176 86.34-52.461 180.19-16.539 180.19-16.539l-23.4-23.817 32.72-14.466Z" style="fill:#201b0d;stroke:#000;stroke-width:2px" transform="matrix(1 0 0 1 -1216.998 0)"/><path d="M1678.44 145.964s-90.29-28.777-148.58 11.403c-52.19 35.974-116.81 115.792-130.73 148.142-13.91 32.35-21.7 87.719-15.27 154.694 4.38 45.571 38.98 115.791 38.98 115.791s-22.05-63.715-17.47-155.434c5.78-115.684 81.67-189.43 115.35-218.703 33.69-29.273 156.07-38.909 156.07-38.909l1.65-16.984Z" style="fill:#201b0d;stroke:#000;stroke-width:2px" transform="matrix(-1 0 0 1 2144.837 3.252)"/><path d="M1678.44 145.964s-86.62-14.52-148.58 11.403c-58.48 24.466-120.16 114.551-130.73 148.142-10.79 34.32-20.99 154.585-9.82 220.528 6.81 40.169 65.77 121.902 65.77 121.902s-74.31-130.297-49.78-259.63c21.58-113.8 81.74-157.179 115.42-186.452 33.69-29.273 156.07-38.909 156.07-38.909l1.65-16.984Z" style="fill:#201b0d;stroke:#000;stroke-width:2px" transform="matrix(-.98275 .18494 .18494 .98275 2066.217 -333.621)"/><path d="m431.195 349.549 20.023-12.582s13.667-90.387 48.72-72.688c82.492 41.652 170.643 222.356 170.643 222.356-8.094-52.106-41.796-119.87-61.791-153.096 0 0 34.901 60.944 96.12 168.42 60.608 106.404 105.265 17.144 105.265 17.144s-57.277-8.027-78.9-40.419c-55.204-82.701-74.077-149.721-190.917-247.967-138.219-116.224-109.163 118.832-109.163 118.832Z" style="fill:#201b0d;stroke:#000;stroke-width:2.51px" transform="matrix(-.90917 .41643 .21606 .47172 777.427 -139.398)"/><path d="m401.209 332.561 25.867-25.115s13.107-173.814 112.972-52.384c74.623 90.739 165.287 435.767 165.287 435.767-7.185-60.873-52.323-298.719-125.725-444.621 0 0 77.594 106.09 138.658 249.272 61.502 144.208 77.082 337.65 77.082 337.65s2.385-209.421-34.994-310.454C656.957 243.2 597.512 183.582 509.948 124.793c-96.845-65.02-108.739 207.768-108.739 207.768Z" style="fill:#201b0d;stroke:#000;stroke-width:2.91px" transform="matrix(.79474 .36402 -.17595 .38415 199.68 -68.113)"/><path d="M351 99.5s-27.069 21.322-70.069 97.202c-24.626 43.456-31.227 60.578-31.227 60.578s50.812 14.223 143.227 1.421C628.931 226.008 741 129.112 741 129.112S557.924 167.581 447 149s-96-49.5-96-49.5Z" style="fill:url(#c)" transform="matrix(1 0 0 .70351 -72.93 17)"/><path d="M439.011 724.986s-17.993-63.603 8.784-88.75c17.305-16.251 49.813-8.812 85.108-8.812 34.183 0 59.422-3.836 76.121 12.727 27.223 27.001 21.175 85.868 21.175 85.868s-9.036-64.638-34.322-73.3c-27.01-9.252-48.057-6.048-64.953-6.048-15.208 0-46.458-8.523-68.352 6.072-28.233 18.821-23.561 72.243-23.561 72.243Z" style="fill:#533d0d;stroke:#1b0d00;stroke-width:4px" transform="matrix(1 0 0 1 -62 5.456)"/><path d="M305.145 449.213c4.089-9.851 7.487-30.863 87.92-28.574 80.433 2.29 80.27 14.02 84.465 29.924 5.844 22.154-13.651 93.718-37.475 98.175-23.825 4.457-88.436 3.018-101.441-5.142-13.112-8.227-41.603-74.788-33.469-94.383Z" style="fill:none;stroke:#000;stroke-width:1.75px" transform="matrix(1.22488 0 0 1.05635 -144.266 -14.703)"/><path d="M305.145 449.213c4.089-9.851 7.487-30.863 87.92-28.574 80.433 2.29 80.27 14.02 84.465 29.924 5.844 22.154-13.651 93.718-37.475 98.175-23.825 4.457-88.436 3.018-101.441-5.142-13.112-8.227-41.603-74.788-33.469-94.383Z" style="fill:none;stroke:#000;stroke-width:1.75px" transform="matrix(-1.22488 0 0 1.05635 1088.378 -14.681)"/><path d="M290.532 463.401s-8.836-28.119 33.675-38.104c25.945-6.095 81.337-5.214 122.778-.119 26.457 3.253 47.227 8.223 51.017 14.191 4.579 7.212 24.209.045 34.587.064 10.377.02-7.437.041 2.94.021 10.378-.019 30.009 7.148 34.587-.064 9.725-15.317 131.285-24.058 173.796-14.072 42.51 9.986 33.675 38.104 33.675 38.104" style="fill:none;stroke:#000;stroke-width:10px" transform="matrix(1 0 0 1 -62 9)"/><defs><radialGradient id="a" cx="0" cy="0" r="1" gradientUnits="userSpaceOnUse" gradientTransform="matrix(68.809 0 0 78.1099 365.326 611.015)"><stop offset="0" style="stop-color:#918b8b;stop-opacity:1"/><stop offset="1" style="stop-color:#4f1900;stop-opacity:1"/></radialGradient><radialGradient id="b" cx="0" cy="0" r="1" gradientUnits="userSpaceOnUse" gradientTransform="matrix(68.809 0 0 78.1099 365.326 611.015)"><stop offset="0" style="stop-color:#918b8b;stop-opacity:1"/><stop offset="1" style="stop-color:#4f1900;stop-opacity:1"/></radialGradient><linearGradient id="c" x1="0" y1="0" x2="1" y2="0" gradientUnits="userSpaceOnUse" gradientTransform="matrix(491.233 0 0 145.538 249.767 172.269)"><stop offset="0" style="stop-color:white;stop-opacity:.62"/><stop offset="1" style="stop-color:white;stop-opacity:.17"/></linearGradient></defs></svg>