<svg viewBox="0 0 1455 1407" xmlns="http://www.w3.org/2000/svg" xml:space="preserve" style="fill-rule:evenodd;clip-rule:evenodd;stroke-linecap:round;stroke-linejoin:round;stroke-miterlimit:1.5"><path d="M1682.96 1194.59c0 2.25-14.09 4.08-31.45 4.08-17.35 0-31.44-1.83-31.44-4.08v-46.1h62.69l.2 46.1Z" style="fill:#9a9a9a;stroke:#000;stroke-width:1.45px" transform="matrix(6.08066 0 0 6.7604 -9630.863 -7271.676)"/><ellipse cx="1651.51" cy="1194.59" rx="31.446" ry="4.082" style="fill:#fff;stroke:#000;stroke-width:1.45px" transform="matrix(6.08066 0 0 6.7604 -9630.927 -7583.979)"/><path style="fill:#f84b60;stroke:#000;stroke-width:1.32px" d="M1722.89 1198.38h49.698v21.095h-49.698z" transform="matrix(7.69615 0 0 6.33473 -12458.167 -7061.193)"/><path d="m1762.29 1199.7.06 19.47" style="fill:none;stroke:#000;stroke-width:1.47px" transform="matrix(6.3347 0 0 6.33473 -10044.836 -7061.193)"/><path d="m1762.29 1199.7.06 19.47" style="fill:none;stroke:#000;stroke-width:1.47px" transform="matrix(6.3347 0 0 6.33473 -10298.604 -7061.005)"/><path d="M1741.13 1219.59v17.86" style="fill:none;stroke:#000;stroke-width:1.47px" transform="matrix(6.3347 0 0 6.33473 -10044.836 -7061.193)"/><path d="M1687.99 1188.5h28.4" style="fill:none;stroke:#000;stroke-width:1.52px" transform="matrix(5.97624 0 0 6.33473 -9438.542 -7058.119)"/><path d="M1702.41 1188.95v29.76" style="fill:none;stroke:#000;stroke-width:1.47px" transform="matrix(6.3347 0 0 6.33473 -10044.836 -7061.193)"/><path d="m1752.82 1194.73-6.94-25.18.03.14c-.69-2.56-10-2.3-20.79.58-10.78 2.88-18.99 7.3-18.3 9.86l.01.32 7.41 24.53" style="fill:#35d419;stroke:#000;stroke-width:1.47px" transform="matrix(6.3347 0 0 6.33473 -10044.836 -7061.193)"/><path d="m1734.17 1168.02 2.36 7.75" style="fill:none;stroke:#000;stroke-width:1.61px" transform="matrix(6.27453 -.1978 -.1978 5.68443 -9707.767 -5953.1)"/><path d="m1715.37 1174.01 2.24 6.65" style="fill:none;stroke:#000;stroke-width:1.47px" transform="matrix(6.3347 0 0 6.33473 -10044.836 -7061.193)"/><ellipse cx="1734.54" cy="1213.14" rx="21.25" ry="7.505" style="fill:#fff;stroke:#000;stroke-width:1.82px" transform="matrix(5.82628 -1.55703 1.04674 3.91682 -10440.755 -1511.56)"/><path d="M1713.29 1213.14c0-4.14 9.52-7.5 21.25-7.5s21.25 3.36 21.25 7.5" style="fill:none;stroke:#000;stroke-width:1.82px" transform="matrix(5.82628 -1.55703 1.04674 3.91682 -10472.808 -1619.721)"/><path d="m1752.82 1194.73-6.94-25.18.03.14c-.69-2.56-10-2.3-20.79.58-10.78 2.88-18.99 7.3-18.3 9.86l.01.32 7.41 24.53" style="fill:#ffa900;stroke:#000;stroke-width:1.23px" transform="matrix(6.83888 3.29701 -3.297 6.8389 -7389.408 -13345.309)"/><path d="m1734.17 1168.02 2.36 7.75" style="fill:none;stroke:#000;stroke-width:1.34px" transform="matrix(6.87651 3.05451 -3.17329 6.04165 -7583.309 -11984)"/><path d="m1734.17 1168.02 2.36 7.75" style="fill:none;stroke:#000;stroke-width:1.36px" transform="matrix(6.88103 3.02537 -3.15842 5.94584 -7691.033 -11842.543)"/><path d="m1715.37 1174.01 2.24 6.65" style="fill:none;stroke:#000;stroke-width:1.23px" transform="matrix(6.83888 3.29701 -3.297 6.8389 -7396.51 -13344.214)"/><ellipse cx="1734.54" cy="1213.14" rx="21.25" ry="7.505" style="fill:#fff;stroke:#000;stroke-width:1.52px" transform="matrix(7.10037 1.35144 -.90852 4.77336 -10705.224 -7560.044)"/><path d="M1713.29 1213.14c0-4.14 9.52-7.5 21.25-7.5s21.25 3.36 21.25 7.5" style="fill:none;stroke:#000;stroke-width:1.52px" transform="matrix(7.10037 1.35144 -.90852 4.77336 -10683.535 -7693.497)"/><path d="m1627.63 1287.53 12.8-5.87" style="fill:none;stroke:#000;stroke-width:1.47px" transform="matrix(6.3347 0 0 6.33473 -10051.17 -7061.193)"/><path d="m1615.01 1281.82 12.72 6.38" style="fill:none;stroke:#000;stroke-width:1.66px" transform="matrix(5.6996 -.31842 -.31842 6.17508 -8608.17 -6344.034)"/><path d="m1626.99 1271.26 25.94 21.21M1627 1271l-41 36M1627 1158.34V1297M1639.5 1115v6M1639.5 1136.45v9.75L1597 1186" style="fill:none;stroke:#000;stroke-width:1.47px" transform="matrix(6.3347 0 0 6.33473 -10044.836 -7061.193)"/><ellipse cx="1638" cy="1131" rx="43" ry="14" style="fill:#ebff84;stroke:#000;stroke-width:1.47px" transform="matrix(6.25247 1.01738 -1.01738 6.2525 -8749.966 -8600.146)"/><path d="M1778.48 1136.45V1297" style="fill:none;stroke:#000;stroke-width:1.47px" transform="matrix(6.3347 0 0 6.33473 -10044.836 -7061.193)"/><path d="m1627.63 1287.53 12.8-5.87" style="fill:none;stroke:#000;stroke-width:1.47px" transform="matrix(6.3347 0 0 6.33473 -9094.631 -7059.99)"/><path d="m1615.01 1281.82 12.72 6.38M1626.99 1271.26l25.94 21.21M1627 1271l-41 36" style="fill:none;stroke:#000;stroke-width:1.47px" transform="matrix(6.3347 0 0 6.33473 -9088.296 -7059.99)"/><path d="M1639.5 1115v7.92" style="fill:none;stroke:#000;stroke-width:1.47px" transform="matrix(6.3347 0 0 6.33473 -9165.516 -7045.362)"/><ellipse cx="1774.5" cy="1144.17" rx="33.5" ry="7.725" style="fill:#ebff84;stroke:#000;stroke-width:1.28px" transform="matrix(6.89716 -.54084 .59936 7.64359 -11703.45 -7647.979)"/><path d="m1654.51 1294.45-13.29 41.87" style="fill:none;stroke:#000;stroke-width:1.47px" transform="matrix(6.3347 0 0 6.33473 -10044.836 -7061.193)"/><path d="m1654.51 1294.45-13.29 41.87" style="fill:none;stroke:#000;stroke-width:1.47px" transform="matrix(-6.3347 0 0 6.33473 11524.184 -7066.037)"/><path d="M1653.27 1293.52c0-41.5 21.98-60.25 49.13-60.25 27.16 0 49.33 14.81 49.33 61.56" style="fill:#0060ff;stroke:#000;stroke-width:1.47px" transform="matrix(6.3347 0 0 6.33473 -10045.66 -7149.077)"/><ellipse cx="1702.4" cy="1283.03" rx="49.202" ry="49.763" style="fill:#fff;stroke:#000;stroke-width:1.47px" transform="matrix(6.3347 0 0 6.33473 -10044.836 -7061.193)"/></svg>