<svg viewBox="0 0 1080 3539" xmlns="http://www.w3.org/2000/svg" xml:space="preserve" style="fill-rule:evenodd;clip-rule:evenodd;stroke-linecap:round;stroke-linejoin:round;stroke-miterlimit:1.5"><path style="fill:none" d="M0 0h1080v1973H0z" transform="scale(1 1.79372)"/><path d="M307 245.038s-53.025 391.151-27.606 506.584C315.941 917.588 533.313 1012 533.313 1012s222.333-112.688 247.473-259.299C799.216 645.229 741 245.038 741 245.038S675.188 99.5 533.313 99.5 307 245.038 307 245.038Z" style="stroke:#000;stroke-width:3.42px" transform="matrix(1.21183 0 0 1.12274 -110.776 -12.213)"/><path d="m491 3155-7.741 56.92S495.143 3195.56 495 3185c-.143-10.56-4-30-4-30Z" style="fill:#3f3f3f;stroke:#000;stroke-width:4px"/><path d="M491 3196c-3.852-24.4 0-41 0-41s-13.776-34.96-73-25c-59.224 9.96-65 22-65 22s-17.339 44.51-62 71c-16.077 9.54-53.182 33-53.182 33s-31.672 36.63-11.818 62c20 25.56 88.93 35.46 110 23 71-42 140-110 155-145Z" style="fill:#e8cbba;stroke:#000;stroke-width:4px"/><path d="M509 3219s17.051-1.44 13-19c-3-13-18-9-18-9s3.167 10.33 4 15c.828 4.64 1 13 1 13Z" style="fill:#9c9c9c;stroke:#000;stroke-width:3.53px" transform="matrix(1.12767 0 0 1.13996 -64.346 -446.518)"/><path d="M509 3219s17.051-1.44 13-19c-3-13-18-9-18-9s3.167 10.33 4 15c.828 4.64 1 13 1 13Z" style="fill:#9c9c9c;stroke:#000;stroke-width:4.61px" transform="matrix(.94015 -.2006 .1591 .7457 -490.547 892.114)"/><path d="M491 3155s6.788 12.39 0 41c-7.792 32.84-112.032 128.51-156 145-48 18-83-22-97.182-60-10.815-28.98 0-34 0-34s-16.291 2.98-48.818 28c-13 10-35.774 33-37 50-5.665 78.58 59.231 87.48 104 83 40-4 45-14.22 45-14.22S257 3456 179 3420c-37.436-17.28-27-95-27-95s-30.211 72.26 0 103c30.211 30.74 118.453 63.24 205-27 26.565-27.7 47.166-54.48 67-77 44.784-50.85 86.469-59.46 85-105-1-31-16.816-56.49-18-64Z" style="fill:#9c9c9c;stroke:#000;stroke-width:4px"/><ellipse cx="432" cy="3424" rx="20" ry="10" transform="rotate(-30.796 251.946 3718.66)"/><path d="M458.877 3418.61c12.142 0 13.123 12.32 13.123 18.39s-10.187 9.41-22.329 9.41c-12.142 0-21.671-3.34-21.671-9.41s18.735-18.39 30.877-18.39Z" style="fill:#9c9c9c;stroke:#000;stroke-width:4.34px" transform="matrix(.8301 -.51574 .45577 .73358 -1725.16 1028.14)"/><path d="M323.805 3434s37.536 10.86 60.195-4-6.228-15.17-14-21c-4-3-8-12-8-12s-6 0-20 13c-21.984 20.41-18.195 24-18.195 24Z" style="fill:#9c9c9c;stroke:#000;stroke-width:4px" transform="translate(.249 -23.637)"/><path d="m237.818 3247 8.182 4-12.249 11s-1.295-4.51 0-9.28c1.295-4.78 4.067-5.72 4.067-5.72Z" style="fill:#383838;stroke:#000;stroke-width:4px"/><path d="m491 3155-7.741 56.92S495.143 3195.56 495 3185c-.143-10.56-4-30-4-30Z" style="fill:#3f3f3f;stroke:#000;stroke-width:4px" transform="matrix(-.72308 -.04675 -.07836 1.21187 1197.14 -657.16)"/><path d="m234.861 3251.36 11.139 2.61-21.828 20.04s-2.431-11.78-1.136-16.56c1.295-4.77 11.825-6.09 11.825-6.09Z" style="fill:#383838;stroke:#000;stroke-width:4.38px" transform="matrix(-.59206 -.03828 -.07406 1.14535 1170.035 -440.458)"/><path d="M491 3196c-3.852-24.4 0-41 0-41s-12.105-19.74-73-25c-68.272-5.9-105.217 12.21-105.217 12.21s5.7 48.27-38.961 74.76c-16.076 9.54-54.364 37.53-54.364 37.53s-92.557 26.14-19.952 63.19C226.799 3331.62 305.7 3353.84 336 3341c75.958-32.18 140-110 155-145Z" style="fill:#e8cbba;stroke:#000;stroke-width:4px" transform="matrix(-.72308 -.04675 -.07836 1.21187 1197.14 -657.16)"/><path d="M509 3219s17.051-1.44 13-19c-3-13-18-9-18-9s3.167 10.33 4 15c.828 4.64 1 13 1 13Z" style="fill:#9c9c9c;stroke:#000;stroke-width:4.06px" transform="matrix(-.8154 -.05272 -.0728 1.12583 1225.917 -379.64)"/><path d="M509 3219s17.051-1.44 13-19c-3-13-18-9-18-9s3.167 10.33 4 15c.828 4.64 1 13 1 13Z" style="fill:#9c9c9c;stroke:#000;stroke-width:5.46px" transform="matrix(-.66408 -.28705 -.17348 .89626 1481.938 446.901)"/><path d="M491 3155s6.788 12.39 0 41c-7.792 32.84-109.715 113.25-151.905 131.31-30.77 13.18-67.632 8.42-109.829-4.58-88.329-27.2-28.611-67.06-28.611-67.06s-8.258 4.94-33.1 27.18c-11.766 10.53-39.093 29.97-41.403 46.93-4.615 33.89 18.309 60.42 48.79 71.03 30.863 10.75 69.456 5.34 91.98 3.08 40-4 51.063-13.62 51.063-13.62s-55.436 46.74-144.646 25.33c-69.41-16.65-47.187-85.82-47.187-85.82s-49.315 64.77 23.95 98.13c35.785 16.29 159.603 23.75 220.232-26.58 47.776-39.65 43.745-62.2 63.58-84.72 44.784-50.85 76.555-52.07 75.086-97.61-1-31-16.816-56.49-18-64Z" style="fill:#9c9c9c;stroke:#000;stroke-width:4px" transform="matrix(-.72308 -.04675 -.07836 1.21187 1197.14 -657.16)"/><ellipse cx="432" cy="3424" rx="20" ry="10" transform="matrix(-.53164 -.70096 -.51001 .9827 2694.242 339.697)"/><path d="M458.877 3418.61c12.142 0 13.123 12.32 13.123 18.39s-10.187 9.41-22.329 9.41c-12.142 0-21.671-3.34-21.671-9.41s18.735-18.39 30.877-18.39Z" style="fill:#9c9c9c;stroke:#000;stroke-width:5.84px" transform="matrix(-.44672 -.74465 -.52053 .79482 2790.158 982.505)"/><path d="M331.537 3424.97s47.727 14.86 70.385 0c22.659-14.86-14.309-8.08-22.081-13.91-4-3-16.561-14.82-16.561-14.82s-6.543 1.05-21.28 13.76c-14.603 12.59-10.463 14.97-10.463 14.97Z" style="fill:#9c9c9c;stroke:#000;stroke-width:3.57px" transform="matrix(-.7898 -.28591 -.45708 1.26263 2492.612 -799.778)"/><path d="M874.417 1686s-180.307 44-299.827 44c-162.074 0-281.59-44-281.59-44s-61.342 54.31-44.138 358S327 2531 327 2531s-27.538 126.4-8 271 51.152 344 51.152 344 21.083 50.37 89.848 50c68.765-.37 80-56 80-56s7.837-268.91 5.608-340c-2.23-71.09-9.03-270-9.03-270s46.565-220.58 47.655-285c1.09-64.42.484-229 .484-229l.336 61s-.606 103.58.484 168c1.09 64.41 47.655 285 47.655 285s-6.8 198.91-9.03 270c-2.229 71.09 5.608 340 5.608 340s11.235 55.62 80 56c68.764.37 89.848-50 89.848-50s31.613-199.4 51.152-344c19.538-144.6-8-271-8-271s60.934-183.31 78.138-487c17.204-303.69-44.138-358-44.138-358" style="fill:#3d3d3d;stroke:#000;stroke-width:4.22px" transform="matrix(.89166 0 0 1 18.633 0)"/><path d="M3906.78 1757.73s-44.68 59.29-93.44 70.05c-48.76 10.75-84.52-6.49-84.52-6.49" style="fill:none;stroke:#000;stroke-width:5.25px" transform="matrix(.97819 0 0 .4519 -3398.33 963.409)"/><path d="M3906.78 1757.73s-44.68 59.29-93.44 70.05c-48.76 10.75-84.52-6.49-84.52-6.49" style="fill:none;stroke:#000;stroke-width:5.25px" transform="matrix(-.97819 0 0 .4519 4477.46 955.122)"/><path d="M328.38 1864.13c-6-10-14.331-14.73-14.38-36.13-.03-13.04-.992-48.91 5-50 0 0 13.37 2.75 26.021 6.19M345.021 1784.19c10.555 2.86 20.609 6.2 21.979 8.81 3.013 5.74-3.573 53.8-8 62-4.427 8.2-8.106 16.03-18.5 17-2.37.22 2.657 2.59 0 0" style="fill:none;stroke:#22a9d9;stroke-width:10.87px" transform="matrix(.64421 0 0 .81703 112.474 280.789)"/><path d="M1459.14 1936c-8.91 0-16.14-12.77-16.14-28.5s7.23-28.5 16.14-28.5" style="fill:none;stroke:#bebebe;stroke-width:4.39px" transform="matrix(.9522 0 0 .86842 -1060.356 190.65)"/><path d="M337 1848c-8.351 1.39-27 28-27 28l7 35 23.115 12 9.885 56 11 10 10-14-7-6 3.763-6-5.763-5-6.771-37 13.534-18-4.763-34s-21-22-27-21Z" style="fill:#ffe000;stroke:#000;stroke-width:5.96px" transform="matrix(.61351 0 0 .72324 120.811 525.399)"/><path d="M1459.14 1879c8.91 0 16.15 12.77 16.15 28.5s-7.24 28.5-16.15 28.5" style="fill:none;stroke:#bebebe;stroke-width:4.39px" transform="matrix(.9522 0 0 .86842 -1060.356 190.65)"/><path d="m335.016 1735-2.302 47h14l.318-45-12.016-2Z" style="stroke:#000;stroke-width:4.33px" transform="matrix(1 0 0 .84043 -10.29 332.775)"/><path d="M125 1150s-2.023 200.32 10 285 112.818 251 112.818 251L291 1645s-17.136-102-26-139c-6.705-27.99-27.182-83-27.182-83s13.985-72.33 18.182-112c4.156-39.28 7-126 7-126l-138-35Z" style="fill:#e8cbba;stroke:#000;stroke-width:4px" transform="translate(8)"/><path d="M125 1150s-2.023 200.32 10 285 112.818 251 112.818 251L291 1645s-17.136-102-26-139c-6.705-27.99-27.182-83-27.182-83s13.985-72.33 18.182-112c4.156-39.28 7-126 7-126l-138-35Z" style="fill:#e8cbba;stroke:#000;stroke-width:4px" transform="matrix(-1 0 0 1 1060.28 0)"/><path d="M533.313 1789c81.015 0 296.313-65 296.313-65s2-21-42-136c-54.573-142.63-1-430-1-430l1 72s29.26 15.38 89.687 6c63.371-9.84 69.313-53 69.313-53v1s-21.408-167.5-84.313-227c-36.279-34.317-87.488-55.674-152.687-74-90.591-25.463-176.313-108-176.313-108S447.591 857.537 357 883c-65.198 18.326-116.408 39.683-152.687 74C141.409 1016.5 120 1184 120 1184v-1s9.288 41.32 69.313 53c60.547 11.79 89.687-6 89.687-6l1-72s56.573 287.37 2 430c-44 115-42 136-42 136s212.298 65 293.313 65" style="fill:#a584ff;stroke:#000;stroke-width:4px"/><path d="M448 1210c-7.5-16-7-75 47-90 3.883-1.08 1.66-16.11 5-17 5.484-1.45 16.09 11.43 20.126 10.19 14.22-4.36 13.473-16.19 19.874-16.19 6.401 0 5.507 12.15 18.534 16.17 3.751 1.16 13.419-11.42 18.466-10.17 4.273 1.06 3.815 15.6 9 17 52 14 56 71 49 90-6.133 16.65-28.471 30-93.898 30-65.427 0-85.602-14-93.102-30Z" style="fill:#fff;stroke:#000;stroke-width:3.21px" transform="matrix(.776 0 0 .88318 120.108 160.155)"/><path d="m522 1122-4.585 16" style="fill:none;stroke:#d6b86e;stroke-width:3.02px" transform="matrix(.88318 0 0 .88318 63.084 160.155)"/><path d="m522 1122-4.585 16" style="fill:none;stroke:#d6b86e;stroke-width:3.02px" transform="matrix(-.88318 0 0 .88318 1012.5 160.155)"/><path d="m522 1122-4.585 16" style="fill:none;stroke:#d6b86e;stroke-width:3.02px" transform="matrix(.849 -.2433 .2433 .849 -178.195 325.222)"/><path d="M522.2 1152s-9.2-6-20.2-2c-7.75 2.82-12 10-12 10" style="fill:none;stroke:#000;stroke-width:3.42px" transform="matrix(.75518 -.01227 .01309 .80543 110.665 263.114)"/><path d="M522.2 1152s-9.2-6-20.2-2c-7.75 2.82-12 10-12 10" style="fill:none;stroke:#000;stroke-width:3.42px" transform="matrix(-.75518 -.01227 -.01309 .80543 968.907 263.114)"/><ellipse cx="485" cy="1193.5" rx="11" ry="6.5" style="fill:#dfa1ca" transform="matrix(.96085 .07094 -.06503 .88078 111.607 134.304)"/><ellipse cx="485" cy="1193.5" rx="11" ry="6.5" style="fill:#dfa1ca" transform="matrix(-.94915 .16548 .1517 .87006 859.377 101.255)"/><path d="M539.023 1218.177c7.387 0 18.704-7.522 22.514-2.18 3.81 5.344-3.912 18.52-22.514 18.52s-23.788-16.346-20.486-19.064c3.301-2.718 12.81 2.724 20.486 2.724Z"/><path d="M489 1157.27s2.394-6.62 11-9.27c13-4 19 6 19 6" style="fill:none;stroke:#000;stroke-width:2.37px" transform="matrix(.9185 0 0 1.30033 47.62 -296.308)"/><path d="M489 1157.27s2.394-6.62 11-9.27c13-4 19 6 19 6" style="fill:none;stroke:#000;stroke-width:2.37px" transform="matrix(-.9185 0 0 1.30033 1032.47 -296.308)"/><path d="M438 727h200s-25.413 124.296 11 151c26.329 19.308-40.812 152.35-109 152.35S394.253 901.304 422 880c37.952-29.14 16-153 16-153Z" style="fill:#e8cbba;stroke:#000;stroke-width:4px"/><path d="M542 210c169.99 0 302.563 118.71 302.563 310.5 0 109.814-53.325 244.799-123.913 308.5-52.693 47.553-105.992 85-178.65 85-35 0-118.079-37.873-170.65-85-71.039-63.681-131.913-198.278-131.913-308.5C239.437 328.71 372.01 210 542 210Z" style="fill:#e8cbba;stroke:#000;stroke-width:4.16px" transform="matrix(.91964 0 0 1 34.867 -110.5)"/><path d="M482.873 741h114.254S576.816 816 540 816s-57.127-75-57.127-75Z" style="fill:#fff;stroke:#000;stroke-width:4px" transform="translate(-6.687 -89)"/><path d="M519 599.5s-4 28.5-12 42.5c-7.576 13.257-13.061 27.879-9.313 36 6 13 30 17 30 17" style="fill:none;stroke:#000;stroke-width:4px" transform="translate(-6.687 -93)"/><path d="M279 557.5s15.676-18.177 54-23.5c72-10 101 23.5 101 23.5" style="fill:none;stroke:#000;stroke-width:10px" transform="translate(37.44 -120.314)"/><path d="M330 591s24.79-21.361 70.5-18c45.71 3.361 70.5 48 70.5 48" style="fill:none;stroke:#000;stroke-width:10px" transform="translate(.44 -120.314)"/><path d="M357 635s15.285 13.952 43.5 15 46.5-10 46.5-10" style="fill:none;stroke:#000;stroke-width:4px" transform="translate(.44 -120.314)"/><path d="M404.5 572.641c16.103 2.404 31.228 17.418 29.5 38.715-2 24.644-13.219 38.763-29.5 38.714C381 650 370.319 636.595 366 615c-1-5-6-49 38.5-42.359Z" style="fill:url(#a);stroke:#000;stroke-width:3.72px" transform="matrix(1.14811 0 0 1 -58.433 -120.314)"/><circle cx="389.865" cy="596.865" r="9.865" style="fill:#fff" transform="matrix(1.14811 0 0 1 -64.173 -120.36)"/><circle cx="403.888" cy="615.843" r="9.157" transform="matrix(1.14811 0 0 1 -63.206 -124.314)"/><path d="M379 635s-5.254-10.683 5.865-10c11.119.683 16.663 7.933 24.023 1 7.359-6.933 5.239-13.495 14.112-14.985 12-2.015 11.613 31.797-8 36.52C384 655 379 635 379 635Z" style="fill:#fff;fill-opacity:.41" transform="matrix(1.14811 0 0 1 -60.433 -120.314)"/><path d="m330 592-11-10s3.443-.572 27.097-6.229c31.935-7.637 62.903-3.13 62.903-3.13s-33.573-4.198-50.323 3.13C342.677 582.771 330 592 330 592Z" style="stroke:#000;stroke-width:3.84px" transform="matrix(1.03333 0 0 1.0475 -13.193 -147.435)"/><path d="M357 539s57.122-8.977 70-6.864c9.785 1.606 48 15.682 48 15.682s2.99 13.665-3 12.682c-5.922-.972-29.942-16.244-55-20.5-29.431-4.998-60-1-60-1Z" style="stroke:#000;stroke-width:4px" transform="translate(.44 -120.314)"/><path d="M279 557.5s15.676-18.177 54-23.5c72-10 101 23.5 101 23.5" style="fill:none;stroke:#000;stroke-width:10px" transform="matrix(-1 0 0 1 1029.19 -120.314)"/><path d="M330 591s24.79-21.361 70.5-18c45.71 3.361 70.5 48 70.5 48" style="fill:none;stroke:#000;stroke-width:10px" transform="matrix(-1 0 0 1 1066.19 -120.314)"/><path d="M357 635s15.285 13.952 43.5 15 46.5-10 46.5-10" style="fill:none;stroke:#000;stroke-width:4px" transform="matrix(-1 0 0 1 1066.19 -120.314)"/><path d="M404.5 572.641c16.103 2.404 31.228 17.418 29.5 38.715-2 24.644-13.219 38.763-29.5 38.714C381 650 370.319 636.595 366 615c-1-5-6-49 38.5-42.359Z" style="fill:url(#b);stroke:#000;stroke-width:3.72px" transform="matrix(-1.14811 0 0 1 1124.437 -120.314)"/><circle cx="389.865" cy="596.865" r="9.865" style="fill:#fff" transform="matrix(1.14811 0 0 1 196.692 -120.36)"/><circle cx="403.888" cy="615.843" r="9.157" transform="matrix(1.14811 0 0 1 201.104 -124.314)"/><path d="M379 635s-5.254-10.683 5.865-10c11.119.683 16.663 7.933 24.023 1 7.359-6.933 5.239-13.495 14.112-14.985 12-2.015 11.613 31.797-8 36.52C384 655 379 635 379 635Z" style="fill:#fff;fill-opacity:.4" transform="matrix(1.14811 0 0 1 202.433 -120.314)"/><path d="m330 592-11-10s3.443-.572 27.097-6.229c31.935-7.637 62.903-3.13 62.903-3.13s-33.573-4.198-50.323 3.13C342.677 582.771 330 592 330 592Z" style="stroke:#000;stroke-width:3.84px" transform="matrix(-1.03333 0 0 1.0475 1079.823 -147.435)"/><path d="M357 539s57.122-8.977 70-6.864c9.785 1.606 48 15.682 48 15.682s2.99 13.665-3 12.682c-5.922-.972-29.942-16.244-55-20.5-29.431-4.998-60-1-60-1Z" style="stroke:#000;stroke-width:4px" transform="matrix(-1 0 0 1 1066.19 -120.314)"/><path d="M465 310s-74.051 19.427-116 109c-41.949 89.573-81.227 232.598-59 339 22.227 106.402 71 181 71 181s-48-17-98-97c-10.808-17.293-29.091-78.044-29.091-78.044s45.598 163.985 66.552 206.846C322.461 1015.8 377 1062 377 1062s-91.487-55.89-127.469-133C158.531 734 154 251 352 210c41.418-8.576 69 0 69 0s30.382-28.355 61.873-39C545 150 734.5 178 805 291c78.301 125.504 102.038 430.937 89 525-14 101-60.5 117-60.5 117s24.388-39.42 19.5-102c-4.888-62.58-19.5-68-19.5-68s-12.87 189.098-46.5 237c-33.233 47.34-63 61.05-63 61.05s38.623-66.517 39-138.05c.196-37.213 26.925-168.931 23.002-296.737-3.618-117.871-35.964-232.425-78.455-266.207C618.982 289.644 465 310 465 310Z" style="fill:#423836;stroke:#000;stroke-width:3.89px" transform="matrix(.97282 0 0 1.07864 8.677 -131.509)"/><path d="M474.58 298.145s77.669 91.521 151.576 141.369c71.806 48.431 183.594 79.674 183.594 79.674s-91.198-50.773-103.546-62.483c-15.25-14.461-44.351-65.453-44.351-65.453s14.968 34.434 60.9 56.366c34.057 16.262 88.898 34.112 88.898 34.112s-36.001-41.706-47.05-52.359c-50.564-48.75-88.485-241.69-250.459-220.685-93.475 12.123-39.562 89.459-39.562 89.459Z" style="stroke:#000;stroke-width:4px" transform="translate(-6.687 -93)"/><path d="M469.323 125.274s-71.721 42.373-106.74 118.356c-10.54 22.868-34.947 90.16-46.04 127.062-19.232 63.975-55.472 124.214-55.472 124.214s57.381-85.091 76.378-115.741c18.997-30.65-59.836 207.34-59.836 207.34s96.426-228.578 112.158-252.807c30.57-47.085 66.379-90.49 78.3-128.574 13.887-44.364 1.252-79.85 1.252-79.85Z"/><path d="M414.773 99.377c-25.224 13.531-66.376 57.478-115.228 125.399-20.544 28.56-40.795 50.332-74.01 175.357-6.906 25.99-19.94 141.095-15.509 204.293 2.095 29.885 4.743 88.008 12.428 135.336 9.722 59.878 24.306 97.555 34.96 141.842 0 0-23.227-125.845-26.926-244-3.03-96.818 12.182-188.366 20.738-202.17 6.358-10.259-2.564 11.946-2.949 63.556-1.574 210.858 43.014 281.065 43.014 281.065s-31.518-177.106-22.735-274.098c8.404-92.808 36.428-167.845 40.742-181.296C355.774 179.733 442.885 182.69 450.89 143.592c6.126-29.922-19.594-53.078-36.117-44.215Z"/><path d="M272.085 238.04c-35.191 62.322-63.867 179.71-64.953 252.054a462263.28 462263.28 0 0 0-3.035 207.727s-17.566-98.418-6.303-229.717c6.155-71.749 33.154-187.939 55.366-233.876 81.021-167.557 164.246-136.08 164.246-136.08s-91.308 44.238-145.321 139.892Z" style="fill-opacity:.72"/><path d="M435.33 100.356s64.85-53.948 159.766-19.749c128.075 46.147 226.107 330.35 245.56 420.545 19.452 90.196 14.983 128.095 24.493 163.977 21.918 82.689 25.404 220.04 25.404 220.04s-37.242-225.985-42.431-262.003c-5.103-35.423-33.393-280.068-180.495-469.207-38.495-49.495-94.651-55.81-120.004-56.423-25.353-.613-95.756 23.783-95.756 23.783l-16.537-20.963Z"/><path d="M519.014 72.188s212.868-40.104 285.701 217.96c72.833 258.064 71.829 472.89 52.943 512.428-6.337 13.266-21.253 33.884-21.253 33.884s22.026-91.35 18.469-184.877c-4.207-110.645-29.552-246.421-43.754-283.243-26.206-67.948-64.952-190.959-144.463-237.535C587.145 84.23 537.591 88.31 537.591 88.31l-18.577-16.12Z"/><path d="M752.445 284.402s15.448 77.447 23.783 180.563c9.362 115.82 11.245 263.758 1.286 365.611-10.406 106.421-83.642 127.502-83.642 127.502s63.408-4.448 91.015-77.63c27.607-73.182-1.852-529.082-1.852-529.082l-30.59-66.964Z"/><path d="m784.692 379.458 73.076 331.718-.485 35.23-78.946-339.584 6.355-27.364Z"/><path d="M351 99.5s-43 9.5-83 73.5c-26.073 41.716-17.937 43-17.937 43s115.417-14.684 208.254-12.231C551.154 206.223 741 129.112 741 129.112S557.924 167.581 447 149s-96-49.5-96-49.5Z" style="fill:url(#c)"/><defs><radialGradient id="a" cx="0" cy="0" r="1" gradientUnits="userSpaceOnUse" gradientTransform="matrix(68.809 0 0 78.1099 365.326 611.015)"><stop offset="0" style="stop-color:#918b8b;stop-opacity:1"/><stop offset="1" style="stop-color:#270c00;stop-opacity:1"/></radialGradient><radialGradient id="b" cx="0" cy="0" r="1" gradientUnits="userSpaceOnUse" gradientTransform="matrix(68.809 0 0 78.1099 365.326 611.015)"><stop offset="0" style="stop-color:#918b8b;stop-opacity:1"/><stop offset="1" style="stop-color:#270c00;stop-opacity:1"/></radialGradient><linearGradient id="c" x1="0" y1="0" x2="1" y2="0" gradientUnits="userSpaceOnUse" gradientTransform="matrix(491.233 0 0 145.538 249.767 172.269)"><stop offset="0" style="stop-color:white;stop-opacity:.62"/><stop offset="1" style="stop-color:white;stop-opacity:.17"/></linearGradient></defs></svg>