<svg viewBox="0 0 2000 3539" xmlns="http://www.w3.org/2000/svg" xml:space="preserve" style="fill-rule:evenodd;clip-rule:evenodd;stroke-linecap:round;stroke-linejoin:round;stroke-miterlimit:1.5"><g transform="scale(1.85185 1.79372)"><path style="fill:none" d="M0 0h1080v1973H0z"/><clipPath id="a"><path d="M0 0h1080v1973H0z"/></clipPath><g clip-path="url(#a)"><path d="M307 245.038s-53.025 391.151-27.606 506.584C315.941 917.588 533.313 1012 533.313 1012s222.333-112.688 247.473-259.299C799.216 645.229 741 245.038 741 245.038S675.188 99.5 533.313 99.5 307 245.038 307 245.038Z" style="stroke:#000;stroke-width:3.42px" transform="matrix(.65439 0 0 .62593 194.915 -6.809)"/><path d="m491 3155-7.741 56.92S495.143 3195.56 495 3185c-.143-10.56-4-30-4-30Z" style="fill:#3f3f3f;stroke:#000;stroke-width:4px" transform="matrix(.54 0 0 .5575 254.734 0)"/><path d="M491 3196c-3.852-24.4 0-41 0-41s-13.776-34.96-73-25c-59.224 9.96-65 22-65 22s-17.339 44.51-62 71c-16.077 9.54-53.182 33-53.182 33s-31.672 36.63-11.818 62c20 25.56 88.93 35.46 110 23 71-42 140-110 155-145Z" style="fill:#e8cbba;stroke:#000;stroke-width:4px" transform="matrix(.54 0 0 .5575 254.734 0)"/><path d="M509 3219s17.051-1.44 13-19c-3-13-18-9-18-9s3.167 10.33 4 15c.828 4.64 1 13 1 13Z" style="fill:#9c9c9c;stroke:#000;stroke-width:3.53px" transform="matrix(.60894 0 0 .63553 219.987 -248.934)"/><path d="M509 3219s17.051-1.44 13-19c-3-13-18-9-18-9s3.167 10.33 4 15c.828 4.64 1 13 1 13Z" style="fill:#9c9c9c;stroke:#000;stroke-width:4.61px" transform="matrix(.50768 -.11183 .08592 .41573 -10.161 497.354)"/><path d="M491 3155s6.788 12.39 0 41c-7.792 32.84-112.032 128.51-156 145-48 18-83-22-97.182-60-10.815-28.98 0-34 0-34s-16.291 2.98-48.818 28c-13 10-35.774 33-37 50-5.665 78.58 59.231 87.48 104 83 40-4 45-14.22 45-14.22S257 3456 179 3420c-37.436-17.28-27-95-27-95s-30.211 72.26 0 103c30.211 30.74 118.453 63.24 205-27 26.565-27.7 47.166-54.48 67-77 44.784-50.85 86.469-59.46 85-105-1-31-16.816-56.49-18-64Z" style="fill:#9c9c9c;stroke:#000;stroke-width:4px" transform="matrix(.54 0 0 .5575 254.734 0)"/><ellipse cx="432" cy="3424" rx="20" ry="10" transform="matrix(.46386 -.28543 .27647 .4789 -754.18 364.234)"/><path d="M458.877 3418.61c12.142 0 13.123 12.32 13.123 18.39s-10.187 9.41-22.329 9.41c-12.142 0-21.671-3.34-21.671-9.41s18.735-18.39 30.877-18.39Z" style="fill:#9c9c9c;stroke:#000;stroke-width:4.34px" transform="matrix(.44826 -.28753 .24612 .40897 -676.852 573.189)"/><path d="M323.805 3434s37.536 10.86 60.195-4-6.228-15.17-14-21c-4-3-8-12-8-12s-6 0-20 13c-21.984 20.41-18.195 24-18.195 24Z" style="fill:#9c9c9c;stroke:#000;stroke-width:4px" transform="matrix(.54 0 0 .5575 254.868 -13.178)"/><path d="m237.818 3247 8.182 4-12.249 11s-1.295-4.51 0-9.28c1.295-4.78 4.067-5.72 4.067-5.72Z" style="fill:#383838;stroke:#000;stroke-width:4px" transform="matrix(.54 0 0 .5575 254.734 0)"/><path d="m491 3155-7.741 56.92S495.143 3195.56 495 3185c-.143-10.56-4-30-4-30Z" style="fill:#3f3f3f;stroke:#000;stroke-width:4px" transform="matrix(-.39046 -.02607 -.04231 .67562 901.19 -366.367)"/><path d="m234.861 3251.36 11.139 2.61-21.828 20.04s-2.431-11.78-1.136-16.56c1.295-4.77 11.825-6.09 11.825-6.09Z" style="fill:#383838;stroke:#000;stroke-width:4.38px" transform="matrix(-.31971 -.02134 -.04 .63853 886.553 -245.555)"/><path d="M491 3196c-3.852-24.4 0-41 0-41s-12.105-19.74-73-25c-68.272-5.9-105.217 12.21-105.217 12.21s5.7 48.27-38.961 74.76c-16.076 9.54-54.364 37.53-54.364 37.53s-92.557 26.14-19.952 63.19C226.799 3331.62 305.7 3353.84 336 3341c75.958-32.18 140-110 155-145Z" style="fill:#e8cbba;stroke:#000;stroke-width:4px" transform="matrix(-.39046 -.02607 -.04231 .67562 901.19 -366.367)"/><path d="M509 3219s17.051-1.44 13-19c-3-13-18-9-18-9s3.167 10.33 4 15c.828 4.64 1 13 1 13Z" style="fill:#9c9c9c;stroke:#000;stroke-width:4.06px" transform="matrix(-.44031 -.0294 -.03931 .62765 916.73 -211.65)"/><path d="M509 3219s17.051-1.44 13-19c-3-13-18-9-18-9s3.167 10.33 4 15c.828 4.64 1 13 1 13Z" style="fill:#9c9c9c;stroke:#000;stroke-width:5.46px" transform="matrix(-.3586 -.16003 -.09368 .49966 1054.98 249.148)"/><path d="M491 3155s6.788 12.39 0 41c-7.792 32.84-109.715 113.25-151.905 131.31-30.77 13.18-67.632 8.42-109.829-4.58-88.329-27.2-28.611-67.06-28.611-67.06s-8.258 4.94-33.1 27.18c-11.766 10.53-39.093 29.97-41.403 46.93-4.615 33.89 18.309 60.42 48.79 71.03 30.863 10.75 69.456 5.34 91.98 3.08 40-4 51.063-13.62 51.063-13.62s-55.436 46.74-144.646 25.33c-69.41-16.65-47.187-85.82-47.187-85.82s-49.315 64.77 23.95 98.13c35.785 16.29 159.603 23.75 220.232-26.58 47.776-39.65 43.745-62.2 63.58-84.72 44.784-50.85 76.555-52.07 75.086-97.61-1-31-16.816-56.49-18-64Z" style="fill:#9c9c9c;stroke:#000;stroke-width:4px" transform="matrix(-.39046 -.02607 -.04231 .67562 901.19 -366.367)"/><ellipse cx="432" cy="3424" rx="20" ry="10" transform="matrix(-.28708 -.39078 -.2754 .54786 1709.625 189.381)"/><path d="M458.877 3418.61c12.142 0 13.123 12.32 13.123 18.39s-10.187 9.41-22.329 9.41c-12.142 0-21.671-3.34-21.671-9.41s18.735-18.39 30.877-18.39Z" style="fill:#9c9c9c;stroke:#000;stroke-width:5.84px" transform="matrix(-.24123 -.41514 -.28109 .44311 1761.42 547.747)"/><path d="M331.537 3424.97s47.727 14.86 70.385 0c22.659-14.86-14.309-8.08-22.081-13.91-4-3-16.561-14.82-16.561-14.82s-6.543 1.05-21.28 13.76c-14.603 12.59-10.463 14.97-10.463 14.97Z" style="fill:#9c9c9c;stroke:#000;stroke-width:3.57px" transform="matrix(-.42649 -.1594 -.24682 .70392 1600.744 -445.876)"/><path d="M874.417 1686s-180.307 44-299.827 44c-162.074 0-281.59-44-281.59-44s-61.342 54.31-44.138 358S327 2531 327 2531s-27.538 126.4-8 271 51.152 344 51.152 344 21.083 50.37 89.848 50c68.765-.37 80-56 80-56s7.837-268.91 5.608-340c-2.23-71.09-9.03-270-9.03-270s46.565-220.58 47.655-285c1.09-64.42.484-229 .484-229l.336 61s-.606 103.58.484 168c1.09 64.41 47.655 285 47.655 285s-6.8 198.91-9.03 270c-2.229 71.09 5.608 340 5.608 340s11.235 55.62 80 56c68.764.37 89.848-50 89.848-50s31.613-199.4 51.152-344c19.538-144.6-8-271-8-271s60.934-183.31 78.138-487c17.204-303.69-44.138-358-44.138-358" style="fill:#3d3d3d;stroke:#000;stroke-width:4.22px" transform="matrix(.4815 0 0 .5575 264.796 0)"/><path d="M3906.78 1757.73s-44.68 59.29-93.44 70.05c-48.76 10.75-84.52-6.49-84.52-6.49" style="fill:none;stroke:#000;stroke-width:5.25px" transform="matrix(.52822 0 0 .25194 -1580.364 537.101)"/><path d="M3906.78 1757.73s-44.68 59.29-93.44 70.05c-48.76 10.75-84.52-6.49-84.52-6.49" style="fill:none;stroke:#000;stroke-width:5.25px" transform="matrix(-.52822 0 0 .25194 2672.562 532.481)"/><path d="M328.38 1864.13c-6-10-14.331-14.73-14.38-36.13-.03-13.04-.992-48.91 5-50 0 0 13.37 2.75 26.021 6.19M345.021 1784.19c10.555 2.86 20.609 6.2 21.979 8.81 3.013 5.74-3.573 53.8-8 62-4.427 8.2-8.106 16.03-18.5 17-2.37.22 2.657 2.59 0 0" style="fill:none;stroke:#22a9d9;stroke-width:10.87px" transform="matrix(.34788 0 0 .4555 315.471 156.54)"/><path d="M1459.14 1936c-8.91 0-16.14-12.77-16.14-28.5s7.23-28.5 16.14-28.5" style="fill:none;stroke:#bebebe;stroke-width:4.39px" transform="matrix(.5142 0 0 .48415 -317.857 106.287)"/><path d="M337 1848c-8.351 1.39-27 28-27 28l7 35 23.115 12 9.885 56 11 10 10-14-7-6 3.763-6-5.763-5-6.771-37 13.534-18-4.763-34s-21-22-27-21Z" style="fill:#ffe000;stroke:#000;stroke-width:5.96px" transform="matrix(.3313 0 0 .4032 319.973 292.91)"/><path d="M1459.14 1879c8.91 0 16.15 12.77 16.15 28.5s-7.24 28.5-16.15 28.5" style="fill:none;stroke:#bebebe;stroke-width:4.39px" transform="matrix(.5142 0 0 .48415 -317.857 106.287)"/><path d="m335.016 1735-2.302 47h14l.318-45-12.016-2Z" style="stroke:#000;stroke-width:4.33px" transform="matrix(.54 0 0 .46854 249.178 185.522)"/><path d="M1654.4 1698.3s-147.47-31.67-174.91-41.99c-9.53-3.59-13.91-25.18 11.16-25.7 37.93-.79 175.91 45.31 175.91 45.31" style="fill:#919191;stroke:#000;stroke-width:2.67px" transform="matrix(.53996 .0065 -.0063 .55746 6.41 -32.588)"/><path d="M125 1150s-18.289 135.34-15.448 230.07c.53 17.67-1.187 62.68-1.187 62.68s-38.488 38.37-64.131 58.93c-36.107 28.94-121.187 127.37-121.187 127.37s-35.721-8.02-68.861-2.5c-26.399 4.39-35.664 20.65-43.912 31.73-16.02 21.51-12.217 33.01-12.217 33.01s21.404 32.18 27.751 24.38c6.462-7.93 4.01-31.9 4.01-31.9s36.614-10.68 48.775-7.67c15.172 3.75 6.692 27.81 6.692 27.81s-63.119 3.77-56.151 15.7c2.383 4.08 24.399 10.18 24.399 10.18s65.189 2.48 84.943-9.75c17.434-10.8 41.012-49.85 41.012-49.85s69.558-41.17 125.237-82.82c54.331-40.65 83.535-80.09 89.973-87.72 23.628-27.99 33.434-78.23 33.434-78.23s14.001-71.45 18.198-111.12C250.486 1271.02 263 1185 263 1185l-138-35Z" style="fill:#e8cbba;stroke:#000;stroke-width:4.22px" transform="matrix(-.52528 0 0 .51472 823.413 49.197)"/><path d="m1686.01 1680.74 116.31 37.05s33.6-4.91 28.5 15.61c-4.9 19.66-32.03.37-32.03.37l-114.88-26.52s-37.99-4.41-38.95-17.84c-1.49-20.92 41.05-8.67 41.05-8.67Z" style="fill:#919191;stroke:#000;stroke-width:2.67px" transform="matrix(.53996 .0065 -.0063 .55746 6.41 -32.588)"/><path d="M533.313 1789c81.015 0 296.313-65 296.313-65s2-21-42-136c-54.573-142.63-1-430-1-430l1 72s29.26 15.38 89.687 6c63.371-9.84 69.313-53 69.313-53v1s-21.408-167.5-84.313-227c-36.279-34.317-87.488-55.674-152.687-74-90.591-25.463-176.313-108-176.313-108S447.591 857.537 357 883c-65.198 18.326-116.408 39.683-152.687 74C141.409 1016.5 120 1184 120 1184v-1s9.288 41.32 69.313 53c60.547 11.79 89.687-6 89.687-6l1-72s56.573 287.37 2 430c-44 115-42 136-42 136s212.298 65 293.313 65" style="fill:#a584ff;stroke:#000;stroke-width:4px" transform="matrix(.54 0 0 .5575 254.734 0)"/><path d="M1654.4 1698.3s-147.47-31.67-174.91-41.99c-9.53-3.59-13.91-25.18 11.16-25.7 37.93-.79 175.91 45.31 175.91 45.31" style="fill:#919191;stroke:#000;stroke-width:2.67px" transform="matrix(.29925 .46407 -.4495 .30895 704.236 -310.546)"/><path d="M115.046 1201.42s-8.335 83.92-5.494 178.65c.53 17.67-1.187 62.68-1.187 62.68s-38.488 38.37-64.131 58.93c-36.107 28.94-110.711 120.86-110.711 120.86s-22.361-9.58-50.699 12.52c-21.481 16.75-38.11 25.78-42.254 39.17-3.261 10.53-7.812 21.74 1.861 23.02 7.778 1.03 18.042-10.54 18.042-10.54s10.597-17.05 22.759-14.04c15.172 3.75 8.021 23.13 8.021 23.13s-3.873 9.72-16.103 10.46c-19.708 1.17-31.036-15.05-39.039-6.61-12.478 13.17 30.762 47.22 30.762 47.22s50.651-10.56 70.405-22.8c17.434-10.79 34.588-49.36 34.588-49.36s77.18-45.69 132.859-87.34c54.331-40.65 83.535-80.09 89.973-87.72 23.628-27.99 33.434-78.23 33.434-78.23s16.106-72.2 20.303-111.86c4.157-39.29 11.136-92.74 11.136-92.74s-33.723 20.93-78.946 11.98c-52.625-10.42-65.579-27.38-65.579-27.38Z" style="fill:#e8cbba;stroke:#000;stroke-width:4.22px" transform="matrix(-.49667 -.17655 -.1623 .48668 650.979 123.902)"/><path d="m1686.01 1680.74 116.31 37.05s33.6-4.91 28.5 15.61c-4.9 19.66-32.03.37-32.03.37l-114.88-26.52s-62.46-13.45-64.4-22.2c-1.61-7.26 5.61-20.81 16.14-18.31 17.4 4.12 50.36 14 50.36 14Z" style="fill:#919191;stroke:#000;stroke-width:2.67px" transform="matrix(.29925 .46407 -.4495 .30895 704.236 -310.546)"/><path d="M448 1210c-7.5-16-7-75 47-90 3.883-1.08 1.66-16.11 5-17 5.484-1.45 16.09 11.43 20.126 10.19 14.22-4.36 13.473-16.19 19.874-16.19 6.401 0 5.507 12.15 18.534 16.17 3.751 1.16 13.419-11.42 18.466-10.17 4.273 1.06 3.815 15.6 9 17 52 14 56 71 49 90-6.133 16.65-28.471 30-93.898 30-65.427 0-85.602-14-93.102-30Z" style="fill:#fff;stroke:#000;stroke-width:3.21px" transform="matrix(.41904 0 0 .49237 319.592 89.286)"/><path d="m522 1122-4.585 16" style="fill:none;stroke:#d6b86e;stroke-width:3.02px" transform="matrix(.47692 0 0 .49237 288.8 89.286)"/><path d="m522 1122-4.585 16" style="fill:none;stroke:#d6b86e;stroke-width:3.02px" transform="matrix(-.47692 0 0 .49237 801.484 89.286)"/><path d="m522 1122-4.585 16" style="fill:none;stroke:#d6b86e;stroke-width:3.02px" transform="matrix(.45846 -.13564 .13139 .47332 158.509 181.312)"/><path d="M522.2 1152s-9.2-6-20.2-2c-7.75 2.82-12 10-12 10" style="fill:none;stroke:#000;stroke-width:3.42px" transform="matrix(.4078 -.00684 .00707 .44903 314.493 146.686)"/><path d="M522.2 1152s-9.2-6-20.2-2c-7.75 2.82-12 10-12 10" style="fill:none;stroke:#000;stroke-width:3.42px" transform="matrix(-.4078 -.00684 -.00707 .44903 777.944 146.686)"/><ellipse cx="485" cy="1193.5" rx="11" ry="6.5" style="fill:#dfa1ca" transform="matrix(.51886 .03955 -.03512 .49104 315.002 74.874)"/><ellipse cx="485" cy="1193.5" rx="11" ry="6.5" style="fill:#dfa1ca" transform="matrix(-.51254 .09226 .08191 .48506 718.797 56.45)"/><path d="M545.807 679.134c3.988 0 10.1-4.193 12.157-1.214 2.057 2.978-2.112 10.324-12.157 10.324s-12.846-9.113-11.063-10.628c1.783-1.515 6.917 1.518 11.063 1.518Z"/><path d="M489 1157.27s2.394-6.62 11-9.27c13-4 19 6 19 6" style="fill:none;stroke:#000;stroke-width:2.37px" transform="matrix(.496 0 0 .72493 280.45 -165.192)"/><path d="M489 1157.27s2.394-6.62 11-9.27c13-4 19 6 19 6" style="fill:none;stroke:#000;stroke-width:2.37px" transform="matrix(-.496 0 0 .72493 812.267 -165.192)"/><path d="M438 727h200s-25.413 124.296 11 151c26.329 19.308-40.812 152.35-109 152.35S394.253 901.304 422 880c37.952-29.14 16-153 16-153Z" style="fill:#e8cbba;stroke:#000;stroke-width:4px" transform="matrix(.54 0 0 .5575 254.734 0)"/><path d="M542 210c169.99 0 302.563 118.71 302.563 310.5 0 109.814-53.325 244.799-123.913 308.5-52.693 47.553-105.992 85-178.65 85-35 0-118.079-37.873-170.65-85-71.039-63.681-131.913-198.278-131.913-308.5C239.437 328.71 372.01 210 542 210Z" style="fill:#e8cbba;stroke:#000;stroke-width:4.16px" transform="matrix(.4966 0 0 .5575 273.562 -61.604)"/><path d="M482.873 741h114.254S576.816 816 540 816s-57.127-75-57.127-75Z" style="fill:#fff;stroke:#000;stroke-width:4px" transform="matrix(.54 0 0 .5575 251.123 -49.618)"/><path d="M519 599.5s-4 28.5-12 42.5c-7.576 13.257-13.061 27.879-9.313 36 6 13 30 17 30 17" style="fill:none;stroke:#000;stroke-width:4px" transform="matrix(.54 0 0 .5575 251.123 -51.848)"/><path d="M279 557.5s15.676-18.177 54-23.5c72-10 101 23.5 101 23.5" style="fill:none;stroke:#000;stroke-width:10px" transform="matrix(.54 0 0 .5575 274.952 -67.075)"/><path d="M330 591s24.79-21.361 70.5-18c45.71 3.361 70.5 48 70.5 48" style="fill:none;stroke:#000;stroke-width:10px" transform="matrix(.54 0 0 .5575 254.972 -67.075)"/><path d="M357 635s15.285 13.952 43.5 15 46.5-10 46.5-10" style="fill:none;stroke:#000;stroke-width:4px" transform="matrix(.54 0 0 .5575 254.972 -67.075)"/><path d="M404.5 572.641c16.103 2.404 31.228 17.418 29.5 38.715-2 24.644-13.219 38.763-29.5 38.714C381 650 370.319 636.595 366 615c-1-5-6-49 38.5-42.359Z" style="fill:url(#b);stroke:#000;stroke-width:3.72px" transform="matrix(.61998 0 0 .5575 223.18 -67.075)"/><circle cx="389.865" cy="596.865" r="9.865" style="fill:#fff" transform="matrix(.61998 0 0 .5575 220.08 -67.1)"/><circle cx="403.888" cy="615.843" r="9.157" transform="matrix(.61998 0 0 .5575 220.603 -69.305)"/><path d="M379 635s-5.254-10.683 5.865-10c11.119.683 16.663 7.933 24.023 1 7.359-6.933 5.239-13.495 14.112-14.985 12-2.015 11.613 31.797-8 36.52C384 655 379 635 379 635Z" style="fill:#fff;fill-opacity:.41" transform="matrix(.61998 0 0 .5575 222.1 -67.075)"/><path d="m330 592-11-10s3.443-.572 27.097-6.229c31.935-7.637 62.903-3.13 62.903-3.13s-33.573-4.198-50.323 3.13C342.677 582.771 330 592 330 592Z" style="stroke:#000;stroke-width:3.84px" transform="matrix(.558 0 0 .58398 247.61 -82.195)"/><path d="M357 539s57.122-8.977 70-6.864c9.785 1.606 48 15.682 48 15.682s2.99 13.665-3 12.682c-5.922-.972-29.942-16.244-55-20.5-29.431-4.998-60-1-60-1Z" style="stroke:#000;stroke-width:4px" transform="matrix(.54 0 0 .5575 254.972 -67.075)"/><path d="M279 557.5s15.676-18.177 54-23.5c72-10 101 23.5 101 23.5" style="fill:none;stroke:#000;stroke-width:10px" transform="matrix(-.54 0 0 .5575 810.497 -67.075)"/><path d="M330 591s24.79-21.361 70.5-18c45.71 3.361 70.5 48 70.5 48" style="fill:none;stroke:#000;stroke-width:10px" transform="matrix(-.54 0 0 .5575 830.477 -67.075)"/><path d="M357 635s15.285 13.952 43.5 15 46.5-10 46.5-10" style="fill:none;stroke:#000;stroke-width:4px" transform="matrix(-.54 0 0 .5575 830.477 -67.075)"/><path d="M404.5 572.641c16.103 2.404 31.228 17.418 29.5 38.715-2 24.644-13.219 38.763-29.5 38.714C381 650 370.319 636.595 366 615c-1-5-6-49 38.5-42.359Z" style="fill:url(#c);stroke:#000;stroke-width:3.72px" transform="matrix(-.61998 0 0 .5575 861.93 -67.075)"/><circle cx="389.865" cy="596.865" r="9.865" style="fill:#fff" transform="matrix(.61998 0 0 .5575 360.948 -67.1)"/><circle cx="403.888" cy="615.843" r="9.157" transform="matrix(.61998 0 0 .5575 363.33 -69.305)"/><path d="M379 635s-5.254-10.683 5.865-10c11.119.683 16.663 7.933 24.023 1 7.359-6.933 5.239-13.495 14.112-14.985 12-2.015 11.613 31.797-8 36.52C384 655 379 635 379 635Z" style="fill:#fff;fill-opacity:.4" transform="matrix(.61998 0 0 .5575 364.048 -67.075)"/><path d="m330 592-11-10s3.443-.572 27.097-6.229c31.935-7.637 62.903-3.13 62.903-3.13s-33.573-4.198-50.323 3.13C342.677 582.771 330 592 330 592Z" style="stroke:#000;stroke-width:3.84px" transform="matrix(-.558 0 0 .58398 837.839 -82.195)"/><path d="M357 539s57.122-8.977 70-6.864c9.785 1.606 48 15.682 48 15.682s2.99 13.665-3 12.682c-5.922-.972-29.942-16.244-55-20.5-29.431-4.998-60-1-60-1Z" style="stroke:#000;stroke-width:4px" transform="matrix(-.54 0 0 .5575 830.477 -67.075)"/><path d="M465 310s-74.051 19.427-116 109c-41.949 89.573-81.227 232.598-59 339 22.227 106.402 71 181 71 181s-48-17-98-97c-10.808-17.293-29.091-78.044-29.091-78.044s45.598 163.985 66.552 206.846C322.461 1015.8 377 1062 377 1062s-91.487-55.89-127.469-133C158.531 734 154 251 352 210c41.418-8.576 69 0 69 0s30.382-28.355 61.873-39C545 150 734.5 178 805 291c78.301 125.504 102.038 430.937 89 525-14 101-60.5 117-60.5 117s24.388-39.42 19.5-102c-4.888-62.58-19.5-68-19.5-68s-12.87 189.098-46.5 237c-33.233 47.34-63 61.05-63 61.05s38.623-66.517 39-138.05c.196-37.213 26.925-168.931 23.002-296.737-3.618-117.871-35.964-232.425-78.455-266.207C618.982 289.644 465 310 465 310Z" style="fill:#423836;stroke:#000;stroke-width:3.89px" transform="matrix(.52532 0 0 .60134 259.42 -73.316)"/><path d="M474.58 298.145s77.669 91.521 151.576 141.369c71.806 48.431 183.594 79.674 183.594 79.674s-91.198-50.773-103.546-62.483c-15.25-14.461-44.351-65.453-44.351-65.453s14.968 34.434 60.9 56.366c34.057 16.262 88.898 34.112 88.898 34.112s-36.001-41.706-47.05-52.359c-50.564-48.75-88.485-241.69-250.459-220.685-93.475 12.123-39.562 89.459-39.562 89.459Z" style="stroke:#000;stroke-width:4px" transform="matrix(.54 0 0 .5575 251.123 -51.848)"/><path d="M508.168 69.84s-38.729 23.624-57.64 65.984c-5.69 12.749-18.87 50.264-24.86 70.837-10.386 35.666-29.956 69.25-29.956 69.25s30.986-47.439 41.244-64.526c10.259-17.088-32.311 115.592-32.311 115.592s52.07-127.433 60.565-140.94c16.508-26.25 35.845-50.448 42.282-71.68 7.5-24.733.676-44.516.676-44.516Z"/><path d="M478.712 55.403c-13.621 7.543-35.844 32.044-62.224 69.91-11.093 15.922-22.029 28.06-39.966 97.761-3.728 14.49-10.767 78.661-8.374 113.894 1.131 16.66 2.561 49.064 6.711 75.45 5.25 33.382 13.126 54.387 18.878 79.077 0 0-12.542-70.159-14.54-136.03-1.636-53.976 6.579-105.014 11.2-112.71 3.432-5.72-1.385 6.66-1.593 35.432-.85 117.554 23.227 156.694 23.227 156.694s-17.02-98.737-12.277-152.81c4.539-51.74 19.671-93.573 22.001-101.072 25.097-80.798 72.137-79.15 76.46-100.946 3.308-16.682-10.581-29.591-19.503-24.65Z"/><path d="M272.085 238.04c-35.191 62.322-63.867 179.71-64.953 252.054a462263.28 462263.28 0 0 0-3.035 207.727s-17.566-98.418-6.303-229.717c6.155-71.749 33.154-187.939 55.366-233.876 81.021-167.557 164.246-136.08 164.246-136.08s-91.308 44.238-145.321 139.892Z" style="fill-opacity:.72" transform="matrix(.54 0 0 .5575 254.734 0)"/><path d="M489.812 55.949s35.02-30.076 86.274-11.01c69.16 25.727 122.098 184.17 132.602 234.454 10.504 50.284 8.091 71.412 13.226 91.417 11.836 46.099 13.719 122.672 13.719 122.672s-20.111-125.987-22.913-146.067c-2.756-19.748-18.032-156.138-97.467-261.583-20.788-27.593-51.112-31.114-64.803-31.455-13.69-.342-51.708 13.259-51.708 13.259l-8.93-11.687Z"/><path d="M535.002 40.245S649.95 17.887 689.28 161.758c39.33 143.87 38.788 263.637 28.59 285.679-3.423 7.395-11.477 18.89-11.477 18.89s11.894-50.928 9.973-103.07c-2.272-61.684-15.958-137.379-23.627-157.907-14.151-37.881-35.074-106.46-78.01-132.426-42.937-25.966-69.696-23.692-69.696-23.692l-10.031-8.987Z"/><path d="M661.054 158.554s8.342 43.177 12.843 100.664c5.056 64.57 6.072 147.045.695 203.829-5.62 59.33-45.167 71.082-45.167 71.082s34.24-2.48 49.148-43.279c14.908-40.799-1-294.963-1-294.963l-16.519-37.333Z"/><path d="m678.468 211.548 39.46 184.933-.261 19.64-42.631-189.317 3.432-15.256Z"/><path d="M351 99.5s-43 9.5-83 73.5c-26.073 41.716-17.937 43-17.937 43s115.417-14.684 208.254-12.231C551.154 206.223 741 129.112 741 129.112S557.924 167.581 447 149s-96-49.5-96-49.5Z" style="fill:url(#d)" transform="matrix(.54 0 0 .5575 254.734 0)"/><path d="M1682.96 1194.59c0 2.25-14.09 4.08-31.45 4.08-17.35 0-31.44-1.83-31.44-4.08v-46.1h62.69l.2 46.1Z" style="fill:#9a9a9a;stroke:#000;stroke-width:1.07px" transform="matrix(4.4701 0 0 5.13086 -7124.453 -4628.892)"/><ellipse cx="1651.51" cy="1194.59" rx="31.446" ry="4.082" style="fill:#fff;stroke:#000;stroke-width:1.07px" transform="matrix(4.4701 0 0 5.13086 -7124.919 -4863.143)"/><path style="fill:#f84b60;stroke:#000;stroke-width:.97px" d="M1722.89 1198.38h49.698v21.095h-49.698z" transform="matrix(5.65771 0 0 4.8078 -9108.953 -4471.082)"/><path d="m1762.29 1199.7.06 19.47" style="fill:none;stroke:#000;stroke-width:1.08px" transform="matrix(4.65686 0 0 4.8078 -7334.829 -4471.082)"/><path d="m1762.29 1199.7.06 19.47" style="fill:none;stroke:#000;stroke-width:1.08px" transform="matrix(4.65686 0 0 4.8078 -7521.383 -4470.94)"/><path d="M1741.13 1219.59v17.86" style="fill:none;stroke:#000;stroke-width:1.08px" transform="matrix(4.65686 0 0 4.8078 -7334.829 -4471.082)"/><path d="M1687.99 1188.5h28.4" style="fill:none;stroke:#000;stroke-width:1.11px" transform="matrix(4.39335 0 0 4.8078 -6900.366 -4498.089)"/><path d="M1702.41 1188.95v29.76" style="fill:none;stroke:#000;stroke-width:.77px" transform="matrix(4.65686 0 0 8.2028 -7346.074 -8536.917)"/><path d="m1752.82 1194.73-6.94-25.18.03.14c-.69-2.56-10-2.3-20.79.58-10.78 2.88-18.99 7.3-18.3 9.86l.01.32 7.41 24.53" style="fill:#35d419;stroke:#000;stroke-width:1.08px" transform="matrix(4.65686 0 0 4.8078 -7346.074 -4500.422)"/><path d="m1734.17 1168.02 2.36 7.75" style="fill:none;stroke:#000;stroke-width:1.18px" transform="matrix(4.61263 -.15012 -.14541 4.31424 -7098.282 -3659.426)"/><path d="m1715.37 1174.01 2.24 6.65" style="fill:none;stroke:#000;stroke-width:1.08px" transform="matrix(4.65686 0 0 4.8078 -7346.074 -4500.422)"/><ellipse cx="1734.54" cy="1213.14" rx="21.25" ry="7.505" style="fill:#fff;stroke:#000;stroke-width:1.33px" transform="matrix(4.2831 -1.18172 .7695 2.9727 -7637.128 -288.484)"/><path d="M1713.29 1213.14c0-4.14 9.52-7.5 21.25-7.5s21.25 3.36 21.25 7.5" style="fill:none;stroke:#000;stroke-width:1.33px" transform="matrix(4.2831 -1.18172 .7695 2.9727 -7660.691 -370.574)"/><path d="m1752.82 1194.73-6.94-25.18.03.14c-.69-2.56-10-2.3-20.79.58-10.78 2.88-18.99 7.3-18.3 9.86l.01.32 7.41 24.53" style="fill:#ffa900;stroke:#000;stroke-width:.9px" transform="matrix(5.0275 2.5023 -2.42374 5.19044 -5393.976 -9269.8)"/><path d="m1734.17 1168.02 2.36 7.75" style="fill:none;stroke:#000;stroke-width:.99px" transform="matrix(5.05516 2.31825 -2.3328 4.58536 -5536.519 -8236.624)"/><path d="m1734.17 1168.02 2.36 7.75" style="fill:none;stroke:#000;stroke-width:1px" transform="matrix(5.05848 2.29613 -2.32186 4.51264 -5615.71 -8129.265)"/><path d="m1715.37 1174.01 2.24 6.65" style="fill:none;stroke:#000;stroke-width:.9px" transform="matrix(5.0275 2.5023 -2.42374 5.19044 -5399.197 -9268.97)"/><ellipse cx="1734.54" cy="1213.14" rx="21.25" ry="7.505" style="fill:#fff;stroke:#000;stroke-width:1.11px" transform="matrix(5.21973 1.02569 -.66788 3.62278 -7831.548 -4879.028)"/><path d="M1713.29 1213.14c0-4.14 9.52-7.5 21.25-7.5s21.25 3.36 21.25 7.5" style="fill:none;stroke:#000;stroke-width:1.11px" transform="matrix(5.21973 1.02569 -.66788 3.62278 -7815.604 -4980.314)"/><path d="m1627.63 1287.53 12.8-5.87" style="fill:none;stroke:#000;stroke-width:1.11px" transform="matrix(4.5435 0 0 4.69076 -7210.575 -4265.742)"/><path d="m1615.01 1281.82 12.72 6.38" style="fill:none;stroke:#000;stroke-width:1.25px" transform="matrix(4.08799 -.23579 -.22839 4.57255 -6175.596 -3734.697)"/><path d="m1626.99 1271.26 25.94 21.21M1627 1271l-41 36M1627 1158.34V1297M1639.5 1115v6M1639.5 1136.45v9.75L1597 1186" style="fill:none;stroke:#000;stroke-width:1.11px" transform="matrix(4.5435 0 0 4.69076 -7206.032 -4265.742)"/><ellipse cx="1638" cy="1131" rx="43" ry="14" style="fill:#ebff84;stroke:#000;stroke-width:1.11px" transform="matrix(4.48453 .75336 -.7297 4.62987 -6277.298 -5405.312)"/><path d="M1778.48 1136.45V1297" style="fill:none;stroke:#000;stroke-width:1.08px" transform="matrix(4.65686 0 0 4.8078 -7377.645 -4428.957)"/><path d="m1627.63 1287.53 12.8-5.87" style="fill:none;stroke:#000;stroke-width:1.08px" transform="matrix(4.65686 0 0 4.8078 -6679.116 -4428.044)"/><path d="m1615.01 1281.82 12.72 6.38M1626.99 1271.26l25.94 21.21M1627 1271l-41 36" style="fill:none;stroke:#000;stroke-width:1.08px" transform="matrix(4.65686 0 0 4.8078 -6674.459 -4428.044)"/><path d="M1639.5 1115v7.92" style="fill:none;stroke:#000;stroke-width:1.08px" transform="matrix(4.65686 0 0 4.8078 -6731.226 -4416.942)"/><ellipse cx="1774.5" cy="1144.17" rx="33.5" ry="7.725" style="fill:#ebff84;stroke:#000;stroke-width:.94px" transform="matrix(5.07034 -.41047 .44061 5.80116 -8596.95 -4874.303)"/><path d="m1654.51 1294.45-13.29 41.87" style="fill:none;stroke:#000;stroke-width:.95px" transform="matrix(5.30184 0 0 5.47367 -8446.876 -5327.59)"/><path d="m1654.51 1294.45-13.29 41.87" style="fill:none;stroke:#000;stroke-width:.95px" transform="matrix(-5.30184 0 0 5.47367 9605.342 -5331.776)"/><path d="M1653.27 1293.52c0-41.5 21.98-60.25 49.13-60.25 27.16 0 49.33 14.81 49.33 61.56" style="fill:#0060ff;stroke:#000;stroke-width:.95px" transform="matrix(5.30184 0 0 5.47367 -8447.565 -5403.529)"/><ellipse cx="1702.4" cy="1283.03" rx="49.202" ry="49.763" style="fill:#fff;stroke:#000;stroke-width:.95px" transform="matrix(5.30184 0 0 5.47367 -8446.876 -5327.59)"/><path d="M1762.38 1538.67s27.06 9.61 34.67 60.05c3.2 21.22-8.57 50.87-8.57 50.87" style="fill:none;stroke:#000;stroke-width:6.05px" transform="matrix(.34251 0 0 .38297 348.053 287.904)"/><path d="M1762.38 1538.67s27.06 9.61 34.67 60.05c3.2 21.22-8.57 50.87-8.57 50.87" style="fill:none;stroke:#000;stroke-width:6.05px" transform="matrix(.34251 0 0 .38297 358.913 291.509)"/><path d="M1762.38 1538.67s27.06 9.61 34.67 60.05c3.2 21.22-8.57 50.87-8.57 50.87" style="fill:none;stroke:#000;stroke-width:6.81px" transform="matrix(.2786 .2057 -.16829 .24295 259.692 280.784)"/><path d="M1762.38 1538.67s27.06 9.61 34.67 60.05c3.2 21.22-8.57 50.87-8.57 50.87" style="fill:none;stroke:#000;stroke-width:6.81px" transform="matrix(.2786 .2057 -.16829 .24295 263.162 291.823)"/></g></g><defs><radialGradient id="b" cx="0" cy="0" r="1" gradientUnits="userSpaceOnUse" gradientTransform="matrix(68.809 0 0 78.1099 365.326 611.015)"><stop offset="0" style="stop-color:#918b8b;stop-opacity:1"/><stop offset="1" style="stop-color:#270c00;stop-opacity:1"/></radialGradient><radialGradient id="c" cx="0" cy="0" r="1" gradientUnits="userSpaceOnUse" gradientTransform="matrix(68.809 0 0 78.1099 365.326 611.015)"><stop offset="0" style="stop-color:#918b8b;stop-opacity:1"/><stop offset="1" style="stop-color:#270c00;stop-opacity:1"/></radialGradient><linearGradient id="d" x1="0" y1="0" x2="1" y2="0" gradientUnits="userSpaceOnUse" gradientTransform="matrix(491.233 0 0 145.538 249.767 172.269)"><stop offset="0" style="stop-color:white;stop-opacity:.62"/><stop offset="1" style="stop-color:white;stop-opacity:.17"/></linearGradient></defs></svg>