<svg viewBox="0 0 1595 3539" xmlns="http://www.w3.org/2000/svg" xml:space="preserve" style="fill-rule:evenodd;clip-rule:evenodd;stroke-linecap:round;stroke-linejoin:round;stroke-miterlimit:1.5"><g transform="scale(1.47685 1.79372)"><path style="fill:none" d="M0 0h1080v1973H0z"/><clipPath id="a"><path d="M0 0h1080v1973H0z"/></clipPath><g clip-path="url(#a)"><path d="M307 245.038c.837-1.65-16.714 139.484-51.42 244.278-23.586 71.22-23.392 140.693-11.505 200.373 3.865 19.404-6.254 65.45-3.301 78.863C277.321 934.518 533.313 1012 533.313 1012s258.109-113.767 283.25-260.378c5.214-30.405-11.494-80.204-19.603-141.653-8.278-62.734 9.017-111.014-3.301-173.157C775.395 344.668 741 245.038 741 245.038S675.188 99.5 533.313 99.5 307 245.038 307 245.038Z" style="fill:#7d5e4d;stroke:#000;stroke-width:3.36px" transform="matrix(.82055 0 0 .65037 107.682 -7.01)"/><path d="M426.26 808.5S321.417 834.689 389 1256c67.583 421.31-80.957 531-80.957 531L137 1936l-62.177-87s198.692-164.27 233.22-257c34.528-92.73-33.617-189.85-41.022-293-7.405-103.15-13.588-335.566 41.022-417 54.61-81.434 118.217-73.5 118.217-73.5Z" style="fill:#a20000;stroke:#000;stroke-width:1px" transform="matrix(-.6196 .22486 .2731 .51014 601.582 -61.813)"/><path d="M395 790.681s-9.15 16.921-5 46.319c4.15 29.398-17.603 27.909-10 47 7.603 19.091 101.961 62.657 160 65 58.039 2.343 169.96-32.24 174-55 4.04-22.76-1.143-18.738 0-40s20.647-61.482-8-63.319c-28.647-1.837-26.673 75.529-164.737 63.319-138.064-12.21-88.265-75.416-146.263-63.319Z" style="fill:#692727;stroke:#000;stroke-width:1.04px" transform="matrix(.66146 .03416 .03989 -.52365 147.141 890.347)"/><path d="M2856 2953c-361 0-445.28-159.8-431.31-250 4.45-28.78 130.1-178.06 154.33-413 51.71-501.34 25.64-1283.16 74.98-1346 72.47-92.284 106.51-170 202-170s129.62 81.166 159 110c29.38 28.834 56.49 46.462 71 71 10.23 17.302.45 834.94 59.52 1341 24.7 211.64 153.61 391.12 153.48 399-.43 26.72-52.98 258-443 258Z" style="stroke:#000;stroke-width:2px" transform="matrix(.67712 0 0 .5575 -1393.84 0)"/><path d="m491 3155-7.741 56.92S495.143 3195.56 495 3185c-.143-10.56-4-30-4-30Z" style="fill:#3f3f3f;stroke:#000;stroke-width:4px" transform="matrix(.67712 0 0 .5575 174.357 0)"/><path d="M491 3196c-3.852-24.4 0-41 0-41s-13.776-34.96-73-25c-59.224 9.96-65 22-65 22s-17.339 44.51-62 71c-16.077 9.54-53.182 33-53.182 33s-31.672 36.63-11.818 62c20 25.56 88.93 35.46 110 23 71-42 140-110 155-145Z" style="fill:#ffe9ee;stroke:#000;stroke-width:4px" transform="matrix(.67712 0 0 .5575 174.357 0)"/><path d="M491 3155s6.788 12.39 0 41c-7.792 32.84-112.032 128.51-156 145-48 18-83-22-97.182-60-10.815-28.98 0-34 0-34s-16.291 2.98-48.818 28c-13 10-30.898 34.09-37 50-10.311 26.89-30.211 72.26 0 103 30.211 30.74 118.453 63.24 205-27 26.565-27.7 47.166-54.48 67-77 44.784-50.85 86.469-59.46 85-105-1-31-16.816-56.49-18-64Z" style="fill:#232323;stroke:#000;stroke-width:4px" transform="matrix(.67712 0 0 .5575 174.357 0)"/><path d="m237.818 3247 8.182 4-12.249 11s-1.295-4.51 0-9.28c1.295-4.78 4.067-5.72 4.067-5.72Z" style="fill:#383838;stroke:#000;stroke-width:4px" transform="matrix(.67712 0 0 .5575 174.357 0)"/><path d="m491 3155-7.741 56.92S495.143 3195.56 495 3185c-.143-10.56-4-30-4-30Z" style="fill:#3f3f3f;stroke:#000;stroke-width:4px" transform="matrix(-.4896 -.02607 -.05306 .67562 984.96 -366.367)"/><path d="m234.861 3251.36 11.139 2.61-21.828 20.04s-2.431-11.78-1.136-16.56c1.295-4.77 11.825-6.09 11.825-6.09Z" style="fill:#383838;stroke:#000;stroke-width:4.38px" transform="matrix(-.4009 -.02134 -.05015 .63853 966.606 -245.555)"/><path d="M491 3196c-3.852-24.4 0-41 0-41s-12.105-19.74-73-25c-68.272-5.9-105.217 12.21-105.217 12.21s5.7 48.27-38.961 74.76c-16.076 9.54-54.364 37.53-54.364 37.53s-92.557 26.14-19.952 63.19C226.799 3331.62 305.7 3353.84 336 3341c75.958-32.18 140-110 155-145Z" style="fill:#ffe9ee;stroke:#000;stroke-width:4px" transform="matrix(-.4896 -.02607 -.05306 .67562 984.96 -366.367)"/><path d="M491 3155s6.788 12.39 0 41c-7.792 32.84-109.715 113.25-151.905 131.31-30.77 13.18-67.632 8.42-109.829-4.58-88.329-27.2-28.611-67.06-28.611-67.06s-8.258 4.94-33.1 27.18c-11.766 10.53-42.815 46.69-42.815 46.69s-47.903 65.01 25.362 98.37c35.785 16.29 159.603 23.75 220.232-26.58 47.776-39.65 43.745-62.2 63.58-84.72 44.784-50.85 76.555-52.07 75.086-97.61-1-31-16.816-56.49-18-64Z" style="fill:#212121;stroke:#000;stroke-width:4px" transform="matrix(-.4896 -.02607 -.05306 .67562 984.96 -366.367)"/><path d="M874.417 1686s-180.307 44-299.827 44c-162.074 0-281.59-44-281.59-44s-61.342 54.31-44.138 358S327 2531 327 2531s-27.538 126.4-8 271 51.152 344 51.152 344 21.083 50.37 89.848 50c68.765-.37 80-56 80-56s7.837-268.91 5.608-340c-2.23-71.09-9.03-270-9.03-270s46.565-220.58 47.655-285c1.09-64.42.484-229 .484-229l.336 61s-.606 103.58.484 168c1.09 64.41 47.655 285 47.655 285s-6.8 198.91-9.03 270c-2.229 71.09 5.608 340 5.608 340s11.235 55.62 80 56c68.764.37 89.848-50 89.848-50s31.613-199.4 51.152-344c19.538-144.6-8-271-8-271s60.934-183.31 78.138-487c17.204-303.69-44.138-358-44.138-358" style="fill:#002b65;stroke:#000;stroke-width:4.22px" transform="matrix(.60376 0 0 .5575 186.973 0)"/><path d="M240.813 1518c-17.157-98.12-2.995-95-2.995-95s13.985-72.33 18.182-112c4.156-39.28 7-126 7-126l-138-35s-11.21 174.32.813 259c12.023 84.68 45 158 45 158" style="fill:#ffe9ee;stroke:#000;stroke-width:4px" transform="matrix(.67712 0 0 .5575 174.823 -1.115)"/><path d="M125 1150s-31.718 182.02-15.53 266c1.186 6.16-17.198 70.31-35 98-27 42-23 59-23 59l119-48s7-23 14-39c11.536-26.37 42-86 42-86s18.803-56.33 23-96c4.156-39.28 13.53-119 13.53-119l-138-35Z" style="fill:#ffe9ee;stroke:#000;stroke-width:4px" transform="matrix(-.67712 0 0 .5575 906.975 -1.115)"/><path d="M533.313 1789c81.015 0 301.313-65 301.313-65s7-21-37-136c-54.573-142.63-2.813-478-2.813-478l13.813 135s10.02 8.25 68.687-9 78.5-40 78.5-40-15.595-179.5-78.5-239c-36.279-34.317-102.488-55.674-167.687-74-90.591-25.463-176.313-108-176.313-108S447.591 857.537 357 883c-65.198 18.326-131.408 39.683-167.687 74C126.409 1016.5 102 1184 102 1184v-1s28.646 35.75 87.313 53 80.687 9 80.687 9l7-87s46.573 287.37-8 430c-44 115-37 136-37 136s220.298 65 301.313 65" style="fill:#4aa058;stroke:#000;stroke-width:4px" transform="matrix(.67712 0 0 .5575 176.854 -1.115)"/><path d="M438 727h200s-9.476 127.386 7 147c21 25-40.555 111-105 111s-136.092-83.723-113-110c29-33 11-148 11-148Z" style="fill:#ffe9ee;stroke:#000;stroke-width:4px" transform="matrix(.67712 0 0 .5575 176.854 -1.115)"/><path d="M2759.31 811.5S2694.8 862.433 2713 957c16.42 85.33 135.54 185.66 141.16 289 15.24 280.54-112.16 583.23-131.16 668-25.54 113.94-137 1097-137 1097s-140.55-50.97-165-120c-34-96-32-189-32-189s61.17-89.8 87.99-234c35.91-193.09 30.8-467.51 56.01-679 16.76-140.64 69.17-253.45 75-296 21.15-154.31-14-343-14-343s-1 57-10 152c-3.55 37.46-9 116-9 116l24.36 109.29s-39.7-62.29-132.7.71c-27.64 18.72-96 87-96 87s56.3-142.53 50.34-197c-5.96-54.47-32-374 80-461 59.36-46.111 118-48 141-70 49.65-47.495 117.31-75.5 117.31-75.5Z" style="fill:#2a2a2a;stroke:#000;stroke-width:2px" transform="matrix(.67712 0 0 .5575 -1392.598 -1.673)"/><path d="M2759.31 811.5S2694.8 862.433 2713 957c16.42 85.33 135.54 185.66 141.16 289 15.24 280.54-112.16 583.23-131.16 668-25.54 113.94-137 1097-137 1097s-140.55-50.97-165-120c-34-96-32-189-32-189s61.17-89.8 87.99-234c35.91-193.09 30.8-467.51 56.01-679 16.76-140.64 69.17-253.45 75-296 21.15-154.31-14-343-14-343s7.06 42.78-8.08 137c-9 56-27.33 80.44-39 117-12.35 38.67-37 130-37 130s-4-69-97-43c-32.15 8.99-105 74-105 74s89.89-200.03 91-207c23-145 19-328 102.08-401 56.47-49.614 118-48 141-70 49.65-47.495 117.31-75.5 117.31-75.5Z" style="fill:#2a2a2a;stroke:#000;stroke-width:2px" transform="matrix(-.67712 0 0 .5575 2473.45 -1.673)"/><path d="M542 210c169.99 0 303.65 120.71 303.65 312.5 0 109.814-50.063 242.799-120.65 306.5-52.694 47.553-110.342 85-183 85-35 0-122.429-37.873-175-85-71.038-63.681-128.65-196.278-128.65-306.5C238.35 330.71 372.01 210 542 210Z" style="fill:#ffe9ee;stroke:#000;stroke-width:4.16px" transform="matrix(.6227 0 0 .5575 206.74 -59.374)"/><path d="M482.873 741h114.254S576.816 816 540 816s-57.127-75-57.127-75Z" style="fill:#fff;stroke:#000;stroke-width:4px" transform="matrix(.67712 0 0 .5575 178.603 -47.388)"/><path d="M510.618 578s-1 49-9 63c-7.576 13.257-15.078 30.167-13.745 39 1.333 8.833 27.127 15 27.127 15" style="fill:none;stroke:#000;stroke-width:4px" transform="matrix(.67712 0 0 .5575 178.603 -49.618)"/><path d="M404.5 572.641c16.103 2.404 31.228 17.418 29.5 38.715-2 24.644-13.219 38.763-29.5 38.714C381 650 370.319 636.595 366 615c-1-5-6-49 38.5-42.359Z" style="fill:url(#b);stroke:#000;stroke-width:3.72px" transform="matrix(.7774 0 0 .5575 143.565 -65.616)"/><circle cx="389.865" cy="596.865" r="9.865" style="fill:#fff" transform="matrix(.7774 0 0 .5575 139.678 -64.87)"/><circle cx="403.888" cy="615.843" r="9.157" transform="matrix(.7774 0 0 .5575 140.334 -67.075)"/><path d="M379 635s-5.254-10.683 5.865-10c11.119.683 16.663 7.933 24.023 1 7.359-6.933 5.239-13.495 14.112-14.985 12-2.015 11.613 31.797-8 36.52C384 655 379 635 379 635Z" style="fill:#fff;fill-opacity:.4" transform="matrix(.7774 0 0 .5575 142.211 -64.845)"/><path d="M330 591s24.79-21.361 70.5-18c45.71 3.361 70.5 48 70.5 48" style="fill:none;stroke:#5e3e24;stroke-width:10px" transform="matrix(.67712 0 0 .5575 184.192 -64.845)"/><path d="M357 635s15.285 13.952 43.5 15 46.5-10 46.5-10" style="fill:none;stroke:#5e3e24;stroke-width:4px" transform="matrix(.67712 0 0 .5575 184.192 -64.845)"/><path d="M279 557.5s15.676-18.177 54-23.5c72-10 101 23.5 101 23.5" style="fill:none;stroke:#5e3e24;stroke-width:10px" transform="matrix(.67712 0 0 .5575 209.245 -64.845)"/><path d="M1471.44 453.5s46.73-13.32 79.56-14.263c43-1.237 76 29.618 76 29.618" style="fill:none;stroke:#4f1900;stroke-width:4px" transform="matrix(.67712 0 0 .5575 -598.39 .131)"/><path d="m330 592-11-10s3.443-.572 27.097-6.229c31.935-7.637 62.903-3.13 62.903-3.13s-33.573-4.198-50.323 3.13C342.677 582.771 330 592 330 592Z" style="fill:#5e3e24;stroke:#5e3e24;stroke-width:3.84px" transform="matrix(.69968 0 0 .58398 174.96 -79.965)"/><path d="M357 539s57.122-8.977 70-6.864c9.785 1.606 48 15.682 48 15.682s2.99 13.665-3 12.682c-5.922-.972-29.942-16.244-55-20.5-29.431-4.998-60-1-60-1Z" style="fill:#5e3e24;stroke:#5e3e24;stroke-width:4px" transform="matrix(.67712 0 0 .5575 184.192 -64.845)"/><path d="M404.5 572.641c16.103 2.404 31.228 17.418 29.5 38.715-2 24.644-13.219 38.763-29.5 38.714C381 650 370.319 636.595 366 615c-1-5-6-49 38.5-42.359Z" style="fill:url(#c);stroke:#000;stroke-width:3.72px" transform="matrix(-.7774 0 0 .5575 943.615 -64.845)"/><circle cx="389.865" cy="596.865" r="9.865" style="fill:#fff" transform="matrix(.7774 0 0 .5575 316.314 -64.87)"/><circle cx="403.888" cy="615.843" r="9.157" transform="matrix(.7774 0 0 .5575 319.302 -67.075)"/><path d="M379 635s-5.254-10.683 5.865-10c11.119.683 16.663 7.933 24.023 1 7.359-6.933 5.239-13.495 14.112-14.985 12-2.015 11.613 31.797-8 36.52C384 655 379 635 379 635Z" style="fill:#fff;fill-opacity:.42" transform="matrix(.7774 0 0 .5575 320.202 -64.845)"/><path d="M330 591s24.79-21.361 70.5-18c45.71 3.361 70.5 48 70.5 48" style="fill:none;stroke:#5e3e24;stroke-width:10px" transform="matrix(-.67712 0 0 .5575 905.065 -64.845)"/><path d="M357 635s15.285 13.952 43.5 15 46.5-10 46.5-10" style="fill:none;stroke:#5e3e24;stroke-width:4px" transform="matrix(-.67712 0 0 .5575 905.065 -64.845)"/><path d="M279 557.5s15.676-18.177 54-23.5c72-10 101 23.5 101 23.5" style="fill:none;stroke:#5e3e24;stroke-width:10px" transform="matrix(-.67712 0 0 .5575 880.012 -64.845)"/><path d="M1471.44 453.5s46.73-13.32 79.56-14.263c43-1.237 76 29.618 76 29.618" style="fill:none;stroke:#4f1900;stroke-width:4px" transform="matrix(-.67712 0 0 .5575 1686.884 .395)"/><path d="m330 592-11-10s3.443-.572 27.097-6.229c31.935-7.637 62.903-3.13 62.903-3.13s-33.573-4.198-50.323 3.13C342.677 582.771 330 592 330 592Z" style="fill:#5e3e24;stroke:#5e3e24;stroke-width:3.84px" transform="matrix(-.69968 0 0 .58398 914.297 -79.965)"/><path d="M357 539s57.122-8.977 70-6.864c9.785 1.606 48 15.682 48 15.682s2.99 13.665-3 12.682c-5.922-.972-29.942-16.244-55-20.5-29.431-4.998-60-1-60-1Z" style="fill:#5e3e24;stroke:#5e3e24;stroke-width:4px" transform="matrix(-.67712 0 0 .5575 905.065 -64.845)"/><path d="M416 808.5s-57.323 24.189 10.26 445.5c67.583 421.31-161.05 419.33-209.26 533-22.012 51.9-80 149-80 149l-62.177-122s198.692-129.27 233.22-222c34.528-92.73 20.362-208.85 12.957-312-7.405-103.15-67.567-316.566-12.957-398C362.653 800.566 416 808.5 416 808.5Z" style="fill:#a20000;stroke:#000;stroke-width:1px" transform="matrix(.67712 0 0 .5575 174.357 0)"/><path d="M773.345 783.87c13.248-37.234 5.783-70.125 5.14-114.033-.534-36.386 12.335-46.355 14.391-67.678 11.326-117.473-47.968-187.795-90.459-221.577-88.565-70.412-244.65-50.063-244.65-50.063s-110.186 31.876-152.136 121.45c-17.862 38.139 14.291 89.119 3.084 152.971-5.295 30.165-16.413 40.168-17.475 67.678-1.969 51.02 12.267 78.975 20.559 118.669 7.047 33.737-2.185 68.152 9.251 101.981 24.633 72.864 53.453 96.418 53.453 96.418s-35.094 3.315-70.928-37.084c-8.223-9.271-26.609-27.284-31.866-50.99-1.028-4.636-.03 13.476 7.196 32.448 7.961 20.906 14.391 34.303 31.866 56.553C342.29 1030.75 377 1062 377 1062s-77.363-35.19-128.869-104.762c-23.864-32.237-38.099-57.48-55.574-102.908-12.767-33.189-4.855-82.812-11.339-112.179-10.318-46.739-25.143-78.899-24.639-128.867.396-39.198 25.899-52.834 30.839-90.666 4.874-37.329-11.66-82.827-2.056-115.933 9.941-34.271 28.495-49.72 47.285-78.948C265.807 276.16 310.426 228.806 352 210c38.95-17.619 87.264-38.942 163.331-38.942 117.204 0 209.787 12.14 289.669 119.942 50.58 68.259 41.794 159.48 79.986 248.58 14.7 34.292 10.719 81.766 12.388 110.788 2.616 45.517 12.871 68.844 11.659 97.345-.937 22.053-20.165 90.079-21.586 106.617-10.28 119.596-77.096 155.75-77.096 155.75s28.782-44.498 25.699-71.384c-2.049-17.857-5.589-31.522-5.589-31.522s3.311 14.937 0 33.376c-3.663 20.396-26.278 50.063-36.557 58.407C776.514 1013.07 724 1049 724 1049s37.01-38.92 54.485-74.147c8.15-16.432 11.307-16.688 7.195-49.137-.408-3.223-5.139 31.522-74.012 46.355 0 0 54.074-53.382 47.286-86.22-11.308-54.699 2.883-69.637 14.391-101.981Z" style="fill:#9e7757;stroke:#000;stroke-width:3.89px" transform="matrix(.65871 0 0 .60134 189.006 -71.086)"/><path d="M501.618 315.736s36.069 6.264 73.069 22.302c26.329 11.412 73.766 69.825 97.5 90.962 42.665 37.997 62.5 41 62.5 41s-33.439-30.181-47-48c-14.333-18.833-39-65-39-65s50 63 99 112c26.019 26.019 52 49 52 49s-38.9-42.991-52-65c-25-42-42-122.264-132-146.264-73.522-19.606-114.069 9-114.069 9Z" style="fill:#7d5e4d;stroke:#000;stroke-width:4px" transform="matrix(.67712 0 0 .5575 178.603 -49.618)"/><path d="M372.985 348.006s104.871-50.642 201.702-9.968c26.447 11.109 73.766 69.825 97.5 90.962 42.665 37.997 62.5 41 62.5 41s-33.439-30.181-47-48c-14.333-18.833-49.826-52.824-49.826-52.824S685.687 421 734.687 470c26.019 26.019 84.075 95.908 84.075 95.908s-64.088-87.832-77.188-109.841c-25-42-106.195-110.962-188.069-154.278-112.186-59.351-180.52 46.217-180.52 46.217Z" style="fill:#7d5e4d;stroke:#000;stroke-width:4.67px" transform="matrix(-.49285 .27212 .31552 .38738 592.28 -110.315)"/><path d="M351 99.5s-43 9.5-83 73.5c-26.073 41.716-17.937 43-17.937 43s119.1-18.454 211.937-16c92.837 2.454 279-70.888 279-70.888S557.924 167.581 447 149s-96-49.5-96-49.5Z" style="fill:url(#d)" transform="matrix(.67712 0 0 .5575 183.131 2.23)"/><path d="m3009 1147 62 24s-2 71-13 97c-11.11 26.27-59 57-59 57" style="fill:#9f9f9f;stroke:#a20000;stroke-width:8.52px" transform="matrix(.78057 0 0 .66587 -1711.56 -124.296)"/><path d="M2999 1325s-45.75-33.76-52-65c-6.25-31.24-7-94-7-94l69-19" style="fill:#bbb;stroke:#a20000;stroke-width:8.52px" transform="matrix(.78057 0 0 .66587 -1711.56 -124.296)"/><path d="M625.28 671.543s-.667.403-1.859.327c-1.167-.075-.958-.052-.958-.052s-2.39.929-2.808.022c-.418-.907 2.166-3.52 7.557-2.514 3.538.66 3.517 2.446 3.157 3.556-1.784 5.485-9.497 4.35-9.497 4.35s3.249-.681 4.95-2.95c1.412-1.887 3.314-3.998 3.314-3.998s-3.597 1.352-5.755 4.398c-.912 1.291-4.111 3.142-4.111 3.142s5.378.485 7.837-.3c2.458-.778 4.658-2.783 4.976-4.435.683-3.562-4.471-4.864-9.145-4.15-2.416.367-5.578 2.127-4.884 3.493.395.779 2.252 1.44 4.633.884 2.127-.494 2.593-1.773 2.593-1.773ZM635.773 672.842s-4.046 3.958-3.42 4.441c.32.248 1.715-.787 2.347-1.37.632-.591 2.004-2.234 3.053-2.492 1.049-.264 3.075-.902 2.795.538-.288 1.434-3.862 2.193-4.075 2.21-.203.01-.6.465-.576.82.017.347.26.686 1.351.623 1.9-.117 5.286-3.78 5.286-3.78l-1.13-.06.423-.5 1.13.053 1.559-1.494 1.784.21-1.652 1.497 1.564.106-.46.479-1.517-.124s-3.564 3.147-3.055 3.744c.508.604 2.691-1.494 2.691-1.494l.84.066s-2.888 2.859-5.052 2.35c-.694-.159-.029-1.621-.029-1.621s-2.677 1.882-4.415 1.427c-1.115-.293-.834-1.62-.834-1.62s-3.476 2.265-3.904 1.144c-.436-1.114 3.658-5.217 3.658-5.217l1.638.064Zm.597 2.742s3.51-.722 3.299-1.573c-.203-.85-3.299 1.573-3.299 1.573ZM636.812 671.764s.654-.323.442-.68c-.212-.35-1.389-.278-1.762.044-.373.33-.232.576-.045.712.195.129 1.067.056 1.365-.076Z"/><path d="M3010 1203s3.27-.38 6-4-2-10-2-10 5.44.97 5.83 10c.17 4-3.83 11-12.35 11-8.54 0-11.48-8-11.48-12 0-2.46 2-9 6.41-9 8.09 0 7.59 14 7.59 14Zm-2.08 0s.89-6.11-3.92-7c-4.81-.89-5.74 1.58-6 3.5-.26 1.92 2.15 3.04 4.41 3.5 2.27.46 5.51 0 5.51 0Z" style="fill:#a20000" transform="matrix(-.0428 .66487 -.7794 -.03652 1724.865 -1256.93)"/><path d="m2999.62 1214.56-19.84-.18-2.02 1.89-4.18-7.03 4.2 1.1s35.03.12 39.21-.01c1.49-.04 2.84-1.92 2.84-1.92l.07 7.53-3.99-1.64s3.78 2.11 3.91 7.91c.17 8-7.12 10.69-12.83 9.96-8.88-1.14-10.93-5.05-11.04-9.8-.16-6.85 3.67-7.81 3.67-7.81Zm-2.54 7.52c.19 3.15 5.44 5.28 10.23 4.85 4.8-.42 10.87-1.98 11.19-4.93.26-2.47-3.54-5.73-10.6-5.3-5.79.35-11.01 2.29-10.82 5.38Z" style="fill:#a20000" transform="matrix(-.0428 .66487 -.80409 -.03767 1755.01 -1255.52)"/><path d="m2987 1255 9 1s-8.49 1.55-9.41 8.76c-.62 4.79 8.38 10.24 15.41 10.24 10 0 13-5 14-9 1.68-6.7-4-10-4-10s-4 1-8 0c-7.14-1.79-8.03-7.72-8-12 .03-4.28 2.8-12 13-12 8 0 10 7.07 10 12 0 6-4 11-4 11s3.16 2.42 4 5c.84 2.58 2 9-2 15-2.77 4.16-9.08 9.35-18 7-10.95-2.88-14.01-11.16-14-17 0-4.29 2-6.53 2-8v-2Zm10-11c-1 2 1 6 10 6 9.05 0 12-4 11-7-.55-1.65-3.91-3.21-10-3-6.09.21-9.66 1.32-11 4Z" style="fill:#a20000" transform="matrix(-.0428 .66487 -.7794 -.03652 1724.865 -1256.93)"/><path d="M391.436 784.151S385.85 807.602 390 837c4.15 29.398-17.603 27.909-10 47 7.603 19.091 82.39 71.151 160.39 76.151C635.217 966.229 709.96 916.76 714 894c4.04-22.76-1.143-18.738 0-40s20.647-61.482-8-63.319c-28.647-1.837-26.673 75.529-164.737 63.319-138.064-12.21-91.829-81.947-149.827-69.849Z" style="fill:#a20000;stroke:#000;stroke-width:1px" transform="matrix(.67712 0 0 .5575 167.322 2.704)"/><path d="M425 1555s-3.054 61.12-1 75c2.815 19.02 6.034 31.4 5 28.25h16.793L445 1635l9-41 11 35 13 29.25h19l-7-34.25-13-46 23 41 14.238 39.25h28.644L531 1617l-23-42 32 42 11 41.25h26l-8.125-47.76L543 1578l25.875 32.49S573.5 1630.46 577 1634c3.5 3.54 19 10 19 10l-3-25-22-54s-24.167-22.83-36-31c-8.174-5.64-35-18-35-18" style="fill:#ffe9ee;stroke:#000;stroke-width:4px" transform="matrix(.67712 0 0 .5575 0 0)"/><path d="M397.351 1596.71c2.278 21.24 6.127 30.64 8.181 44.52 2.815 19.03 13.151 44.08 23.406 39.98 5.192-2.08-3.918-24.99-5.686-40.05l3.426-47.98 16.714 31.54s30.354 52.78 46.358 46.96c6.452-2.35-19.241-54.01-19.241-54.01l-11.25-34.21 36.435 38.18 17.888 42.93 19.29-5.76-10.347-45.18-23.344-42.08L540 1617l10.121 36.67 21.082-6.29-2.328-36.89L543 1578l25.875 32.49s4.623 17.79 8.123 21.33c3.5 3.54 21.036 7.55 21.036 7.55L593 1619l-22-54s-24.167-22.83-36-31l-35.112-24.23" style="fill:#ffe9ee;stroke:#000;stroke-width:4px" transform="matrix(-.64886 .15938 .19357 .53424 820.266 -46.646)"/><path style="fill:#515151;stroke:#000;stroke-width:2.51px" d="M49.472 1838.49h75.483v1709.96H49.472z" transform="matrix(.3736 -.25238 .56858 .57056 -1017.75 -12.413)"/><path style="fill:#515151;stroke:#000;stroke-width:2.51px" d="M49.472 1838.49h75.483v1709.96H49.472z" transform="matrix(-.3736 -.25238 -.56858 .57056 2110.29 -12.413)"/><path style="fill:#515151;stroke:#000;stroke-width:2.66px" d="M-.852 1500.46h1591.49v176.179H-.852z" transform="matrix(.67861 0 0 .5575 .578 87.968)"/></g></g><defs><radialGradient id="b" cx="0" cy="0" r="1" gradientUnits="userSpaceOnUse" gradientTransform="matrix(34.4045 0 0 39.0549 399.731 611.015)"><stop offset="0" style="stop-color:white;stop-opacity:1"/><stop offset="1" style="stop-color:#25576c;stop-opacity:1"/></radialGradient><radialGradient id="c" cx="0" cy="0" r="1" gradientUnits="userSpaceOnUse" gradientTransform="matrix(34.4045 0 0 39.0549 399.731 611.015)"><stop offset="0" style="stop-color:white;stop-opacity:1"/><stop offset=".45" style="stop-color:#9f836c;stop-opacity:1"/><stop offset="1" style="stop-color:#856245;stop-opacity:1"/></radialGradient><linearGradient id="d" x1="0" y1="0" x2="1" y2="0" gradientUnits="userSpaceOnUse" gradientTransform="matrix(491.233 0 0 145.538 249.767 172.269)"><stop offset="0" style="stop-color:white;stop-opacity:.62"/><stop offset="1" style="stop-color:white;stop-opacity:.17"/></linearGradient></defs></svg>