<svg viewBox="0 0 1080 3539" xmlns="http://www.w3.org/2000/svg" xml:space="preserve" style="fill-rule:evenodd;clip-rule:evenodd;stroke-linecap:round;stroke-linejoin:round;stroke-miterlimit:1.5"><path style="fill:none" d="M0 0h1080v1973H0z" transform="scale(1 1.79372)"/><path d="M307 245.038c.837-1.65-16.714 139.484-51.42 244.278-23.586 71.22-23.392 140.693-11.505 200.373 3.865 19.404-6.254 65.45-3.301 78.863C277.321 934.518 533.313 1012 533.313 1012s258.109-113.767 283.25-260.378c5.214-30.405-11.494-80.204-19.603-141.653-8.278-62.734 9.017-111.014-3.301-173.157C775.395 344.668 741 245.038 741 245.038S675.188 99.5 533.313 99.5 307 245.038 307 245.038Z" style="fill:#7d5e4d;stroke:#000;stroke-width:3.36px" transform="matrix(1.21183 0 0 1.16658 -98.47 -12.574)"/><path d="m491 3155-7.741 56.92S495.143 3195.56 495 3185c-.143-10.56-4-30-4-30Z" style="fill:#3f3f3f;stroke:#000;stroke-width:4px"/><path d="M491 3196c-3.852-24.4 0-41 0-41s-13.776-34.96-73-25c-59.224 9.96-65 22-65 22s-17.339 44.51-62 71c-16.077 9.54-53.182 33-53.182 33s-31.672 36.63-11.818 62c20 25.56 88.93 35.46 110 23 71-42 140-110 155-145Z" style="fill:#ffe9ee;stroke:#000;stroke-width:4px"/><path d="M491 3155s6.788 12.39 0 41c-7.792 32.84-112.032 128.51-156 145-48 18-83-22-97.182-60-10.815-28.98 0-34 0-34s-16.291 2.98-48.818 28c-13 10-30.898 34.09-37 50-10.311 26.89-30.211 72.26 0 103 30.211 30.74 118.453 63.24 205-27 26.565-27.7 47.166-54.48 67-77 44.784-50.85 86.469-59.46 85-105-1-31-16.816-56.49-18-64Z" style="fill:#232323;stroke:#000;stroke-width:4px"/><path d="m237.818 3247 8.182 4-12.249 11s-1.295-4.51 0-9.28c1.295-4.78 4.067-5.72 4.067-5.72Z" style="fill:#383838;stroke:#000;stroke-width:4px"/><path d="m491 3155-7.741 56.92S495.143 3195.56 495 3185c-.143-10.56-4-30-4-30Z" style="fill:#3f3f3f;stroke:#000;stroke-width:4px" transform="matrix(-.72308 -.04675 -.07836 1.21187 1197.14 -657.16)"/><path d="m234.861 3251.36 11.139 2.61-21.828 20.04s-2.431-11.78-1.136-16.56c1.295-4.77 11.825-6.09 11.825-6.09Z" style="fill:#383838;stroke:#000;stroke-width:4.38px" transform="matrix(-.59206 -.03828 -.07406 1.14535 1170.04 -440.458)"/><path d="M491 3196c-3.852-24.4 0-41 0-41s-12.105-19.74-73-25c-68.272-5.9-105.217 12.21-105.217 12.21s5.7 48.27-38.961 74.76c-16.076 9.54-54.364 37.53-54.364 37.53s-92.557 26.14-19.952 63.19C226.799 3331.62 305.7 3353.84 336 3341c75.958-32.18 140-110 155-145Z" style="fill:#ffe9ee;stroke:#000;stroke-width:4px" transform="matrix(-.72308 -.04675 -.07836 1.21187 1197.14 -657.16)"/><path d="M491 3155s6.788 12.39 0 41c-7.792 32.84-109.715 113.25-151.905 131.31-30.77 13.18-67.632 8.42-109.829-4.58-88.329-27.2-28.611-67.06-28.611-67.06s-8.258 4.94-33.1 27.18c-11.766 10.53-42.815 46.69-42.815 46.69s-47.903 65.01 25.362 98.37c35.785 16.29 159.603 23.75 220.232-26.58 47.776-39.65 43.745-62.2 63.58-84.72 44.784-50.85 76.555-52.07 75.086-97.61-1-31-16.816-56.49-18-64Z" style="fill:#212121;stroke:#000;stroke-width:4px" transform="matrix(-.72308 -.04675 -.07836 1.21187 1197.14 -657.16)"/><path d="M874.417 1686s-180.307 44-299.827 44c-162.074 0-281.59-44-281.59-44s-61.342 54.31-44.138 358S327 2531 327 2531s-27.538 126.4-8 271 51.152 344 51.152 344 21.083 50.37 89.848 50c68.765-.37 80-56 80-56s7.837-268.91 5.608-340c-2.23-71.09-9.03-270-9.03-270s46.565-220.58 47.655-285c1.09-64.42.484-229 .484-229l.336 61s-.606 103.58.484 168c1.09 64.41 47.655 285 47.655 285s-6.8 198.91-9.03 270c-2.229 71.09 5.608 340 5.608 340s11.235 55.62 80 56c68.764.37 89.848-50 89.848-50s31.613-199.4 51.152-344c19.538-144.6-8-271-8-271s60.934-183.31 78.138-487c17.204-303.69-44.138-358-44.138-358" style="fill:#002b65;stroke:#000;stroke-width:4.22px" transform="matrix(.89166 0 0 1 18.633 0)"/><path d="M125 1150s-12.023 200.32 0 285 112.818 251 112.818 251L291 1645s-17.136-102-26-139c-6.705-27.99-27.182-83-27.182-83s13.985-72.33 18.182-112c4.156-39.28 7-126 7-126l-138-35Z" style="fill:#ffe9ee;stroke:#000;stroke-width:4px" transform="translate(.687 -2)"/><path d="M125 1150s-12.023 200.32 0 285 112.818 251 112.818 251L291 1645s-17.136-102-26-139c-6.705-27.99-27.182-83-27.182-83s13.985-72.33 18.182-112c4.156-39.28 7-126 7-126l-138-35Z" style="fill:#ffe9ee;stroke:#000;stroke-width:4px" transform="matrix(-1 0 0 1 1081.97 -2)"/><path d="M533.313 1789c81.015 0 301.313-65 301.313-65s7-21-37-136c-54.573-142.63 3-430 3-430l8 87s10.02 8.25 68.687-9 95.313-53 95.313-53v1s-32.408-167.5-95.313-227c-36.279-34.317-102.488-55.674-167.687-74-90.591-25.463-176.313-108-176.313-108S447.591 857.537 357 883c-65.198 18.326-131.408 39.683-167.687 74C126.409 1016.5 102 1184 102 1184v-1s28.646 35.75 87.313 53 80.687 9 80.687 9l7-87s46.573 287.37-8 430c-44 115-37 136-37 136s220.298 65 301.313 65" style="fill:#4aa058;stroke:#000;stroke-width:4px" transform="translate(3.687 -2)"/><path d="M438 727h200s-9.476 127.386 7 147c21 25-40.555 111-105 111s-136.092-83.723-113-110c29-33 11-148 11-148Z" style="fill:#ffe9ee;stroke:#000;stroke-width:4px" transform="translate(3.687 -2)"/><path d="M542 210c169.99 0 303.65 120.71 303.65 312.5 0 109.814-50.063 242.799-120.65 306.5-52.694 47.553-110.342 85-183 85-35 0-122.429-37.873-175-85-71.038-63.681-128.65-196.278-128.65-306.5C238.35 330.71 372.01 210 542 210Z" style="fill:#ffe9ee;stroke:#000;stroke-width:4.16px" transform="matrix(.91964 0 0 1 47.825 -106.5)"/><path d="M482.873 741h114.254S576.816 816 540 816s-57.127-75-57.127-75Z" style="fill:#fff;stroke:#000;stroke-width:4px" transform="translate(6.271 -85)"/><path d="M510.618 578s-1 49-9 63c-7.576 13.257-15.078 30.167-13.745 39 1.333 8.833 27.127 15 27.127 15" style="fill:none;stroke:#000;stroke-width:4px" transform="translate(6.271 -89)"/><path d="M404.5 572.641c16.103 2.404 31.228 17.418 29.5 38.715-2 24.644-13.219 38.763-29.5 38.714C381 650 370.319 636.595 366 615c-1-5-6-49 38.5-42.359Z" style="fill:url(#a);stroke:#000;stroke-width:3.72px" transform="matrix(1.14811 0 0 1 -45.473 -116.46)"/><circle cx="389.865" cy="596.865" r="9.865" style="fill:#fff" transform="matrix(1.14811 0 0 1 -51.215 -116.36)"/><circle cx="403.888" cy="615.843" r="9.157" transform="matrix(1.14811 0 0 1 -50.248 -120.314)"/><path d="M379 635s-5.254-10.683 5.865-10c11.119.683 16.663 7.933 24.023 1 7.359-6.933 5.239-13.495 14.112-14.985 12-2.015 11.613 31.797-8 36.52C384 655 379 635 379 635Z" style="fill:#fff;fill-opacity:.4" transform="matrix(1.14811 0 0 1 -47.475 -116.314)"/><path d="M330 591s24.79-21.361 70.5-18c45.71 3.361 70.5 48 70.5 48" style="fill:none;stroke:#5e3e24;stroke-width:10px" transform="translate(14.525 -116.314)"/><path d="M357 635s15.285 13.952 43.5 15 46.5-10 46.5-10" style="fill:none;stroke:#5e3e24;stroke-width:4px" transform="translate(14.525 -116.314)"/><path d="M279 557.5s15.676-18.177 54-23.5c72-10 101 23.5 101 23.5" style="fill:none;stroke:#5e3e24;stroke-width:10px" transform="translate(51.525 -116.314)"/><path d="M1471.44 453.5s46.73-13.32 79.56-14.263c43-1.237 76 29.618 76 29.618" style="fill:none;stroke:#4f1900;stroke-width:4px" transform="translate(-1141.23 .236)"/><path d="m330 592-11-10s3.443-.572 27.097-6.229c31.935-7.637 62.903-3.13 62.903-3.13s-33.573-4.198-50.323 3.13C342.677 582.771 330 592 330 592Z" style="fill:#5e3e24;stroke:#5e3e24;stroke-width:3.84px" transform="matrix(1.03333 0 0 1.0475 .892 -143.435)"/><path d="M357 539s57.122-8.977 70-6.864c9.785 1.606 48 15.682 48 15.682s2.99 13.665-3 12.682c-5.922-.972-29.942-16.244-55-20.5-29.431-4.998-60-1-60-1Z" style="fill:#5e3e24;stroke:#5e3e24;stroke-width:4px" transform="translate(14.525 -116.314)"/><path d="M404.5 572.641c16.103 2.404 31.228 17.418 29.5 38.715-2 24.644-13.219 38.763-29.5 38.714C381 650 370.319 636.595 366 615c-1-5-6-49 38.5-42.359Z" style="fill:url(#b);stroke:#000;stroke-width:3.72px" transform="matrix(-1.14811 0 0 1 1136.08 -116.315)"/><circle cx="389.865" cy="596.865" r="9.865" style="fill:#fff" transform="matrix(1.14811 0 0 1 209.65 -116.36)"/><circle cx="403.888" cy="615.843" r="9.157" transform="matrix(1.14811 0 0 1 214.062 -120.314)"/><path d="M379 635s-5.254-10.683 5.865-10c11.119.683 16.663 7.933 24.023 1 7.359-6.933 5.239-13.495 14.112-14.985 12-2.015 11.613 31.797-8 36.52C384 655 379 635 379 635Z" style="fill:#fff;fill-opacity:.42" transform="matrix(1.14811 0 0 1 215.39 -116.314)"/><path d="M330 591s24.79-21.361 70.5-18c45.71 3.361 70.5 48 70.5 48" style="fill:none;stroke:#5e3e24;stroke-width:10px" transform="matrix(-1 0 0 1 1079.15 -116.314)"/><path d="M357 635s15.285 13.952 43.5 15 46.5-10 46.5-10" style="fill:none;stroke:#5e3e24;stroke-width:4px" transform="matrix(-1 0 0 1 1079.15 -116.314)"/><path d="M279 557.5s15.676-18.177 54-23.5c72-10 101 23.5 101 23.5" style="fill:none;stroke:#5e3e24;stroke-width:10px" transform="matrix(-1 0 0 1 1042.15 -116.314)"/><path d="M1471.44 453.5s46.73-13.32 79.56-14.263c43-1.237 76 29.618 76 29.618" style="fill:none;stroke:#4f1900;stroke-width:4px" transform="matrix(-1 0 0 1 2233.78 .709)"/><path d="m330 592-11-10s3.443-.572 27.097-6.229c31.935-7.637 62.903-3.13 62.903-3.13s-33.573-4.198-50.323 3.13C342.677 582.771 330 592 330 592Z" style="fill:#5e3e24;stroke:#5e3e24;stroke-width:3.84px" transform="matrix(-1.03333 0 0 1.0475 1092.78 -143.435)"/><path d="M357 539s57.122-8.977 70-6.864c9.785 1.606 48 15.682 48 15.682s2.99 13.665-3 12.682c-5.922-.972-29.942-16.244-55-20.5-29.431-4.998-60-1-60-1Z" style="fill:#5e3e24;stroke:#5e3e24;stroke-width:4px" transform="matrix(-1 0 0 1 1079.15 -116.314)"/><path d="M773.345 783.87c13.248-37.234 5.783-70.125 5.14-114.033-.534-36.386 12.335-46.355 14.391-67.678 11.326-117.473-47.968-187.795-90.459-221.577-88.565-70.412-244.65-50.063-244.65-50.063s-110.186 31.876-152.136 121.45c-17.862 38.139 14.291 89.119 3.084 152.971-5.295 30.165-16.413 40.168-17.475 67.678-1.969 51.02 12.267 78.975 20.559 118.669 7.047 33.737-2.185 68.152 9.251 101.981 24.633 72.864 53.453 96.418 53.453 96.418s-35.094 3.315-70.928-37.084c-8.223-9.271-26.609-27.284-31.866-50.99-1.028-4.636-.03 13.476 7.196 32.448 7.961 20.906 14.391 34.303 31.866 56.553C342.29 1030.75 377 1062 377 1062s-77.363-35.19-128.869-104.762c-23.864-32.237-38.099-57.48-55.574-102.908-12.767-33.189-4.855-82.812-11.339-112.179-10.318-46.739-25.143-78.899-24.639-128.867.396-39.198 25.899-52.834 30.839-90.666 4.874-37.329-11.66-82.827-2.056-115.933 9.941-34.271 28.495-49.72 47.285-78.948C265.807 276.16 310.426 228.806 352 210c38.95-17.619 87.264-38.942 163.331-38.942 117.204 0 209.787 12.14 289.669 119.942 50.58 68.259 41.794 159.48 79.986 248.58 14.7 34.292 10.719 81.766 12.388 110.788 2.616 45.517 12.871 68.844 11.659 97.345-.937 22.053-20.165 90.079-21.586 106.617-10.28 119.596-77.096 155.75-77.096 155.75s28.782-44.498 25.699-71.384c-2.049-17.857-5.589-31.522-5.589-31.522s3.311 14.937 0 33.376c-3.663 20.396-26.278 50.063-36.557 58.407C776.514 1013.07 724 1049 724 1049s37.01-38.92 54.485-74.147c8.15-16.432 11.307-16.688 7.195-49.137-.408-3.223-5.139 31.522-74.012 46.355 0 0 54.074-53.382 47.286-86.22-11.308-54.699 2.883-69.637 14.391-101.981Z" style="fill:#9e7757;stroke:#000;stroke-width:3.89px" transform="matrix(.97282 0 0 1.07864 21.635 -127.509)"/><path d="M501.618 315.736s36.069 6.264 73.069 22.302c26.329 11.412 73.766 69.825 97.5 90.962 42.665 37.997 62.5 41 62.5 41s-33.439-30.181-47-48c-14.333-18.833-39-65-39-65s50 63 99 112c26.019 26.019 52 49 52 49s-38.9-42.991-52-65c-25-42-42-122.264-132-146.264-73.522-19.606-114.069 9-114.069 9Z" style="fill:#7d5e4d;stroke:#000;stroke-width:4px" transform="translate(6.271 -89)"/><path d="M372.985 348.006s104.871-50.642 201.702-9.968c26.447 11.109 73.766 69.825 97.5 90.962 42.665 37.997 62.5 41 62.5 41s-33.439-30.181-47-48c-14.333-18.833-49.826-52.824-49.826-52.824S685.687 421 734.687 470c26.019 26.019 84.075 95.908 84.075 95.908s-64.088-87.832-77.188-109.841c-25-42-106.195-110.962-188.069-154.278-112.186-59.351-180.52 46.217-180.52 46.217Z" style="fill:#7d5e4d;stroke:#000;stroke-width:4.67px" transform="matrix(-.72787 .48811 .46597 .69486 617.21 -197.874)"/><path d="M351 99.5s-43 9.5-83 73.5c-26.073 41.716-17.937 43-17.937 43s119.1-18.454 211.937-16c92.837 2.454 279-70.888 279-70.888S557.924 167.581 447 149s-96-49.5-96-49.5Z" style="fill:url(#c)" transform="translate(12.958 4)"/><defs><radialGradient id="a" cx="0" cy="0" r="1" gradientUnits="userSpaceOnUse" gradientTransform="matrix(34.4045 0 0 39.0549 399.731 611.015)"><stop offset="0" style="stop-color:white;stop-opacity:1"/><stop offset="1" style="stop-color:#25576c;stop-opacity:1"/></radialGradient><radialGradient id="b" cx="0" cy="0" r="1" gradientUnits="userSpaceOnUse" gradientTransform="matrix(34.4045 0 0 39.0549 399.731 611.015)"><stop offset="0" style="stop-color:white;stop-opacity:1"/><stop offset=".45" style="stop-color:#9f836c;stop-opacity:1"/><stop offset="1" style="stop-color:#856245;stop-opacity:1"/></radialGradient><linearGradient id="c" x1="0" y1="0" x2="1" y2="0" gradientUnits="userSpaceOnUse" gradientTransform="translate(249.767 172.269) scale(491.233)"><stop offset="0" style="stop-color:white;stop-opacity:.62"/><stop offset="1" style="stop-color:white;stop-opacity:.17"/></linearGradient></defs></svg>