<svg viewBox="0 0 1080 3539" xmlns="http://www.w3.org/2000/svg" xml:space="preserve" style="fill-rule:evenodd;clip-rule:evenodd;stroke-linecap:round;stroke-linejoin:round;stroke-miterlimit:1.5"><path style="fill:none" d="M0 0h1080v1973H0z" transform="scale(1 1.79372)"/><path d="M307 245.038s-63.791 169.511-38.372 284.944c36.546 165.966 189.494 197.985 281.866 232.11 87.883 32.467 189.498 76.78 227.1-41.051C810.572 617.702 741 245.038 741 245.038S675.188 99.5 533.313 99.5 307 245.038 307 245.038Z" style="stroke:#000;stroke-width:3.42px" transform="matrix(1.21183 0 0 1.12274 -110.776 -12.213)"/><path d="m491 3155-7.741 56.92S495.143 3195.56 495 3185c-.143-10.56-4-30-4-30Z" style="fill:#3f3f3f;stroke:#000;stroke-width:4px"/><path d="M491 3196c-3.852-24.4 0-41 0-41s-13.776-34.96-73-25c-59.224 9.96-65 22-65 22s-17.339 44.51-62 71c-16.077 9.54-53.182 33-53.182 33s-31.672 36.63-11.818 62c20 25.56 88.93 35.46 110 23 71-42 140-110 155-145Z" style="fill:#e8cbba;stroke:#000;stroke-width:4px"/><path d="M491 3155s6.788 12.39 0 41c-7.792 32.84-112.032 128.51-156 145-48 18-83-22-97.182-60-10.815-28.98 0-34 0-34s-16.291 2.98-48.818 28c-13 10-30.216 29.59-38.897 44.26-7.804 13.19-38.365 61.82 1.897 108.74 28.068 32.71 118.453 63.24 205-27 26.565-27.7 47.166-54.48 67-77 44.784-50.85 86.469-59.46 85-105-1-31-16.816-56.49-18-64Z" style="fill:#fff;stroke:#000;stroke-width:4px"/><path d="m237.818 3247 8.182 4-12.249 11s-1.295-4.51 0-9.28c1.295-4.78 4.067-5.72 4.067-5.72Z" style="fill:#383838;stroke:#000;stroke-width:4px"/><path d="m491 3155-7.741 56.92S495.143 3195.56 495 3185c-.143-10.56-4-30-4-30Z" style="fill:#3f3f3f;stroke:#000;stroke-width:4px" transform="matrix(-.72308 -.04675 -.07836 1.21187 1197.14 -657.16)"/><path d="m234.861 3251.36 11.139 2.61-21.828 20.04s-2.431-11.78-1.136-16.56c1.295-4.77 11.825-6.09 11.825-6.09Z" style="fill:#383838;stroke:#000;stroke-width:4.38px" transform="matrix(-.59206 -.03828 -.07406 1.14535 1170.035 -440.458)"/><path d="M491 3196c-3.852-24.4 0-41 0-41s-12.105-19.74-73-25c-68.272-5.9-105.217 12.21-105.217 12.21s5.7 48.27-38.961 74.76c-16.076 9.54-54.364 37.53-54.364 37.53s-92.557 26.14-19.952 63.19C226.799 3331.62 305.7 3353.84 336 3341c75.958-32.18 140-110 155-145Z" style="fill:#e8cbba;stroke:#000;stroke-width:4px" transform="matrix(-.72308 -.04675 -.07836 1.21187 1197.14 -657.16)"/><path d="M491 3155s6.788 12.39 0 41c-7.792 32.84-109.715 113.25-151.905 131.31-30.77 13.18-67.632 8.42-109.829-4.58-88.329-27.2-28.611-67.06-28.611-67.06s-8.258 4.94-33.1 27.18c-11.766 10.53-31.64 30.95-41.403 46.93-3.84 6.29-47.199 66.03 23.95 98.13 35.906 16.2 159.603 23.75 220.232-26.58 47.776-39.65 43.745-62.2 63.58-84.72 44.784-50.85 76.555-52.07 75.086-97.61-1-31-16.816-56.49-18-64Z" style="fill:#fff;stroke:#000;stroke-width:4px" transform="matrix(-.72308 -.04675 -.07836 1.21187 1197.14 -657.16)"/><path d="M874.417 1686s-180.307 44-299.827 44c-162.074 0-281.59-44-281.59-44s-61.342 54.31-44.138 358 35.521 487 35.521 487 3.864 126.4 23.402 271 31.325 270.88 56.694 336.55c12.352 31.97 17.267 53.79 86.032 53.42C519.275 3191.59 540 3140 540 3140s7.837-268.91 5.608-340c-2.23-71.09-3.423-270-3.423-270s40.958-220.58 42.048-285c1.09-64.42.484-229 .484-229l.336 61s-.606 103.58.484 168c1.09 64.41 42.047 285 42.047 285s-1.192 198.91-3.422 270c-2.229 71.09 5.608 340 5.608 340s14.942 50.17 83.706 50.55c68.765.37 80.036-19.31 92.149-51.38 24.809-65.66 33.457-192.57 52.995-337.17 19.539-144.6 22.281-271 22.281-271s22.803-183.31 40.007-487c17.204-303.69-44.138-358-44.138-358" style="fill:#637161;stroke:#000;stroke-width:4.22px" transform="matrix(.89166 0 0 1 18.633 0)"/><path d="M3906.78 1757.73s-44.68 59.29-93.44 70.05c-48.76 10.75-84.52-6.49-84.52-6.49" style="fill:none;stroke:#000;stroke-width:5.25px" transform="matrix(.97819 0 0 .4519 -3398.33 963.409)"/><path d="M3906.78 1757.73s-44.68 59.29-93.44 70.05c-48.76 10.75-84.52-6.49-84.52-6.49" style="fill:none;stroke:#000;stroke-width:5.25px" transform="matrix(-.97819 0 0 .4519 4477.46 955.122)"/><path d="m3742.28 2357.38 60.64-.53 7.81-300.45-85.72-4.63 1.55 53.61 83.29-2.49" style="fill:none;stroke:#000;stroke-width:4px" transform="translate(-3483.56)"/><path d="m3734.75 2356.85 62.81.77 13.14-300.22-85.69-5.63 1.55 53.61 82.23-4.63" style="fill:none;stroke:#000;stroke-width:4px" transform="matrix(-.99955 -.03008 -.03008 .99955 4624.03 111.997)"/><path d="M125 1150s-12.023 200.32 0 285 112.818 251 112.818 251L291 1645s-17.136-102-26-139c-6.705-27.99-27.182-83-27.182-83s13.985-72.33 18.182-112c4.156-39.28 7-126 7-126l-138-35Z" style="fill:#e8cbba;stroke:#000;stroke-width:4px"/><path d="M125 1150s-12.023 200.32 0 285 112.818 251 112.818 251L291 1645s-17.136-102-26-139c-6.705-27.99-27.182-83-27.182-83s13.985-72.33 18.182-112c4.156-39.28 7-126 7-126l-138-35Z" style="fill:#e8cbba;stroke:#000;stroke-width:4px" transform="matrix(-1 0 0 1 1068.28 0)"/><path d="M533.313 1789c81.015 0 301.313-65 301.313-65s7-21-37-136c-54.573-142.63-11-430-11-430l8 87s24.02 8.25 82.687-9 84.313-53 84.313-53v1s-21.408-167.5-84.313-227c-36.279-34.317-102.488-55.674-167.687-74-90.591-25.463-176.313-108-176.313-108S447.591 857.537 357 883c-65.198 18.326-131.408 39.683-167.687 74C126.409 1016.5 105 1184 105 1184v-1s25.646 35.75 84.313 53 82.687 9 82.687 9l8-87s43.573 287.37-11 430c-44 115-37 136-37 136s220.298 65 301.313 65" style="fill:#e9b1e8;stroke:#000;stroke-width:4px"/><path d="M4018.81 1221.75c6.76-5.9 28.96-29.85 35.27-36.23 16.75-16.94 37.08-36.92 33.9-63.14-1.49-12.24-13.26-28.67-27.46-26.41-8.4 1.34-16.23 9.06-21.38 15.21-3.68 4.39-7.08 9-10.44 13.64-1.5 2.06-2.8 4.26-4.1 6.45-2-2.96-4-5.91-6.19-8.73-6.57-8.43-14.93-17.84-25.15-21.9-16.25-6.47-29.39 6.34-33.34 21.53-7.17 27.58 21.01 53.57 39.29 69.29" style="fill:none;stroke:#000;stroke-width:18.59px" transform="matrix(.45657 0 0 .40254 -1296.88 629.02)"/><circle cx="5195.4" cy="1095.13" r="51.398" style="fill:none;stroke:#000;stroke-width:8.18px" transform="matrix(.99245 0 0 .9623 -4616.03 38.616)"/><path d="M438 727h200s-9.476 127.386 7 147c21 25-41.377 99.806-105 99.806S403.908 901.277 427 875c29-33 11-148 11-148Z" style="fill:#e8cbba;stroke:#000;stroke-width:4px"/><path d="M542 210c169.99 0 308 120.71 308 312.5 0 109.814-54.413 244.799-125 308.5-52.694 47.553-110.342 81-183 81-35 0-122.429-33.873-175-81-71.038-63.681-133-198.278-133-308.5C234 330.71 372.01 210 542 210Z" style="fill:#e8cbba;stroke:#000;stroke-width:4.16px" transform="matrix(.91964 0 0 1 34.867 -110.5)"/><path d="M482.873 741h114.254S576.816 816 540 816s-57.127-75-57.127-75Z" style="fill:#fff;stroke:#000;stroke-width:4px" transform="translate(-6.687 -89)"/><path d="M519 602.5s-4 25.5-12 39.5c-7.576 13.257-13.061 27.879-9.313 36 6 13 30 17 30 17" style="fill:none;stroke:#000;stroke-width:4px" transform="translate(-6.687 -93)"/><path d="M283.176 540.425s20.552-20.832 58.89-26.049c60.244-8.199 91.243 24.763 91.243 24.763" style="fill:none;stroke:#000;stroke-width:10px" transform="matrix(-1 0 0 1 1030.19 -120.314)"/><path d="M330 591s24.79-21.361 70.5-18c45.71 3.361 70.5 48 70.5 48" style="fill:none;stroke:#000;stroke-width:10px" transform="matrix(-1 0 0 1 1067.19 -120.314)"/><path d="M357 635s15.285 13.952 43.5 15 46.5-10 46.5-10" style="fill:none;stroke:#000;stroke-width:4px" transform="matrix(-1 0 0 1 1067.19 -120.314)"/><path d="M404.5 572.641c16.103 2.404 31.228 17.418 29.5 38.715-2 24.644-13.219 38.763-29.5 38.714C381 650 370.319 636.595 366 615c-1-5-6-49 38.5-42.359Z" style="fill:url(#a);stroke:#000;stroke-width:3.72px" transform="matrix(-1.14811 0 0 1 1125.437 -120.314)"/><circle cx="389.865" cy="596.865" r="9.865" style="fill:#fff" transform="matrix(1.14811 0 0 1 197.692 -120.36)"/><circle cx="403.888" cy="615.843" r="9.157" transform="matrix(1.14811 0 0 1 202.104 -124.314)"/><path d="M379 635s-5.254-10.683 5.865-10c11.119.683 16.663 7.933 24.023 1 7.359-6.933 5.239-13.495 14.112-14.985 12-2.015 11.613 31.797-8 36.52C384 655 379 635 379 635Z" style="fill:#fff;fill-opacity:.4" transform="matrix(1.14811 0 0 1 203.433 -120.314)"/><path d="m330 592-11-10s3.443-.572 27.097-6.229c31.935-7.637 62.903-3.13 62.903-3.13s-33.573-4.198-50.323 3.13C342.677 582.771 330 592 330 592Z" style="stroke:#000;stroke-width:3.84px" transform="matrix(-1.03333 0 0 1.0475 1080.823 -147.435)"/><path d="M359.78 518.013s21.569-11.694 58.048-7.022c21.092 2.701 55.224 23.111 55.224 23.111s6.249 12.181.259 11.197c-5.922-.972-32.393-26.677-62.544-29.067-29.759-2.359-50.987 1.781-50.987 1.781Z" style="stroke:#000;stroke-width:4px" transform="matrix(-1 0 0 1 1067.19 -120.314)"/><path d="M283.176 540.425s20.552-20.832 58.89-26.049c60.244-8.199 91.243 24.763 91.243 24.763" style="fill:none;stroke:#000;stroke-width:10px" transform="translate(31.445 -120.314)"/><path d="M330 591s24.79-21.361 70.5-18c45.71 3.361 70.5 48 70.5 48" style="fill:none;stroke:#000;stroke-width:10px" transform="translate(-5.555 -120.314)"/><path d="M357 635s15.285 13.952 43.5 15 46.5-10 46.5-10" style="fill:none;stroke:#000;stroke-width:4px" transform="translate(-5.555 -120.314)"/><path d="M404.5 572.641c16.103 2.404 31.228 17.418 29.5 38.715-2 24.644-13.219 38.763-29.5 38.714C381 650 370.319 636.595 366 615c-1-5-6-49 38.5-42.359Z" style="fill:url(#b);stroke:#000;stroke-width:3.72px" transform="matrix(1.14811 0 0 1 -63.802 -120.314)"/><circle cx="389.865" cy="596.865" r="9.865" style="fill:#fff" transform="matrix(1.14811 0 0 1 -73.68 -120.36)"/><circle cx="403.888" cy="615.843" r="9.157" transform="matrix(1.14811 0 0 1 -69.268 -124.314)"/><path d="M379 635s-5.254-10.683 5.865-10c11.119.683 16.663 7.933 24.023 1 7.359-6.933 5.239-13.495 14.112-14.985 12-2.015 11.613 31.797-8 36.52C384 655 379 635 379 635Z" style="fill:#fff;fill-opacity:.4" transform="matrix(1.14811 0 0 1 -67.94 -120.314)"/><path d="m330 592-11-10s3.443-.572 27.097-6.229c31.935-7.637 62.903-3.13 62.903-3.13s-33.573-4.198-50.323 3.13C342.677 582.771 330 592 330 592Z" style="stroke:#000;stroke-width:3.84px" transform="matrix(1.03333 0 0 1.0475 -19.188 -147.435)"/><path d="M359.78 518.013s21.569-11.694 58.048-7.022c21.092 2.701 55.224 23.111 55.224 23.111s6.249 12.181.259 11.197c-5.922-.972-32.393-26.677-62.544-29.067-29.759-2.359-50.987 1.781-50.987 1.781Z" style="stroke:#000;stroke-width:4px" transform="translate(-5.555 -120.314)"/><path d="M465 310s-74.051 19.427-116 109c-41.949 89.573-81.39 179.486-59.163 285.888C312.064 811.29 445.081 839.3 445.081 839.3s-108.795 14.718-158.795-65.282c-10.808-17.293-32.079-119.789-32.079-119.789s11.125 76.929 32.079 119.789c22 45 158.795 65.282 158.795 65.282S298 824.112 250.721 752.139C172.819 633.547 154 251 352 210c41.418-8.576 69 0 69 0s30.382-28.355 61.873-39C545 150 734.5 178 805 291c78.301 125.504 89.197 400.612 68.419 493.537-15.824 70.765-52.065 117.2-52.065 117.2s20.181-39.725 19.234-77.75c-1.944-78.009-13.665-119.12-13.665-119.12s-.695 272.386-41.695 316.383c-39.968 42.9-77.228 33.44-77.228 33.44s62.98-80.847 54.472-151.968c-13.701-114.525 27.453-148.653 23.53-276.459-3.618-117.871-35.964-232.425-78.455-266.207C618.982 289.644 465 310 465 310Z" style="fill:#423836;stroke:#000;stroke-width:3.89px" transform="matrix(.97282 0 0 1.07864 8.677 -131.509)"/><path d="M477.673 176.505s98.328 59.292 150.364 131.675c72.146 100.357 137.813 80.836 137.813 80.836s-53.985-13.6-66.333-25.31c-15.25-14.461-44.35-65.453-44.35-65.453s31.198 22.824 80.141 36.8c58.132 16.6 126.433 2.578 126.433 2.578s-92.778-18.974-103.827-29.626C707.35 259.255 669.43 94.68 507.455 115.686c-93.475 12.123-29.782 60.82-29.782 60.82Z"/><path d="M469.323 125.274s-71.721 42.373-106.74 118.356c-10.54 22.868-23.26 46.708-34.354 83.61-19.231 63.976 20.078 88.756 20.078 88.756s-9.106-23.812-9.814-33.468c-.846-11.54 4.74-35.77 4.74-35.77s.98 22.269 5.192 32.343c4.462 10.67 21.576 31.681 21.576 31.681s-17.514-58.192-1.783-82.422c30.571-47.084 87.932-85.151 99.853-123.236 13.887-44.364 1.252-79.85 1.252-79.85Z"/><path d="M458.052 136.097s-38.923 37.386-68.276 103.171c-6.62 14.835-19.113 58.815-21.991 92.407-4.99 58.237 14.617 79.16 14.617 79.16s-4.699-29.972-1.03-43.73c2.51-9.411 7.507-26.606 7.507-26.606s1.082 20.634 2.536 31.603c1.455 10.97 11.207 35.625 11.207 35.625s-.553-36.012 7.386-59.016c15.43-44.702 54.805-107.76 58.113-142.48 3.854-40.446-10.069-70.134-10.069-70.134Z"/><path d="M487.548 135.976s-33.612 36.554-58.263 101.602c-5.559 14.67-15.754 58.29-17.666 91.73-3.315 57.974 14.354 79.2 14.354 79.2s-4.698-29.971-1.72-43.62c2.037-9.338 6.123-26.39 6.123-26.39s1.336 20.594 2.822 31.558c1.487 10.965 10.54 35.73 10.54 35.73s-1.157-35.917 5.414-58.707c12.77-44.286 46.303-106.428 48.574-140.987 2.646-40.256-10.178-70.116-10.178-70.116Z"/><path d="M515.87 136.077s-27.438 35.586-46.62 99.778c-4.326 14.476-11.848 57.677-12.637 90.941-1.37 57.67 14.048 79.25 14.048 79.25s-4.698-29.973-2.522-43.496c1.487-9.252 4.512-26.137 4.512-26.137s1.633 20.547 3.156 31.506c1.522 10.96 9.764 35.85 9.764 35.85s-1.859-35.806 3.12-58.347c9.676-43.8 36.418-104.879 37.483-139.249 1.24-40.035-10.304-70.096-10.304-70.096ZM565.277 117.823s71.721 42.373 106.74 118.355c10.54 22.868 8.761 54.803 34.354 83.61 32.134 36.17 112.449 47.381 112.449 47.381s-65.32 9.131-92.343-2.182c-13.45-5.632-35.11-25.68-35.11-25.68s12.783 17.142 16.602 27.372c4.346 11.644 15.866 34.466 15.866 34.466s-40.57-18.907-57.453-80.237c-14.9-54.125-87.932-85.151-99.853-123.236-13.887-44.363-1.252-79.85-1.252-79.85Z"/><path d="M576.55 128.646s38.923 37.385 68.276 103.17c6.62 14.835 19.113 58.815 21.991 92.407 4.99 58.237-14.617 79.16-14.617 79.16s4.699-29.972 1.03-43.73c-2.51-9.411-7.507-26.605-7.507-26.605s-1.082 20.633-2.536 31.602c-1.455 10.97-11.207 35.625-11.207 35.625s.553-36.011-7.386-59.015c-15.43-44.703-54.805-107.76-58.113-142.481-3.854-40.446 10.069-70.133 10.069-70.133Z"/><path d="M469.323 125.274s-61.022 34.838-115.067 102.969c-12.188 15.364-38.602 62.156-49.695 99.058-19.232 63.976 3.018 90.694 3.018 90.694s-.004-34.193 7.933-48.872c5.429-10.042 15.91-28.316 15.91-28.316s-2.931 23.164-3.291 35.632c-.359 12.469 7.666 41.623 7.666 41.623s6.934-40.195 22.665-64.425c30.57-47.084 179.497-183.749 191.419-221.834 13.886-44.363-80.558-6.529-80.558-6.529Z" style="fill:#2a2727" transform="matrix(-.62923 -.09858 -.13733 .87656 839.813 66.273)"/><path d="M491.057 132.992s27.438 35.586 46.62 99.778c4.326 14.476 11.848 57.677 12.637 90.941 1.37 57.67-14.048 79.25-14.048 79.25s4.698-29.973 2.522-43.496c-1.487-9.252-4.512-26.137-4.512-26.137s-1.633 20.547-3.156 31.506c-1.522 10.96-9.764 35.85-9.764 35.85s1.859-35.806-3.12-58.347c-9.676-43.8-36.418-104.879-37.483-139.249-1.24-40.035 10.304-70.096 10.304-70.096ZM414.773 99.377c-25.224 13.531-66.376 57.478-115.228 125.399-20.544 28.56-40.795 50.332-74.01 175.357-6.906 25.99-9.455 122.653-5.024 185.85 2.095 29.885 2.774 38.08 18.225 83.47 18.432 54.148 33.115 50.435 54.453 82.822 0 0-43.362-69.151-51.573-140.05-11.143-96.223 1.054-162.987 9.61-176.79 6.358-10.26-2.564 11.945-2.949 63.555-1.574 210.858 107.212 291.646 107.212 291.646s-95.716-187.687-86.933-284.679c8.404-92.808 36.428-167.845 40.742-181.296C355.774 179.733 442.885 182.69 450.89 143.592c6.126-29.922-19.594-53.078-36.117-44.215Z"/><path d="M272.085 238.04c-35.191 62.322-63.867 179.71-64.953 252.054a462263.28 462263.28 0 0 0-3.035 207.727s-17.566-98.418-6.303-229.717c6.155-71.749 33.154-187.939 55.366-233.876 81.021-167.557 164.246-136.08 164.246-136.08s-91.308 44.238-145.321 139.892Z" style="fill-opacity:.72"/><path d="M435.33 100.356s64.85-53.948 159.766-19.749c128.075 46.147 226.107 330.35 245.56 420.545 19.452 90.196 21.348 126.99 24.493 163.977 6.506 76.49 6.037 132.998 6.037 132.998s-17.875-138.943-23.064-174.961c-5.103-35.423-33.393-280.068-180.495-469.207-38.495-49.495-94.651-55.81-120.004-56.423-25.353-.613-95.756 23.783-95.756 23.783l-16.537-20.963Z"/><path d="M519.014 72.188s226.623-43.596 285.701 217.96c47.887 212.014 9.92 307.18 8.877 361.713-.281 14.699-48.426 141.263-48.426 141.263s28.551-102.726 35.87-157.087c12.031-89.356 24.286-230.875 10.084-267.697-26.206-67.948-64.952-190.959-144.463-237.535C587.145 84.23 537.591 88.31 537.591 88.31l-18.577-16.12Z"/><path d="M752.445 284.402s15.448 77.447 23.783 180.563c9.362 115.82 11.245 263.758 1.286 365.611-10.406 106.421-83.642 127.502-83.642 127.502s63.408-4.448 91.015-77.63c27.607-73.182-1.852-529.082-1.852-529.082l-30.59-66.964Z"/><path d="m784.692 379.458 56.778 248.33 6.061 108.694-69.194-329.66 6.355-27.364Z"/><path d="M351 99.5s-43 9.5-83 73.5c-26.073 41.716-17.937 43-17.937 43s102.801 51.309 195.382 44c152-12 307-102 307-102s-230.316 54.581-341.24 36C300.281 175.419 351 99.5 351 99.5Z" style="fill:url(#c)"/><path d="M4232.79 864.435s-58.76 2.358-61.69 56.672c-2.93 54.313 2.88 88.973 2.88 88.973s17.65.22 32.25-26.74c15.91-29.381 31.76-106.787 26.56-118.905Z" style="fill:#262626;stroke:#000;stroke-width:2px" transform="translate(-3483.56)"/><path d="M4214.06 878.133s-45.45-18.468-53.39 38.806c-5.54 40.034 4.89 73.845 4.89 73.845s20.82-26.41 31.1-31.814c29.57-15.547 22.6-68.719 17.4-80.837Z" style="fill:#423836;stroke:#000;stroke-width:2px" transform="rotate(-11.338 2981.295 18708.95)"/><path d="M4216.59 881.305s-54.91-20.88-57.84 33.434c-2.93 54.313 8.25 59.914 8.25 59.914 2.53-22.497 26.32-33.157 31.52-39.797 20.62-26.296 23.26-41.433 18.07-53.551Z" style="fill:#262626;stroke:#000;stroke-width:2px" transform="rotate(-21.268 2952.282 10473.295)"/><path d="M4234.67 893.325s-38.34-47.071-59.51 19.342c-16.52 51.823-1.18 97.413-1.18 97.413s9.93-8.39 24.53-35.348c15.91-29.381 41.36-69.29 36.16-81.407Z" style="fill:#423836;stroke:#000;stroke-width:2px" transform="rotate(-21.268 3157.931 10617.081)"/><path d="M4229.36 902.611s-32.05-53.351-52.34 13.42c-11.91 39.169-3.04 94.049-3.04 94.049s25.34-23.852 39.94-50.812c15.91-29.38 20.64-44.539 15.44-56.657Z" style="fill:#262626;stroke:#000;stroke-width:2px" transform="matrix(-.59856 -.80108 -.80108 .59856 3962.07 3851.207)"/><path d="M4229.53 913.858s-49.33-4.218-60.67 32.661c-15.98 51.99-1.31 51.658-1.31 51.658s15.84-8.757 34.47-22.654c26.78-19.981 32.71-49.547 27.51-61.665Z" style="fill:#423836;stroke:#000;stroke-width:2px" transform="matrix(-.35759 -.93388 -.93388 .3576 3060.23 4703.026)"/><path d="M4233.66 901.281c-7.91-11.434-34.72-12.381-56.6 23.946-28.06 46.596-3.08 84.853-3.08 84.853s17.65.22 32.25-26.74c15.91-29.381 35.35-70.626 27.43-82.059Z" style="fill:#262626;stroke:#000;stroke-width:2px" transform="matrix(-.54523 -.8383 -.83829 .54523 3725.5 4209.125)"/><path d="M4075.06 1277.54s-14.13 3.72-26.2 30.79c-7.66 17.17-6.12 35.07-5.12 51.51 1.12 18.51-18.13 67.74-18.13 67.74s28.03-18.68 61.15-47.47c21.91-19.03 40.37-61.32 37.01-73-10.79-37.47-17.59-43.27-48.71-29.57Z" style="stroke:#000;stroke-width:2px" transform="rotate(-11.489 2254.234 18528.067)"/><path d="M4016.66 455c-5.03.019-20.66 3-24.66 12-2.33 5.238 1.65 12.12 1.65 12.12S3980 543 3951 571c-29.78 28.757-108 29-143-9-21.86-23.738-37.97-68.637-44-90-1.5-5.326-5.7-.462-6.5-4.534-1.56-8.03-1.95-14.092-1.95-14.092s23.43-30.943 111.49-31.152c93.96-.222 118.87 32.53 118.87 32.53S3998 447 4016.87 447s30.96 7.752 30.96 7.752 24.91-32.752 118.87-32.53c88.05.209 111.49 31.152 111.49 31.152s-.39 6.062-1.96 14.092c-.79 4.072-4.99-.792-6.49 4.534-6.04 21.363-22.14 66.262-44 90-35 38-113.22 37.757-143 9-29-28-42.66-91.88-42.66-91.88s3.98-6.882 1.66-12.12c-4-9-19.63-11.981-24.66-12h-.42Zm229.55-3.668c-14.66-8.167-33.71-18.303-84-16.5-50.29 1.803-99.99 15.924-106 33-6.01 17.077 11.39 76.034 29 96 15 17 45.11 21.601 67.08 21 21.97-.601 50.92-10 65.31-24 15.73-15.313 27.67-53.993 35.61-77 7.94-23.006 2.58-27.168-7-32.5ZM3787 450.5c-9.58 5.332-14.94 9.494-7 32.5 7.94 23.006 19.88 61.687 35.62 77 14.38 14 43.33 23.399 65.3 24 21.98.601 52.08-4 67.08-21 17.62-19.966 35.01-78.923 29-96-6.01-17.077-55.71-31.197-106-33-50.29-1.803-69.33 8.333-84 16.5Z" style="fill:#fff;fill-opacity:.45;stroke:#000;stroke-width:2px" transform="translate(-3483.56)"/><defs><radialGradient id="a" cx="0" cy="0" r="1" gradientUnits="userSpaceOnUse" gradientTransform="matrix(68.809 0 0 78.1099 365.326 611.015)"><stop offset="0" style="stop-color:#918b8b;stop-opacity:1"/><stop offset="1" style="stop-color:#270c00;stop-opacity:1"/></radialGradient><radialGradient id="b" cx="0" cy="0" r="1" gradientUnits="userSpaceOnUse" gradientTransform="matrix(68.809 0 0 78.1099 365.326 611.015)"><stop offset="0" style="stop-color:#918b8b;stop-opacity:1"/><stop offset="1" style="stop-color:#270c00;stop-opacity:1"/></radialGradient><linearGradient id="c" x1="0" y1="0" x2="1" y2="0" gradientUnits="userSpaceOnUse" gradientTransform="matrix(491.233 0 0 145.538 249.767 172.269)"><stop offset="0" style="stop-color:white;stop-opacity:.62"/><stop offset="1" style="stop-color:white;stop-opacity:.17"/></linearGradient></defs></svg>