<svg viewBox="0 0 533 712" xmlns="http://www.w3.org/2000/svg" xml:space="preserve" style="fill-rule:evenodd;clip-rule:evenodd;stroke-linecap:round;stroke-linejoin:round;stroke-miterlimit:1.5"><path d="M1240.79 522.308s-25.85 55.103-33.45 68.763c-7.6 13.659-39.77 62.938-35.87 78.804 5.36 21.833 38.18 24.928 52.9 32.222 14.72 7.295 42.77 13.544 53.39 15.566 24.4 4.643 37.99-13.811 37.99-13.811s16.52-3.486 18.54-11.796c3.64-14.927-5.91-21.829-5.91-21.829s13.72-29.444-54.16-32.962c-41.56-2.154-55.53 1.117-55.53 1.117s.6-17.405 5.01-30.594c18.72-55.94 45.88-92.675 45.88-92.675l-28.79 7.195Z" style="fill:#f18a48" transform="translate(-921.194 -19.45)"/><path d="M407.184 650.776s-4.3-6.685-14.519-7.077c-10.22-.392-36.111.207-36.111.207" style="fill:none;stroke:#000;stroke-width:1px"/><path d="M1187.85 515.862s-38.65 82.784-49.21 97.016c-10.55 14.232-24.62 17.982-24.62 17.982s-53.03-4.267-65.47 10.451c-12.43 14.718-29.69 46.782-21.06 61.382 4.98 8.412 10.5 6.92 10.5 6.92s4.81 12.076 11.96 13.742c7.15 1.665 23.17-1.566 23.17-1.566s7.21 9.67 17.74 8.921c10.53-.749 22.43-8.216 29.51-14.793 7.08-6.577 9.05-12.095 16.44-16.339 7.39-4.245 21.73-16.435 23.69-20.471 5.58-11.508 2.13-22.72 3.94-36.808.76-5.914 6.02-29.681 15.15-54.207 12.63-33.905 30.09-70.097 30.09-70.097l-21.83-2.133Z" style="fill:#f18a48" transform="translate(-921.194 -19.45)"/><path d="M394.565 684.406s1.187-16.469-16.721-18.97c-17.908-2.501-23.563-1.558-23.563-1.558M116.791 690.162s-2.033-18.44 4.74-27.217c11.785-15.272 28.749-20.898 28.749-20.898" style="fill:none;stroke:#000;stroke-width:1px"/><path d="M1144.62 400.153s-3.45-9.863-8.13-14.449c-4.67-4.585-18.19-16.298-16.81-21.109 1.38-4.81 7.95-8.069 14.06-6.21 6.11 1.86 21.48 20.064 22.4 25.72.92 5.655 2.85 17.344 2.85 17.344l-14.37-1.296" style="fill:#eaa2c0" transform="translate(-921.194 -19.45)"/><path d="M1124.64 409.876s-10.65-5.666-16.04-12.026c-5.4-6.36-10.72-11.608-14.36-13.274-3.63-1.666-22.45-6.403-23.09-10.538-.64-4.136-.86-10.602 11.97-10.116 12.84.487 26.57 8.534 34.34 14.758 7.78 6.224 21.04 24.224 21.04 24.224l-4.51 5.976-9.35.996Z" style="fill:#fc7a81" transform="translate(-921.194 -19.45)"/><path d="m1120.34 432.213-33.63-7.837 2.56-2.18-12.64-.14 4.43-2.659-18.97 2.212 3.91-3.324s-12.79 5.912-21.04-.04c-7.08-5.105-.44-14.571 5.31-17.537 5.74-2.966 21.66-6.189 35.97-4.191 22.28 3.111 41.82 23.141 41.82 23.141l-.91 8.441-6.81 4.114Z" style="fill:#fddf43" transform="translate(-921.194 -19.45)"/><path d="m1127.59 444.676-13.73-1.462 7.02-6.432-3.82-5.628s7.15.421 9.1-7.444c1.95-7.865-6.15-17.977-6.15-17.977l12.69 1.02 4.82-10.61 4.53 2.704s3.72-2.715 7.72-4.528c3.99-1.814 9.78 4.954 9.78 4.954l-31.96 45.403Z" style="fill:#4d85b5" transform="translate(-921.194 -19.45)"/><path d="M1303.48 317.635s19.16 11.941 28.16 19.104c9 7.162 14.85 13.865 19.16 15.13 4.32 1.266 10.24 2.834 19.2 6.34 8.97 3.507 44.33 29.628 44.33 29.628s4.4-10.221 8.83-12.99c4.44-2.769 4.38-4.611 5.37-7.337.99-2.725-2.54-13.202 1.78-15.106 4.32-1.903 12.31 7.872 11.98 13.24-.32 5.368-6.98 17.245-5.68 22.015 1.3 4.771 5.85 12.708 7.13 16.242 1.27 3.533 1.83 9.876 3.11 12.796 1.27 2.92 7.66 16.35 7.2 23.328-.47 6.978-3.14 32.629-10.1 33.508-6.95.879-6.48-10.155-8.34-17.103-1.85-6.949-16.73-23.283-22.72-28.641-6-5.358-8.61-11.188-8.61-11.188s-10.86-4.315-17.61-5.849c-6.76-1.535-51.19-8.71-58.18-19.403-6.99-10.693-25.01-73.714-25.01-73.714M1245.88 395.549s-16.4 35.973-24.18 47.218c-7.78 11.244-22.62 29.822-26.23 32.46-3.61 2.638-33.55 14.822-33.55 14.822l-3.13 9.014s15.53 14.03 26.47 16.025c10.94 1.996 63.38 14.293 84.45 1.797 13.63-8.079 34.57-22.363 40.15-29.953 16.98-23.088 18.26-60.893 18.26-60.893l-4.91-29.982-77.33-.508Z" style="fill:#313368" transform="translate(-921.194 -19.45)"/><path d="M1279.06 228.921s-.85 8.245-2.87 13.511-3.4 9.372-3.4 9.372 6.51 28.599 9.6 34.136c3.09 5.537 21.92 45.078 24.17 51.566 1.03 2.957 8.31 22.713 12.95 42.469 5.52 23.574 8.43 47.486 8.43 47.486l1.01-14.442s4.7 6.815 6.59 6.055c1.89-.76-7.06-21.958-7.06-21.958s11.53 19.228 15.32 15.054c3.78-4.175-5.47-12.042-5.47-12.042l12.63 3.126s-14.49-6.308-18.41-9.292c-3.92-2.985-5.31-5.595-5.31-5.595s-14.66-43.86-17.66-54.336c-1.31-4.542-10.19-24.528-16.46-46.133-8.21-28.236-14.06-58.977-14.06-58.977ZM1202.67 304.657s6.51 4.174 7.36 12.464c.84 8.289 3.91 16.573 3.91 16.573s15.44-3.764 18.16 2.35c8.89 19.982-8.39 60.324-9.49 68.828-1.1 8.505 4.25 21.146-2.96 31.243-14.59 20.453-57.16 36.095-57.16 36.095s-.22 5.66-.27 10.741c-.06 5.08-.72 7.12-.72 7.12s24.31-4.5 37.52-16.536c13.22-12.037 44.5-62.99 46.54-78.124 2.05-15.135 4.27-29.783 2.9-40.166-1.38-10.383-6.58-29.004-10.02-34.856-3.44-5.852-19.73-17.433-19.73-17.433l-16.04 1.701Z" style="fill:#4d85b5" transform="translate(-921.194 -19.45)"/><path d="M1214.99 332.381s16.23-3.925 17.42 3.373c.52 3.218 4.44 14.515 2.6 27.293-2.32 16.202-10.61 34.788-10.84 42.308-.42 13.452 2.21 23.178-2.77 30.841-11.05 16.99-58.4 37.532-58.4 37.532s.27 13.708-2.29 20.701c-2.55 6.992-20.39 38.041-23.71 49.786-3.31 11.744-5.08 37.174-10.44 40.882-5.37 3.708-8.84.755-8.84.755s1.54 9.937-4.83 10.317c-6.38.381-12.64-15.148-12.64-15.148s-14.96-2.807-14.97-20.431c-.01-7.871-1.6-29.694-.94-40.869.81-13.847 3.9-16.457 3.9-16.457s-2.63-2.555-9.11 1.011c-6.48 3.565-20.44 11.955-31.12 5.05-10.69-6.905-7.12-7.916-5.11-11.905 2-3.989 17.45-4.826 24.41-10.242 6.97-5.416 26.08-26.166 34.51-30.299 8.43-4.133 12.84-3.432 12.84-3.432s10.02-6.291 18.52-18.19c8.99-12.568 16.66-30.894 23-35.371 12.34-8.716 10.5-4.271 15.75-11.647 5.26-7.375 15.72-35.189 23.95-43.653 8.22-8.464 19.11-12.205 19.11-12.205Z" style="fill:#313368" transform="translate(-921.194 -19.45)"/><path d="M1218 302.652s14.02 11.107 19.3 16.467c5.27 5.36 10.87 31.638 11.43 41.466.56 9.827-3.38 33.987-3.38 33.987s7.85 15.697 22.91 24.759c15.06 9.062 24.15 18.629 24.15 18.629s21.14-20.334 26.46-28.987c5.32-8.652 3.83-14.869 3.83-14.869s-6.47-30.122-17-58.156c-9.08-24.16-22.28-46.371-23.93-51.08-3.56-10.173-9.34-33.698-9.34-33.698s-16.55 30.355-25.24 36.739c-8.69 6.385-29.19 14.743-29.19 14.743Z" style="fill:#eeeae6" transform="translate(-921.194 -19.45)"/><path d="M1242.85 78.604s-1.54-6.658.81-8.147c2.36-1.489 4.3-1.685 4.3-1.685s-15.47-34.169-15.17-39.591c.3-5.423 5.2-10.072 11.48-9.711 20.69 1.192 28.36 38.344 28.19 48.5-.17 10.156-6.88 31.374-6.88 31.374l1.99.372s7.58-9.583 9.85-15.79c2.28-6.207 2.8-35.264 17.84-35.592 15.05-.328 11.27 15.057 9.56 21.741-1.71 6.685-5.42 13.317-9.47 18.825-4.06 5.508-29.24 22.297-29.24 22.297l-8.29-5.669-14.97-26.924Z" style="fill:#aacbe6" transform="translate(-921.194 -19.45)"/><path d="M1164.62 82.862s9.61-11.14 18.77-10.706c9.17.434 18.79 12.495 18.79 12.495s5.27-1.673 9.21-6.404c3.95-4.73 10.44-9.663 16.88-8.104 6.45 1.559 24.35 13.837 25.74 22.692.61 3.883.37 4.249.37 4.249s21.81 2.013 21.36 6.876c-.45 4.864-16.35 1.83-16.35 1.83s9.88 5.021 12.78 4.988c2.89-.033 5.64-.622 5.71 1.39.07 2.012-2.45 4.707-6.55 4.429-4.1-.279-11.65-4.671-11.65-4.671s12.02 6.994 14.79 6.086c2.77-.908 8.11 6.346 7.62 7.246-2.54 4.677-18.54-5.641-18.54-5.641s8.52 7.443 11.47 8.878c2.94 1.434 5.61 2.658 5.12 4.814-.48 2.156-7.37-.558-7.37-.558s4.13 3.102 4.81 4.477c.68 1.374-3.98-.702-3.8 2.579.17 3.28-.97 32.223-.15 40.101.82 7.879 2.31 24.61 2.31 24.61s-3.65-7.1-7.36-9.993c-7.96-6.189-35.29-10.782-46.99-22.808-12.6-12.943-14.02-45.308-14.83-59.454-.3-5.17-1.33-10.395-4.19-15.96-2.87-5.565-9.49-11.139-9.49-11.139l-28.46-2.302Z" style="fill:#4d85b5" transform="translate(-921.194 -19.45)"/><path d="M1223.51 109.612s1.46-15.695 8.84-17.57c7.38-1.876 12.79 1.052 16.94 7.631 5.83 9.252 4.25 30.069 4.25 30.069s-2.71-24.273-15.12-25.838c-9.4-1.185-14.91 5.708-14.91 5.708Z" style="fill:#97b9e4" transform="translate(-921.194 -19.45)"/><path d="M1223.46 109.463s6.54-6.771 13.78-5.752c14.69 2.069 16.09 26.121 16.09 26.121s-.69 51.465-16.78 47.983c-24.43-5.29-13.09-68.352-13.09-68.352Z" style="fill:#f7f2ed" transform="translate(-921.194 -19.45)"/><path d="M330.376 131.92c.04-5.166-1.79-10.85-5.22-12.025-4.23-1.449-14.47-2.258-15.57 14.244-.87 13.108 4.52 16.351 7.48 17.415 2.96 1.065 13.18-1.367 13.31-19.635Z"/><path d="M1237.61 142.417c1.79.147 2.48 2.166 2.31 4.359-.14 1.92-1.19 4.002-2.74 3.718-1.95-.358-2.4-2.747-2.4-4.152 0-1.406.82-4.091 2.83-3.925Z" style="fill:#fff" transform="translate(-921.194 -19.45)"/><path d="M1196.61 293.43c-.01-1.739 1.96-7.151.75-12.044-2.05-8.291-9.63-31.74-9.63-31.74s16.99-2.953 28.76-9.609c16.28-9.206 23.85-28.775 23.85-28.775l7.92 9.487s2.39 33.004-11.81 50.271c-11.71 14.246-39.84 22.41-39.84 22.41Z" style="fill:#2b1929" transform="translate(-921.194 -19.45)"/><path d="M1223.17 244.411s-8.41-1.627-14.29 4.6c-4.12 4.363-7.42 27.51-2.95 35.203 4.47 7.692 4.09 4.742 4.09 4.742s19.02-6.835 25.88-18.016c6.87-11.18 11.45-27.478 11.45-27.478s.05-6.248-10.57-4.857c-10.62 1.391-13.61 5.806-13.61 5.806Z" style="fill:#992a2c" transform="translate(-921.194 -19.45)"/><path d="m1166.63 83.782 26.67 1.284s12.43 7.055 13.62 26.764c1.19 19.71 4.64 45.488 11.46 55.605 12.29 18.218 43.08 18.234 51.74 27.917 8.66 9.683 17.09 30.795-3.75 69.596-24.97 46.508-75.1 42.104-77.93 37.659-2.19-3.437 1.49-14.711-1.6-28.853-2.99-13.707-10.91-23.84-10.91-23.84l11.23-.321s9.88 26.964 10.01 33.105c.14 6.141.18 10.972.18 10.972s32.97-9.277 43.71-29.172c10.74-19.896 7.35-43.836 7.35-43.836s-.78-.754-3.91-4.732c-3.12-3.979-4.34-4.714-4.34-4.714s-2.79 8.436-8.69 15.107c-5.91 6.672-15.35 13.247-15.35 13.247s-12.52-21.374-12.49-42.492c.04-27.066 3.81-31.141 3.81-31.141s-17.14-19.147-19.87-37.73c-5.71-38.864-20.94-44.425-20.94-44.425Z" style="fill:#f4b63c" transform="translate(-921.194 -19.45)"/><path d="m1141.89 80.598 23.62 2.474s17.9 11.974 20.03 32.787c3.26 31.845 21.59 49.979 21.59 49.979s-6.14 10.085-3.06 39.329c2.12 20.083 12.3 34.475 12.3 34.475s-8.55 5.931-21.01 8.299c-12.45 2.367-21.05 1.696-21.05 1.696s16.56-1.578 6.12-91.57c-5.83-50.332-38.54-77.469-38.54-77.469Z" style="fill:#8b1411" transform="translate(-921.194 -19.45)"/><path d="M1101.03 74.418s43.55 29.891 51.66 87.861c12.73 91.08-12.9 89.001-12.9 89.001l32.58-1.041s19.34 5.031 9.04-85.218c-1.61-14.201-4.7-26.868-8.46-37.268-12.07-33.397-30.42-47.128-30.42-47.128l-41.5-6.207Z" style="fill:#cf5d80" transform="translate(-921.194 -19.45)"/><path d="M142.106 290.181S49.112 277.86 13.478 200.762c-32.495-70.304 3.531-128.348 20.535-138.26 55.483-32.339 145.723-7.09 145.723-7.09s43.02 24.397 52.2 88.751c13.25 92.92-14.71 87.724-14.71 87.724s-31.98 6.218-44.6 18.196c-21.01 19.938-30.52 40.098-30.52 40.098Z"/><path d="M1066.8 305.402s-8.87-58.956 35.48-66.428c44.34-7.472 62.71.792 86.42-4.1 23.71-4.891-64.21 17.267-79.86 24.192-27.17 12.026-42.04 46.336-42.04 46.336ZM977.185 258.896s-32.34-27.863-33.864-74.175c-1.523-46.313 14.197-93.551 45.429-98.859 31.23-5.309 214.51 11.063 214.51 11.063s-3.74-10.282-11.56-12.037c-3.1-.694-27.41-1.074-56.95-4.944-23.46-3.074-45.72-8.307-67.18-11.412-19.8-2.866-38.94-3.781-57.12-2.681-40.485 2.451-81.727 12.987-88.963 90.399-5.003 53.512 55.698 102.646 55.698 102.646" style="fill:#fff;fill-opacity:.52" transform="translate(-921.194 -19.45)"/><path d="M990.83 203.964s-40.591-31.772-31.473-71.133c9.119-39.361 20.272-47.175 58.113-45.725 37.85 1.451 186.48 11.113 186.48 11.113s1.64 4.298 2.49 9.489c.45 2.769.81 9.036 1.32 14.389.54 5.733 1.21 10.473 1.21 10.473s-133.4-15.858-174.11 7.539c-51.804 29.769-44.03 63.855-44.03 63.855Z" style="fill:#fff;fill-opacity:.52" transform="translate(-921.194 -19.45)"/><path d="M151.762 701.739s-2.56-18.403 3.836-27.242c7.482-10.34 17.716-14.633 17.716-14.633" style="fill:none;stroke:#000;stroke-width:1px"/></svg>